<svg width="1586" height="900" viewBox="0 0 1586 900" fill="none" xmlns="http://www.w3.org/2000/svg">
<g clip-path="url(#clip0)">
<rect width="1586" height="900" fill="white"/>
<g opacity="0.75">
<path opacity="0.4" d="M1224.52 231.255C1044.78 235.648 891.619 221.768 706.552 207.262C704.548 197.808 701.795 188.42 699.384 188.42C697.237 188.42 694.594 197.105 692.568 206.164C670.468 204.451 647.917 202.727 624.782 201.036C624.287 193.493 619.023 164.8 614.872 164.8C611.172 164.8 606.063 190.385 605.05 199.576C572.324 197.237 538.442 194.964 503.162 192.834C500.96 177.296 494.86 148.592 489.849 148.592C485.313 148.592 479.268 175.649 476.79 191.417C453.732 190.451 431.236 190.198 409.357 190.539C407.397 179.426 403.851 164.778 400.845 164.778C398.015 164.778 394.348 179.767 392.333 190.923L389.14 191.033C387.169 182.172 384.603 173.837 382.335 173.837C380.067 173.837 377.545 182.501 375.519 191.549C344.39 192.933 314.659 195.48 286.559 198.84C284.543 188.156 281.295 175.616 278.52 175.616C275.745 175.616 272.2 189.891 270.152 200.872C225.282 206.844 180.796 215.394 136.915 226.479C134.922 217.431 132.301 208.767 129.989 208.767C127.676 208.767 124.483 220.011 122.369 230.267C44.9812 251.065 0 272.071 0 272.071V402.544C109.43 365.484 258.083 392.936 414.995 450.585C441.113 460.182 469.016 469.439 497.37 478.19C497.37 478.19 719.975 325.382 1008.04 299.896C1296.11 274.41 1480.23 318.432 1585.63 341.601V164.811C1585.63 164.811 1467.38 225.37 1224.52 231.255Z" fill="url(#paint0_linear)"/>
<path opacity="0.4" d="M0 786.87C0 786.87 377.424 807.909 580.847 674.317C806.579 526.077 1023.37 405.289 1585.63 530.195V906.285H0V786.87Z" fill="white"/>
<path opacity="0.4" d="M1585.63 341.601V530.195C1193.28 443.03 969.151 475.566 792.816 553.529C792.816 553.529 639.34 522.102 497.371 478.245C497.371 478.245 719.976 325.437 1008.04 299.951C1296.11 274.464 1480.23 318.431 1585.63 341.601Z" fill="url(#paint1_linear)"/>
<path opacity="0.4" d="M414.994 450.585C258.083 392.936 109.43 365.484 0 402.544V637.258C325.494 534.324 566.499 683.267 566.543 683.289C571.403 680.361 576.174 677.37 580.858 674.318C649.128 629.527 716.473 587.24 792.826 553.529C792.826 553.529 639.35 522.102 497.381 478.245C469.016 469.439 441.113 460.193 414.994 450.585Z" fill="url(#paint2_linear)"/>
<path opacity="0.4" d="M104.476 543.098V611.848C92.4295 613.898 80.2253 616.292 67.8633 619.03C68.601 599.451 78.8746 491.225 91.3945 491.225C96.1403 491.225 100.556 506.74 104.256 527.077L93.872 532.567L100.479 545.206L104.476 543.098Z" fill="url(#paint3_linear)"/>
<path opacity="0.3" d="M277.265 587.778L267.905 595.981L262.774 600.472L261.475 601.57C258.193 601.431 254.89 601.318 251.564 601.23L257.896 595.674L263.027 591.182L265.373 589.217L269.216 585.857L272.816 582.705L277.265 587.778Z" fill="#A3B9E6"/>
<path opacity="0.3" d="M274.347 602.24C270.933 602.042 267.509 601.866 264.051 601.724L262.774 600.472L257.896 595.717L248.977 587.043L253.733 582.178L255.627 584.023L260.032 588.272V588.327L262.994 591.204L267.872 595.959L274.347 602.24Z" fill="#A3B9E6"/>
<path opacity="0.2" d="M255.65 584.045C254.114 581.994 253.411 579.442 253.679 576.896C254.075 572.504 259.449 570.187 262.488 562.325C262.488 562.325 277.276 570.011 269.183 585.846L263.039 591.226L255.65 584.045Z" fill="#A3B9E6"/>
<path opacity="0.3" d="M260.065 588.349C259.724 588.009 256.85 582.134 262.62 576.72C262.62 576.72 268.709 578.763 265.329 589.216L263.027 591.226L260.065 588.349Z" fill="#A3B9E6"/>
<path opacity="0.4" d="M391.904 618.557C384.159 616.829 376.198 615.204 368.02 613.682C366.919 603.524 365.587 592.631 364.078 581.991C367.315 564.51 371.169 551.333 375.288 551.333C382.093 551.333 388.072 586.801 391.904 618.557Z" fill="url(#paint4_linear)"/>
<path opacity="0.4" d="M497.315 650.533C494.265 649.336 491.138 648.139 487.911 646.921C481.444 644.505 474.628 642.078 467.463 639.64C471.196 613.989 476.173 590.82 481.646 590.82C485.621 590.82 489.354 603.063 492.503 619.611C494.298 629.022 495.928 639.816 497.315 650.533Z" fill="url(#paint5_linear)"/>
<path opacity="0.2" d="M511.938 656.474C507.336 654.541 502.461 652.561 497.315 650.533C495.928 639.816 494.298 629.022 492.503 619.611C494.563 610.464 496.908 604.238 499.33 604.238C504.517 604.205 509.119 632.349 511.938 656.474Z" fill="#A3B9E6"/>
<path opacity="0.4" d="M368.021 613.682C365.202 613.14 362.354 612.624 359.476 612.134C350.931 610.633 342.173 609.257 333.203 608.005C330.847 607.675 328.468 607.368 326.079 607.061C326.971 599.264 327.995 591.171 329.107 583.199C333.632 550.894 339.843 520.609 346.725 520.609C353.607 520.609 359.619 550.104 364.123 581.959C365.576 592.632 366.92 603.525 368.021 613.682Z" fill="url(#paint6_linear)"/>
<path opacity="0.4" d="M329.107 583.177C328.005 591.149 326.97 599.242 326.078 607.039C317.424 605.919 308.589 604.945 299.574 604.118C303.979 574.667 309.782 548.775 316.091 548.775C320.87 548.797 325.319 563.412 329.107 583.177Z" fill="url(#paint7_linear)"/>
<path opacity="0.4" d="M566.543 683.289C498.647 723.994 414.07 749.173 331.154 764.546C229.267 783.444 129.934 787.672 67.0039 788.045C25.5793 788.298 0 786.87 0 786.87V637.257C325.528 534.313 566.543 683.289 566.543 683.289Z" fill="url(#paint8_linear)"/>
<path opacity="0.2" d="M111.677 335.496C109.068 352.076 106.898 370.206 105.313 385.732C97.0175 385.872 88.8508 386.238 80.8125 386.83C85.4152 349.573 92.4515 309.285 100.358 309.285C104.432 309.296 108.275 320.013 111.677 335.496Z" fill="url(#paint9_linear)"/>
<path opacity="0.2" d="M149.754 386.962C139.594 386.23 129.581 385.809 119.715 385.7C114.855 385.634 110.04 385.634 105.268 385.7C106.854 370.173 109.023 352.044 111.633 335.463C115.938 308.011 121.444 284.754 127.445 284.754C137.201 284.787 145.614 345.686 149.754 386.962Z" fill="url(#paint10_linear)"/>
<path opacity="0.4" d="M217.804 519.489L206.792 513.702C206.264 508.563 205.691 503.644 205.141 499.076C206.671 490.533 208.323 485.174 210.052 485.174C212.893 485.163 215.557 499.899 217.804 519.489Z" fill="url(#paint11_linear)"/>
<path opacity="0.3" d="M224.07 601.032L217.11 601.131C219.445 601.087 221.757 601.054 224.07 601.032Z" fill="#A3B9E6"/>
<path opacity="0.4" d="M206.781 513.691L203.214 511.802L190.297 505.016C192.5 485.36 195.208 470.558 198.071 470.558C200.637 470.558 203.037 482.44 205.13 499.053C205.702 503.632 206.253 508.508 206.781 513.691Z" fill="url(#paint12_linear)"/>
<path opacity="0.4" d="M232.064 543.097V600.999C189.302 600.975 146.616 604.605 104.476 611.848V543.086L168.264 509.606L232.064 543.097Z" fill="url(#paint13_linear)"/>
<path opacity="0.2" d="M128.414 501.525V514.383L113.46 522.245V501.525H128.414Z" fill="#A3B9E6"/>
<g opacity="0.4">
<path d="M235.994 545.173L168.264 509.595L100.533 545.173L93.8711 532.534L168.264 493.453L242.667 532.534L235.994 545.173Z" fill="url(#paint14_linear)"/>
</g>
<path opacity="0.15" d="M168.264 588.711C182.592 588.711 194.207 577.129 194.207 562.841C194.207 548.553 182.592 536.97 168.264 536.97C153.936 536.97 142.321 548.553 142.321 562.841C142.321 577.129 153.936 588.711 168.264 588.711Z" fill="#A3B9E6"/>
<path opacity="0.5" d="M168.264 580.509C178.049 580.509 185.981 572.599 185.981 562.841C185.981 553.083 178.049 545.173 168.264 545.173C158.479 545.173 150.547 553.083 150.547 562.841C150.547 572.599 158.479 580.509 168.264 580.509Z" fill="url(#paint15_linear)"/>
<path opacity="0.2" d="M129.933 589.261C129.203 589.261 128.503 588.971 127.986 588.456C127.47 587.942 127.18 587.243 127.18 586.515V565.059C127.18 564.331 127.47 563.633 127.986 563.118C128.503 562.603 129.203 562.314 129.933 562.314C130.663 562.314 131.363 562.603 131.88 563.118C132.396 563.633 132.686 564.331 132.686 565.059V586.471C132.692 586.836 132.625 587.197 132.489 587.535C132.353 587.874 132.152 588.181 131.895 588.441C131.639 588.701 131.334 588.907 130.997 589.047C130.66 589.188 130.298 589.261 129.933 589.261Z" fill="#A3B9E6"/>
<path opacity="0.2" d="M204.215 594.751C203.854 594.745 203.497 594.668 203.165 594.525C202.834 594.382 202.533 594.175 202.282 593.916C202.03 593.657 201.832 593.351 201.699 593.015C201.566 592.68 201.501 592.322 201.507 591.962V576.04C201.507 575.312 201.797 574.614 202.313 574.099C202.829 573.584 203.529 573.295 204.26 573.295C204.99 573.295 205.69 573.584 206.206 574.099C206.722 574.614 207.012 575.312 207.012 576.04V591.962C207.018 592.329 206.95 592.695 206.812 593.036C206.673 593.377 206.467 593.687 206.206 593.947C205.945 594.207 205.635 594.412 205.293 594.55C204.951 594.688 204.584 594.757 204.215 594.751Z" fill="#A3B9E6"/>
<path opacity="0.2" d="M204.216 567.804C203.486 567.804 202.785 567.515 202.269 567C201.753 566.485 201.463 565.787 201.463 565.059V542.548C201.463 541.82 201.753 541.122 202.269 540.607C202.785 540.092 203.486 539.803 204.216 539.803C204.946 539.803 205.646 540.092 206.162 540.607C206.679 541.122 206.969 541.82 206.969 542.548V565.059C206.969 565.787 206.679 566.485 206.162 567C205.646 567.515 204.946 567.804 204.216 567.804Z" fill="#A3B9E6"/>
<path opacity="0.2" d="M217.506 582.947C216.776 582.947 216.076 582.658 215.56 582.143C215.043 581.628 214.753 580.93 214.753 580.202V558.745C214.753 558.017 215.043 557.319 215.56 556.804C216.076 556.289 216.776 556 217.506 556C218.236 556 218.937 556.289 219.453 556.804C219.969 557.319 220.259 558.017 220.259 558.745V580.202C220.259 580.93 219.969 581.628 219.453 582.143C218.937 582.658 218.236 582.947 217.506 582.947Z" fill="#A3B9E6"/>
<path opacity="0.2" d="M117.821 576.007C117.091 576.007 116.391 575.718 115.875 575.203C115.358 574.688 115.068 573.99 115.068 573.262V551.805C115.068 551.077 115.358 550.379 115.875 549.864C116.391 549.349 117.091 549.06 117.821 549.06C118.551 549.06 119.251 549.349 119.768 549.864C120.284 550.379 120.574 551.077 120.574 551.805V573.295C120.565 574.017 120.271 574.707 119.756 575.214C119.241 575.722 118.546 576.007 117.821 576.007Z" fill="#A3B9E6"/>
<path opacity="0.1" d="M125.243 497.231H116.632V501.524H125.243V497.231Z" fill="#A3B9E6"/>
<g opacity="0.2">
<path opacity="0.2" d="M100.092 612.287C102.33 612.287 104.144 610.478 104.144 608.246C104.144 606.014 102.33 604.205 100.092 604.205C97.8543 604.205 96.04 606.014 96.04 608.246C96.04 610.478 97.8543 612.287 100.092 612.287Z" fill="#A3B9E6"/>
<path opacity="0.2" d="M92.1308 613.704C94.3687 613.704 96.1829 611.894 96.1829 609.663C96.1829 607.431 94.3687 605.622 92.1308 605.622C89.8928 605.622 88.0786 607.431 88.0786 609.663C88.0786 611.894 89.8928 613.704 92.1308 613.704Z" fill="#A3B9E6"/>
<path opacity="0.2" d="M84.1586 615.274C86.3966 615.274 88.2108 613.464 88.2108 611.233C88.2108 609.001 86.3966 607.192 84.1586 607.192C81.9207 607.192 80.1064 609.001 80.1064 611.233C80.1064 613.464 81.9207 615.274 84.1586 615.274Z" fill="#A3B9E6"/>
<path opacity="0.2" d="M94.8617 606.094C97.0997 606.094 98.9139 604.285 98.9139 602.053C98.9139 599.821 97.0997 598.012 94.8617 598.012C92.6238 598.012 90.8096 599.821 90.8096 602.053C90.8096 604.285 92.6238 606.094 94.8617 606.094Z" fill="#A3B9E6"/>
<path opacity="0.2" d="M89.5209 600.022C91.7589 600.022 93.5731 598.212 93.5731 595.981C93.5731 593.749 91.7589 591.94 89.5209 591.94C87.283 591.94 85.4688 593.749 85.4688 595.981C85.4688 598.212 87.283 600.022 89.5209 600.022Z" fill="#A3B9E6"/>
<path opacity="0.2" d="M86.7577 607.62C88.9957 607.62 90.8099 605.811 90.8099 603.579C90.8099 601.348 88.9957 599.538 86.7577 599.538C84.5198 599.538 82.7056 601.348 82.7056 603.579C82.7056 605.811 84.5198 607.62 86.7577 607.62Z" fill="#A3B9E6"/>
<path opacity="0.2" d="M76.165 616.866C78.4029 616.866 80.2171 615.057 80.2171 612.825C80.2171 610.594 78.4029 608.784 76.165 608.784C73.927 608.784 72.1128 610.594 72.1128 612.825C72.1128 615.057 73.927 616.866 76.165 616.866Z" fill="#A3B9E6"/>
<path opacity="0.2" d="M78.7631 609.212C81.001 609.212 82.8153 607.403 82.8153 605.171C82.8153 602.94 81.001 601.13 78.7631 601.13C76.5252 601.13 74.7109 602.94 74.7109 605.171C74.7109 607.403 76.5252 609.212 78.7631 609.212Z" fill="#A3B9E6"/>
<path opacity="0.2" d="M81.4179 601.57C83.6558 601.57 85.47 599.761 85.47 597.529C85.47 595.297 83.6558 593.488 81.4179 593.488C79.1799 593.488 77.3657 595.297 77.3657 597.529C77.3657 599.761 79.1799 601.57 81.4179 601.57Z" fill="#A3B9E6"/>
</g>
<path opacity="0.4" d="M331.154 764.524C229.267 783.444 129.934 787.672 67.0038 788.045C66.7175 786.662 57.2698 740.828 78.4336 734.953C99.9167 728.936 109.265 764.008 110.366 761.516C111.468 759.023 119.682 666.587 165.753 675.339C208.301 683.42 188.128 737.215 184.792 745.396C188.249 737.512 211.494 687.538 242.689 694.533C276.538 702.132 248.019 746.977 250.21 746.439C252.401 745.901 330.945 679.237 331.154 764.524Z" fill="url(#paint16_linear)"/>
<g opacity="0.4">
<path opacity="0.4" d="M509.14 368.877C509.142 371.632 508.17 374.3 506.396 376.412C504.623 378.525 502.16 379.947 499.439 380.429C498.071 380.678 496.668 380.678 495.299 380.429C492.578 379.949 490.114 378.527 488.34 376.414C486.565 374.302 485.595 371.633 485.598 368.877C485.598 362.399 492.524 325.108 497.369 325.108C502.567 325.13 509.14 362.399 509.14 368.877Z" fill="url(#paint17_linear)"/>
<path d="M478.341 246.068C478.344 248.412 477.519 250.681 476.011 252.479C474.502 254.276 472.408 255.486 470.094 255.896C468.928 256.101 467.736 256.101 466.57 255.896C464.257 255.486 462.162 254.276 460.654 252.479C459.145 250.681 458.32 248.412 458.323 246.068C458.323 240.578 464.214 208.854 468.332 208.854C472.759 208.854 478.341 240.578 478.341 246.068Z" fill="url(#paint18_linear)"/>
<path opacity="0.4" d="M341.625 258.608C341.628 260.95 340.805 263.219 339.299 265.016C337.793 266.813 335.7 268.024 333.389 268.436C332.225 268.656 331.029 268.656 329.865 268.436C327.551 268.028 325.454 266.818 323.946 265.021C322.437 263.223 321.613 260.952 321.618 258.608C321.618 253.118 327.498 221.406 331.627 221.406C336.043 221.406 341.625 253.107 341.625 258.608Z" fill="url(#paint19_linear)"/>
<path d="M597.274 286.444C597.29 288.797 596.471 291.08 594.962 292.888C593.452 294.697 591.35 295.915 589.027 296.327C587.861 296.532 586.669 296.532 585.503 296.327C583.181 295.915 581.081 294.696 579.573 292.888C578.066 291.079 577.249 288.796 577.267 286.444C577.267 280.954 583.147 249.231 587.265 249.231C591.692 249.231 597.274 280.932 597.274 286.444Z" fill="url(#paint20_linear)"/>
<path opacity="0.5" d="M400.811 341.118C400.813 343.872 399.844 346.54 398.072 348.654C396.301 350.768 393.84 352.193 391.121 352.68C390.434 352.803 389.738 352.866 389.04 352.867C385.918 352.861 382.926 351.621 380.719 349.419C378.513 347.216 377.272 344.231 377.269 341.118C377.269 334.639 384.195 297.348 389.04 297.348C394.204 297.348 400.811 334.639 400.811 341.118Z" fill="url(#paint21_linear)"/>
<path d="M699.383 282.206C699.395 284.556 698.575 286.836 697.069 288.643C695.562 290.45 693.465 291.671 691.146 292.089C689.981 292.294 688.788 292.294 687.623 292.089C685.301 291.675 683.2 290.456 681.691 288.648C680.182 286.84 679.362 284.559 679.375 282.206C679.375 276.716 685.255 245.003 689.385 245.003C693.8 244.971 699.383 276.705 699.383 282.206Z" fill="url(#paint22_linear)"/>
</g>
<path opacity="0.4" d="M619.342 410.373C542.857 447.016 497.369 478.19 497.369 478.19C469.015 469.406 441.113 460.182 414.994 450.585C406.309 447.386 397.651 444.289 389.018 441.295C389.018 441.295 400.789 404.652 428.857 403.488C447.477 402.709 448.314 432.357 448.314 432.357C448.314 432.357 453.511 400.326 481.403 398.657C507.885 397.076 509.063 433.707 509.14 434.707C509.218 435.706 514.91 401.764 543.353 398.964C567.522 396.592 559.033 425.922 558.405 427.986C559.451 425.658 577.664 385.689 604.653 385.656C624.616 385.623 619.342 410.373 619.342 410.373Z" fill="url(#paint23_linear)"/>
<path opacity="0.2" d="M321.619 419.762C276.076 406.585 231.832 396.702 189.703 391.058C189.703 391.058 185.453 356.974 214.721 349.287C236.347 343.599 242.635 370.151 242.635 370.151C242.635 370.151 262.697 300.972 304.727 314.445C332.256 324.998 305.3 365.44 304.727 366.285C305.366 365.747 332.586 343.028 346.35 357.775C360.335 372.687 321.619 419.762 321.619 419.762Z" fill="url(#paint24_linear)"/>
<path opacity="0.4" d="M435.487 190.462C426.677 190.403 417.949 190.443 409.302 190.583C407.342 179.47 403.796 164.822 400.79 164.822C397.96 164.822 394.293 179.81 392.278 190.967L389.085 191.077C387.114 182.215 384.548 173.881 382.28 173.881C380.012 173.881 377.49 182.545 375.464 191.593C344.335 192.976 314.604 195.524 286.503 198.884C284.488 188.2 281.24 175.66 278.465 175.66C275.69 175.66 272.145 189.935 270.097 200.915C225.227 206.888 180.741 215.438 136.86 226.523C134.878 217.474 132.257 208.811 129.945 208.811C127.632 208.811 124.439 220.055 122.314 230.311C44.9812 251.064 0 272.071 0 272.071V55.2229C75.2513 49.4799 87 154 189.483 147.703C260.274 138.699 260.792 118.417 341.626 118.845C421.866 119.274 435.288 189.408 435.487 190.462Z" fill="url(#paint25_linear)"/>
</g>
</g>
<defs>
<linearGradient id="paint0_linear" x1="792.055" y1="47.3638" x2="792.356" y2="478.191" gradientUnits="userSpaceOnUse">
<stop stop-color="#A3B9E6" stop-opacity="0"/>
<stop offset="1" stop-color="#A3B9E5"/>
</linearGradient>
<linearGradient id="paint1_linear" x1="1040.98" y1="211.999" x2="1041.25" y2="553.529" gradientUnits="userSpaceOnUse">
<stop stop-color="#A3B9E6" stop-opacity="0"/>
<stop offset="1" stop-color="#A3B9E5"/>
</linearGradient>
<linearGradient id="paint2_linear" x1="396.033" y1="294.241" x2="396.524" y2="683.289" gradientUnits="userSpaceOnUse">
<stop stop-color="#A3B9E6" stop-opacity="0"/>
<stop offset="1" stop-color="#A3B9E5"/>
</linearGradient>
<linearGradient id="paint3_linear" x1="74" y1="561.543" x2="104.025" y2="563.694" gradientUnits="userSpaceOnUse">
<stop stop-color="#A3B9E6" stop-opacity="0.3"/>
<stop offset="1" stop-color="#A3B9E5"/>
</linearGradient>
<linearGradient id="paint4_linear" x1="370.329" y1="573.676" x2="389.993" y2="583.329" gradientUnits="userSpaceOnUse">
<stop stop-color="#A3B9E6" stop-opacity="0.14"/>
<stop offset="1" stop-color="#A3B9E5"/>
</linearGradient>
<linearGradient id="paint5_linear" x1="474.169" y1="610.666" x2="493.54" y2="622.151" gradientUnits="userSpaceOnUse">
<stop stop-color="#A3B9E6" stop-opacity="0.14"/>
<stop offset="1" stop-color="#A3B9E5"/>
</linearGradient>
<linearGradient id="paint6_linear" x1="335.5" y1="551.543" x2="364.112" y2="566.834" gradientUnits="userSpaceOnUse">
<stop stop-color="#A3B9E6" stop-opacity="0.14"/>
<stop offset="1" stop-color="#A3B9E5"/>
</linearGradient>
<linearGradient id="paint7_linear" x1="307.5" y1="578.043" x2="333.628" y2="597.875" gradientUnits="userSpaceOnUse">
<stop stop-color="#A3B9E6" stop-opacity="0.15"/>
<stop offset="1" stop-color="#A3B9E5"/>
</linearGradient>
<linearGradient id="paint8_linear" x1="283" y1="543.543" x2="283.272" y2="788.075" gradientUnits="userSpaceOnUse">
<stop stop-color="#A3B9E6" stop-opacity="0"/>
<stop offset="1" stop-color="#A3B9E5"/>
</linearGradient>
<linearGradient id="paint9_linear" x1="87.7456" y1="335.058" x2="109.882" y2="345.507" gradientUnits="userSpaceOnUse">
<stop stop-color="#A3B9E6" stop-opacity="0.14"/>
<stop offset="1" stop-color="#A3B9E5"/>
</linearGradient>
<linearGradient id="paint10_linear" x1="115.261" y1="318.724" x2="146.067" y2="334.626" gradientUnits="userSpaceOnUse">
<stop stop-color="#A3B9E6" stop-opacity="0.14"/>
<stop offset="1" stop-color="#A3B9E5"/>
</linearGradient>
<linearGradient id="paint11_linear" x1="205" y1="491.543" x2="218.147" y2="507.925" gradientUnits="userSpaceOnUse">
<stop stop-color="#A3B9E6" stop-opacity="0"/>
<stop offset="1" stop-color="#A3B9E5"/>
</linearGradient>
<linearGradient id="paint12_linear" x1="190" y1="487.043" x2="207.077" y2="495.895" gradientUnits="userSpaceOnUse">
<stop stop-color="#A3B9E6" stop-opacity="0"/>
<stop offset="1" stop-color="#A3B9E5"/>
</linearGradient>
<linearGradient id="paint13_linear" x1="133.5" y1="517.043" x2="215.712" y2="611.859" gradientUnits="userSpaceOnUse">
<stop stop-color="#A3B9E6" stop-opacity="0"/>
<stop offset="1" stop-color="#A3B9E5"/>
</linearGradient>
<linearGradient id="paint14_linear" x1="107.5" y1="531.543" x2="208.001" y2="545.032" gradientUnits="userSpaceOnUse">
<stop stop-color="#A3B9E6" stop-opacity="0"/>
<stop offset="1" stop-color="#A3B9E5"/>
</linearGradient>
<linearGradient id="paint15_linear" x1="168.247" y1="534.32" x2="168.402" y2="580.509" gradientUnits="userSpaceOnUse">
<stop stop-color="#A3B9E6" stop-opacity="0"/>
<stop offset="1" stop-color="#A3B9E5"/>
</linearGradient>
<linearGradient id="paint16_linear" x1="124.52" y1="712.408" x2="151.132" y2="786.647" gradientUnits="userSpaceOnUse">
<stop stop-color="#A3B9E6" stop-opacity="0.14"/>
<stop offset="1" stop-color="#A3B9E5"/>
</linearGradient>
<linearGradient id="paint17_linear" x1="490.886" y1="343.557" x2="507.364" y2="351.845" gradientUnits="userSpaceOnUse">
<stop stop-color="#A3B9E6" stop-opacity="0.14"/>
<stop offset="1" stop-color="#A3B9E5"/>
</linearGradient>
<linearGradient id="paint18_linear" x1="462.82" y1="224.54" x2="476.831" y2="231.589" gradientUnits="userSpaceOnUse">
<stop stop-color="#A3B9E6" stop-opacity="0.14"/>
<stop offset="1" stop-color="#A3B9E5"/>
</linearGradient>
<linearGradient id="paint19_linear" x1="326.112" y1="237.091" x2="340.118" y2="244.133" gradientUnits="userSpaceOnUse">
<stop stop-color="#A3B9E6" stop-opacity="0.14"/>
<stop offset="1" stop-color="#A3B9E5"/>
</linearGradient>
<linearGradient id="paint20_linear" x1="581.761" y1="264.935" x2="595.774" y2="271.972" gradientUnits="userSpaceOnUse">
<stop stop-color="#A3B9E6" stop-opacity="0.14"/>
<stop offset="1" stop-color="#A3B9E5"/>
</linearGradient>
<linearGradient id="paint21_linear" x1="382.557" y1="315.801" x2="399.036" y2="324.088" gradientUnits="userSpaceOnUse">
<stop stop-color="#A3B9E6" stop-opacity="0.14"/>
<stop offset="1" stop-color="#A3B9E5"/>
</linearGradient>
<linearGradient id="paint22_linear" x1="683.869" y1="260.704" x2="697.881" y2="267.742" gradientUnits="userSpaceOnUse">
<stop stop-color="#A3B9E6" stop-opacity="0.14"/>
<stop offset="1" stop-color="#A3B9E5"/>
</linearGradient>
<linearGradient id="paint23_linear" x1="440.897" y1="416.411" x2="461.647" y2="477.83" gradientUnits="userSpaceOnUse">
<stop stop-color="#A3B9E6" stop-opacity="0.14"/>
<stop offset="1" stop-color="#A3B9E5"/>
</linearGradient>
<linearGradient id="paint24_linear" x1="225.408" y1="348.286" x2="259.299" y2="408.323" gradientUnits="userSpaceOnUse">
<stop stop-color="#A3B9E6" stop-opacity="0.14"/>
<stop offset="1" stop-color="#A3B9E5"/>
</linearGradient>
<linearGradient id="paint25_linear" x1="13" y1="94" x2="1.70311" y2="202.244" gradientUnits="userSpaceOnUse">
<stop stop-color="#A3B9E6" stop-opacity="0.14"/>
<stop offset="1" stop-color="#A3B9E5"/>
</linearGradient>
<clipPath id="clip0">
<rect width="1586" height="900" fill="white"/>
</clipPath>
</defs>
</svg>