<svg xmlns="http://www.w3.org/2000/svg" xmlns:xlink="http://www.w3.org/1999/xlink" viewBox="0 0 375.84 592.54"><defs><style>.cls-1{opacity:0.4;fill:url(#Dégradé_sans_nom);}.cls-1,.cls-12,.cls-15,.cls-16,.cls-18,.cls-19,.cls-20,.cls-21,.cls-22,.cls-23,.cls-24,.cls-25,.cls-26,.cls-27,.cls-29,.cls-30,.cls-31,.cls-32,.cls-33,.cls-34,.cls-35,.cls-36,.cls-37,.cls-38,.cls-39,.cls-40,.cls-41,.cls-42,.cls-43,.cls-44,.cls-45,.cls-46,.cls-47,.cls-48,.cls-49,.cls-50,.cls-51,.cls-52,.cls-53,.cls-54,.cls-55,.cls-56,.cls-57,.cls-58,.cls-59,.cls-60,.cls-8{isolation:isolate;}.cls-2,.cls-8{fill:#001b3a;}.cls-3{fill:url(#Dégradé_sans_nom_4);}.cls-15,.cls-16,.cls-18,.cls-19,.cls-20,.cls-21,.cls-22,.cls-23,.cls-24,.cls-25,.cls-26,.cls-27,.cls-4{opacity:0.3;}.cls-12,.cls-5{fill:#2a3d42;}.cls-6{fill:#ffad97;}.cls-7{fill:url(#Dégradé_sans_nom_4-2);}.cls-8{opacity:0.15;}.cls-9{fill:#f6f6f6;}.cls-10{fill:#fbfbfc;}.cls-11{fill:url(#Dégradé_sans_nom_4-3);}.cls-12{opacity:0.1;}.cls-13{fill:url(#Dégradé_sans_nom_5);}.cls-14{fill:url(#Dégradé_sans_nom_6);}.cls-15{fill:url(#Dégradé_sans_nom_50);}.cls-16{fill:url(#Dégradé_sans_nom_50-2);}.cls-17,.cls-29,.cls-30,.cls-31,.cls-32,.cls-33,.cls-34,.cls-35,.cls-36,.cls-37,.cls-38,.cls-39,.cls-40,.cls-41,.cls-42,.cls-43,.cls-44,.cls-45,.cls-46,.cls-47,.cls-48,.cls-49,.cls-50,.cls-51,.cls-52,.cls-53,.cls-54,.cls-55,.cls-56,.cls-57,.cls-58,.cls-59,.cls-60{opacity:0.5;}.cls-18{fill:url(#Dégradé_sans_nom_50-3);}.cls-19{fill:url(#Dégradé_sans_nom_50-4);}.cls-20{fill:url(#Dégradé_sans_nom_50-5);}.cls-21{fill:url(#Dégradé_sans_nom_50-6);}.cls-22{fill:url(#Dégradé_sans_nom_50-7);}.cls-23{fill:url(#Dégradé_sans_nom_50-8);}.cls-24{fill:url(#Dégradé_sans_nom_50-9);}.cls-25{fill:url(#Dégradé_sans_nom_50-10);}.cls-26{fill:url(#Dégradé_sans_nom_50-11);}.cls-27{fill:url(#Dégradé_sans_nom_50-12);}.cls-28{opacity:0.25;}.cls-29{fill:url(#Dégradé_sans_nom_50-13);}.cls-30{fill:url(#Dégradé_sans_nom_50-14);}.cls-31{fill:url(#Dégradé_sans_nom_50-15);}.cls-32{fill:url(#Dégradé_sans_nom_50-16);}.cls-33{fill:url(#Dégradé_sans_nom_50-17);}.cls-34{fill:url(#Dégradé_sans_nom_50-18);}.cls-35{fill:url(#Dégradé_sans_nom_50-19);}.cls-36{fill:url(#Dégradé_sans_nom_50-20);}.cls-37{fill:url(#Dégradé_sans_nom_50-21);}.cls-38{fill:url(#Dégradé_sans_nom_50-22);}.cls-39{fill:url(#Dégradé_sans_nom_50-23);}.cls-40{fill:url(#Dégradé_sans_nom_50-24);}.cls-41{fill:url(#Dégradé_sans_nom_50-25);}.cls-42{fill:url(#Dégradé_sans_nom_50-26);}.cls-43{fill:url(#Dégradé_sans_nom_50-27);}.cls-44{fill:url(#Dégradé_sans_nom_50-28);}.cls-45{fill:url(#Dégradé_sans_nom_50-29);}.cls-46{fill:url(#Dégradé_sans_nom_50-30);}.cls-47{fill:url(#Dégradé_sans_nom_50-31);}.cls-48{fill:url(#Dégradé_sans_nom_50-32);}.cls-49{fill:url(#Dégradé_sans_nom_50-33);}.cls-50{fill:url(#Dégradé_sans_nom_50-34);}.cls-51{fill:url(#Dégradé_sans_nom_50-35);}.cls-52{fill:url(#Dégradé_sans_nom_50-36);}.cls-53{fill:url(#Dégradé_sans_nom_50-37);}.cls-54{fill:url(#Dégradé_sans_nom_50-38);}.cls-55{fill:url(#Dégradé_sans_nom_50-39);}.cls-56{fill:url(#Dégradé_sans_nom_50-40);}.cls-57{fill:url(#Dégradé_sans_nom_50-41);}.cls-58{fill:url(#Dégradé_sans_nom_50-42);}.cls-59{fill:url(#Dégradé_sans_nom_50-43);}.cls-60{fill:url(#Dégradé_sans_nom_50-44);}</style><linearGradient id="Dégradé_sans_nom" x1="34.3" y1="1010.56" x2="35.3" y2="1016.46" gradientTransform="translate(0 -430.17)" gradientUnits="userSpaceOnUse"><stop offset="0" stop-color="#a3b9e6" stop-opacity="0.5"/><stop offset="1" stop-color="#a3b9e5"/></linearGradient><linearGradient id="Dégradé_sans_nom_4" x1="26.58" y1="956.97" x2="18.43" y2="939.63" gradientTransform="translate(0 -430.17)" gradientUnits="userSpaceOnUse"><stop offset="0" stop-color="#4d51e7"/><stop offset="1" stop-color="#8d90ff"/></linearGradient><linearGradient id="Dégradé_sans_nom_4-2" x1="45.71" y1="985.81" x2="23.15" y2="959.54" xlink:href="#Dégradé_sans_nom_4"/><linearGradient id="Dégradé_sans_nom_4-3" x1="64.74" y1="936.76" x2="63.26" y2="934.31" xlink:href="#Dégradé_sans_nom_4"/><linearGradient id="Dégradé_sans_nom_5" x1="458.55" y1="531.04" x2="141.3" y2="981.14" gradientTransform="translate(0 -430.17)" gradientUnits="userSpaceOnUse"><stop offset="0" stop-color="#eea83c"/><stop offset="0.49" stop-color="#e66395"/><stop offset="1" stop-color="#6865f1"/></linearGradient><linearGradient id="Dégradé_sans_nom_6" x1="368.77" y1="463.97" x2="210.27" y2="973.96" gradientTransform="translate(0 -430.17)" gradientUnits="userSpaceOnUse"><stop offset="0" stop-color="#fff"/><stop offset="0.48" stop-color="#fff" stop-opacity="0.9"/><stop offset="1" stop-color="#fff" stop-opacity="0"/></linearGradient><linearGradient id="Dégradé_sans_nom_50" x1="192299.99" y1="897.79" x2="380605.99" y2="897.79" gradientTransform="translate(0 -430.17)" gradientUnits="userSpaceOnUse"><stop offset="0" stop-color="#fff"/><stop offset="1" stop-color="#fff" stop-opacity="0"/></linearGradient><linearGradient id="Dégradé_sans_nom_50-2" x1="191823.99" y1="719.62" x2="403830.99" y2="719.62" xlink:href="#Dégradé_sans_nom_50"/><linearGradient id="Dégradé_sans_nom_50-3" x1="1869.98" y1="-300.01" x2="6572.07" y2="-3297.87" xlink:href="#Dégradé_sans_nom_50"/><linearGradient id="Dégradé_sans_nom_50-4" x1="1642.75" y1="-134.57" x2="3632.92" y2="-1403.93" xlink:href="#Dégradé_sans_nom_50"/><linearGradient id="Dégradé_sans_nom_50-5" x1="1825.68" y1="-239.74" x2="6526.21" y2="-3240.93" xlink:href="#Dégradé_sans_nom_50"/><linearGradient id="Dégradé_sans_nom_50-6" x1="2150.07" y1="-418.88" x2="6852.13" y2="-3416.81" xlink:href="#Dégradé_sans_nom_50"/><linearGradient id="Dégradé_sans_nom_50-7" x1="1906.41" y1="-366.72" x2="6614.03" y2="-3372.29" xlink:href="#Dégradé_sans_nom_50"/><linearGradient id="Dégradé_sans_nom_50-8" x1="2250.96" y1="-432.05" x2="4241.63" y2="-1701.17" xlink:href="#Dégradé_sans_nom_50"/><linearGradient id="Dégradé_sans_nom_50-9" x1="1471.88" y1="117.98" x2="3462.5" y2="-1151.18" xlink:href="#Dégradé_sans_nom_50"/><linearGradient id="Dégradé_sans_nom_50-10" x1="1907.81" y1="-191.61" x2="6619.23" y2="-3195.39" xlink:href="#Dégradé_sans_nom_50"/><linearGradient id="Dégradé_sans_nom_50-11" x1="1732.61" y1="-119.75" x2="3709.85" y2="-1380.51" xlink:href="#Dégradé_sans_nom_50"/><linearGradient id="Dégradé_sans_nom_50-12" x1="1348.26" y1="116.41" x2="3338.45" y2="-1152.97" xlink:href="#Dégradé_sans_nom_50"/><linearGradient id="Dégradé_sans_nom_50-13" x1="675.3" y1="565.23" x2="3883.13" y2="-1803.94" xlink:href="#Dégradé_sans_nom_50"/><linearGradient id="Dégradé_sans_nom_50-14" x1="681.93" y1="478.06" x2="3889.73" y2="-1891.08" xlink:href="#Dégradé_sans_nom_50"/><linearGradient id="Dégradé_sans_nom_50-15" x1="622.64" y1="449.05" x2="3830.45" y2="-1920.09" xlink:href="#Dégradé_sans_nom_50"/><linearGradient id="Dégradé_sans_nom_50-16" x1="582.49" y1="496.08" x2="3790.31" y2="-1873.02" xlink:href="#Dégradé_sans_nom_50"/><linearGradient id="Dégradé_sans_nom_50-17" x1="595.07" y1="623.23" x2="3802.94" y2="-1745.94" xlink:href="#Dégradé_sans_nom_50"/><linearGradient id="Dégradé_sans_nom_50-18" x1="633.62" y1="662.77" x2="3841.45" y2="-1706.4" xlink:href="#Dégradé_sans_nom_50"/><linearGradient id="Dégradé_sans_nom_50-19" x1="565.6" y1="634" x2="3773.44" y2="-1735.17" xlink:href="#Dégradé_sans_nom_50"/><linearGradient id="Dégradé_sans_nom_50-20" x1="509.21" y1="554.46" x2="3717" y2="-1814.68" xlink:href="#Dégradé_sans_nom_50"/><linearGradient id="Dégradé_sans_nom_50-21" x1="574.13" y1="573.54" x2="3781.94" y2="-1795.6" xlink:href="#Dégradé_sans_nom_50"/><linearGradient id="Dégradé_sans_nom_50-22" x1="512.87" y1="623.16" x2="3720.63" y2="-1745.93" xlink:href="#Dégradé_sans_nom_50"/><linearGradient id="Dégradé_sans_nom_50-23" x1="481.93" y1="623.15" x2="3689.71" y2="-1746" xlink:href="#Dégradé_sans_nom_50"/><linearGradient id="Dégradé_sans_nom_50-24" x1="584.22" y1="579.03" x2="3792.05" y2="-1790.13" xlink:href="#Dégradé_sans_nom_50"/><linearGradient id="Dégradé_sans_nom_50-25" x1="540.23" y1="624.75" x2="3748.09" y2="-1744.38" xlink:href="#Dégradé_sans_nom_50"/><linearGradient id="Dégradé_sans_nom_50-26" x1="641.18" y1="531.25" x2="3849.06" y2="-1838.05" xlink:href="#Dégradé_sans_nom_50"/><linearGradient id="Dégradé_sans_nom_50-27" x1="633.61" y1="482.23" x2="3841.45" y2="-1886.94" xlink:href="#Dégradé_sans_nom_50"/><linearGradient id="Dégradé_sans_nom_50-28" x1="682.04" y1="455.29" x2="3889.85" y2="-1913.89" xlink:href="#Dégradé_sans_nom_50"/><linearGradient id="Dégradé_sans_nom_50-29" x1="657.1" y1="480.74" x2="3864.88" y2="-1888.34" xlink:href="#Dégradé_sans_nom_50"/><linearGradient id="Dégradé_sans_nom_50-30" x1="573.94" y1="502" x2="3781.77" y2="-1867.13" xlink:href="#Dégradé_sans_nom_50"/><linearGradient id="Dégradé_sans_nom_50-31" x1="533.98" y1="513.27" x2="3741.8" y2="-1855.84" xlink:href="#Dégradé_sans_nom_50"/><linearGradient id="Dégradé_sans_nom_50-32" x1="488.3" y1="571.7" x2="3696.2" y2="-1797.65" xlink:href="#Dégradé_sans_nom_50"/><linearGradient id="Dégradé_sans_nom_50-33" x1="465.36" y1="618.85" x2="3673.14" y2="-1750.48" xlink:href="#Dégradé_sans_nom_50"/><linearGradient id="Dégradé_sans_nom_50-34" x1="476.51" y1="604.27" x2="3684.35" y2="-1764.89" xlink:href="#Dégradé_sans_nom_50"/><linearGradient id="Dégradé_sans_nom_50-35" x1="518.36" y1="492.64" x2="3726.16" y2="-1876.46" xlink:href="#Dégradé_sans_nom_50"/><linearGradient id="Dégradé_sans_nom_50-36" x1="590.37" y1="449.06" x2="3798.16" y2="-1920.01" xlink:href="#Dégradé_sans_nom_50"/><linearGradient id="Dégradé_sans_nom_50-37" x1="505.94" y1="637.06" x2="3713.7" y2="-1732.03" xlink:href="#Dégradé_sans_nom_50"/><linearGradient id="Dégradé_sans_nom_50-38" x1="524.38" y1="556.46" x2="3732.26" y2="-1812.74" xlink:href="#Dégradé_sans_nom_50"/><linearGradient id="Dégradé_sans_nom_50-39" x1="556.45" y1="582.92" x2="3764.25" y2="-1786.05" xlink:href="#Dégradé_sans_nom_50"/><linearGradient id="Dégradé_sans_nom_50-40" x1="661.36" y1="584.46" x2="3869.18" y2="-1784.64" xlink:href="#Dégradé_sans_nom_50"/><linearGradient id="Dégradé_sans_nom_50-41" x1="659.84" y1="558.88" x2="3867.71" y2="-1810.29" xlink:href="#Dégradé_sans_nom_50"/><linearGradient id="Dégradé_sans_nom_50-42" x1="659.81" y1="635.54" x2="3867.65" y2="-1733.66" xlink:href="#Dégradé_sans_nom_50"/><linearGradient id="Dégradé_sans_nom_50-43" x1="646.27" y1="662.79" x2="3854.08" y2="-1706.28" xlink:href="#Dégradé_sans_nom_50"/><linearGradient id="Dégradé_sans_nom_50-44" x1="663.58" y1="693.83" x2="3871.36" y2="-1675.18" xlink:href="#Dégradé_sans_nom_50"/></defs><g id="Calque_2" data-name="Calque 2"><g id="Calque_1-2" data-name="Calque 1"><g id="Calque_2-2" data-name="Calque 2"><g id="Calque_1-2-2" data-name="Calque 1-2"><path class="cls-1" d="M34.84,587.68c11.25,0,20.37-1.83,20.37-4.1s-9.12-4.1-20.37-4.1-20.37,1.84-20.37,4.1S23.59,587.68,34.84,587.68Z"/><path class="cls-2" d="M2.31,514c0,1,.81,2.18,4.7,2.33s4.77.51,5.37,1.55S15,522,15,522s-3.37,3.83-1.48,6.51c.76,1.11,2.4,3.27,14.09,1.4s15.15-4.46,14.77-8.23c-.34-3.41-4.92-5.88-6.46-6.66a21.92,21.92,0,0,1-5.72-3.75c-2.35-2.13-6.46-5.5-9.49-5.37s-13,2.73-16.32,5.16C2.66,512.33,2.29,513,2.31,514Z"/><path class="cls-3" d="M42.34,521.74a22.92,22.92,0,0,0-11.67-1.45c-5.86.72-10.78,3.27-13.42,6.57a9.64,9.64,0,0,0-1.76,3.22,3.78,3.78,0,0,1-2-1.54C11.63,525.86,15,522,15,522s-2-3.08-2.59-4.13-1.47-1.4-5.37-1.55S2.34,515,2.33,514s.37-1.69,2-2.92c3.34-2.43,13.29-5,16.32-5.16s7.13,3.24,9.48,5.37A22,22,0,0,0,35.86,515c1.54.77,6.12,3.24,6.46,6.66Z"/><g class="cls-4"><path class="cls-5" d="M18.11,525.89c.23-.23.48-.47.74-.69C18.59,525.43,18.35,525.66,18.11,525.89Z"/></g><path class="cls-6" d="M12.51,542.44c-1-1.39-1.24-2.2-1-2.87h0l-.78.32-3.44,1.38H7.16c-1,.35-2.76,0-3.44.18-.52.13-1.11.5-1.11,1.11a1,1,0,0,0,0,.25l-.57.24c-.9.42-2.49,1.39-1.92,3.17s4.08,1.44,5.28,1a40,40,0,0,0,5.07-2.64c1.4-.84,2.48-1.53,2.48-1.53Z"/><path class="cls-6" d="M60.36,516.23l-.19.06-.29.08h-.16l-.2,0-.42.08a4.68,4.68,0,0,0-1.74.56c-.71,1.82-1.33,3.5-1.73,4.75h0l-2.39,1.26-1.85,1a19.76,19.76,0,0,0-.56-2c-.29-1-.37-1.7-.82-1.81l.48-.46c1-.93,3.22-3,4.12-3.86,1.16-1.08,1.68-2.11,3.57-2.22s3.94-.57,4,.24S62,515.68,60.36,516.23Z"/><path class="cls-6" d="M64,516.45c-.09,1.38-1.11,2.48-3.27,3-.25.06-.51.11-.79.15l-.47.07c.1-.56.23-1.13.38-1.71a14.8,14.8,0,0,1,.55-1.71h0a3.43,3.43,0,0,0,1.33-.74h0a1.6,1.6,0,0,0,.5-.82h0a2.09,2.09,0,0,1,.43.11A1.57,1.57,0,0,1,64,516.45Z"/><path class="cls-2" d="M30.83,566.71c-.28,2.85-2.91,6-5.38,6s-2.37-1.75-2.27-2.5a9.91,9.91,0,0,1,.47-1.61C25.64,568.05,28.25,567.23,30.83,566.71Z"/><path class="cls-2" d="M41.47,570.93c-2.17,0-4.45-2.28-5.32-4.78,2.6-.1,5.05,0,7-.3a16.31,16.31,0,0,1,.77,2.46C44,569.1,44.07,570.93,41.47,570.93Z"/><path class="cls-6" d="M36.2,520.22h0Z"/><path class="cls-6" d="M37.43,524.37a3.77,3.77,0,0,0-3.89-3.11,33.78,33.78,0,0,0-3.76.42c-.38.06-.77.12-1.18.2a19.71,19.71,0,0,0-6.27,2.5,2.55,2.55,0,0,0-1,1.13,2.57,2.57,0,0,0-.19,1.5l.78,4.31A9.79,9.79,0,0,1,26,526.44l.13-.07c.28.93,1.77,1.42,3.41,1.11s2.94-1.41,2.74-2.4h0l.45.06h.56l.31.08.19,0,.18.06a.6.6,0,0,1,.19.06l.23.07a9,9,0,0,1,1,.45l.27.15.1.06.24.15.1.06.21.15.26.2.18.14a8.53,8.53,0,0,1,.77.7c.08.09.16.17.23.26A2.73,2.73,0,0,1,38,528l.15.18Z"/><path class="cls-7" d="M54.8,546.59c-1.17,1.65-5.1,3.57-6.14,5.5s-.47,5.63-.06,8.5a5.8,5.8,0,0,1-3.79,6.34,12.87,12.87,0,0,1-3.21.5c-2.36.14-5.27.06-8.15.32-4.41.42-9.65,2.48-12,2.69-1.75.15-2.81-1-3.58-3.44a26,26,0,0,1-.72-2.89,15.27,15.27,0,0,1,.92-8.24,2.32,2.32,0,0,1-3.27-.38,2.25,2.25,0,0,1-.24-.36c-.13-.25-.37-.74-.66-1.43-1.16-2.62-3.36-7.77-4.78-9.77-1.8-2.55-1.18-3.16.61-4.54a16.59,16.59,0,0,0,1.49-1.29,48.44,48.44,0,0,0,5.07-6.27,9.11,9.11,0,0,1,2.7-2.36,5.37,5.37,0,0,1,2.61-.84l1.35-.1c1.35-.11,2.9-.3,4.68-.59a52.42,52.42,0,0,0,9.09-2.13l.29.08a6.35,6.35,0,0,0,5.42-.87c.7-.46,3.29-2.29,5.49-3.89,1.15-.84,2.22-1.61,2.82-2.08,1.79-1.37,1.72-.41,2.22,1.17,2.07,5.91,0,10.37.9,15.67.07.38.14.76.2,1.13C54.85,541.7,55.89,545.06,54.8,546.59Z"/><path class="cls-8" d="M6.62,543.82a6.14,6.14,0,0,1-2.6,1c-1.23.06-1.76-.43-2-1.77.29-.14.51-.22.57-.25h0c.06.55.46,1.11,1.56,1.11a15.4,15.4,0,0,0,2.15-.09Z"/><path class="cls-9" d="M41.31,553.91c-3.49,9.73-10,9.73-11.42,8.62s.08-4.19,0-10.51-3.64-7.59-6.65-15.57c-2.41-6.39.25-10.45,3.3-12.23.24.81,1.53,1.24,3,1s2.56-1.22,2.39-2.09h0c3.9.37,5.82,3.5,7,6C40.45,532.18,44.81,544.18,41.31,553.91Z"/><path class="cls-8" d="M62.67,514.77c-.41.5-2,2.63-2,4.66-.25.06-.51.11-.79.15l-.47.07c.1-.56.23-1.14.38-1.71a14.8,14.8,0,0,1,.55-1.71h0a3.43,3.43,0,0,0,1.33-.74h0a1.6,1.6,0,0,0,.5-.82h0A4.41,4.41,0,0,1,62.67,514.77Z"/><path class="cls-2" d="M60.37,516.23A23.35,23.35,0,0,0,59,524.09a.48.48,0,0,1-.06.26.55.55,0,0,1-.17.2.51.51,0,0,1-.24.1.62.62,0,0,1-.27,0l-2.68-.79a.61.61,0,0,1-.33-.28.64.64,0,0,1,0-.43c.15-.5.37-1.19.37-1.25h0c.4-1.25,1-2.93,1.74-4.75a5.82,5.82,0,0,1,2.15-.64A7.92,7.92,0,0,0,60.37,516.23Z"/><path class="cls-2" d="M66.42,504.15c-.94,1.73-3.28,6.07-4.89,9.44a20.58,20.58,0,0,0-2.83.17c1.82-4.43,3.77-8.87,4.29-10.06a.45.45,0,0,1,.19-.22.47.47,0,0,1,.28-.09H66a.55.55,0,0,1,.25.07.55.55,0,0,1,.19.18.45.45,0,0,1,.07.25.58.58,0,0,1-.06.26Z"/><g class="cls-4"><g class="cls-4"><path class="cls-10" d="M58.93,516.57c-.91,2.34-1.7,4.49-2.22,6.12v.06s-.2.67-.37,1.29l-.68-.2a.61.61,0,0,1-.33-.28.64.64,0,0,1,0-.43c.15-.51.37-1.2.37-1.25h0c.4-1.26,1-2.93,1.74-4.76A4,4,0,0,1,58.93,516.57Z"/></g><g class="cls-4"><path class="cls-10" d="M65,503.39a.5.5,0,0,0-.31.1.59.59,0,0,0-.22.25c-.53,1.2-2.36,5.39-4.22,9.87-.49,0-1,.11-1.59.15,1.82-4.43,3.77-8.87,4.29-10.06a.45.45,0,0,1,.19-.22.47.47,0,0,1,.28-.09Z"/></g></g><path class="cls-11" d="M61.6,507a21,21,0,0,1,3.17.24c.68-1.29,1.28-2.39,1.65-3.08a.54.54,0,0,0,.06-.25.57.57,0,0,0-.08-.25.49.49,0,0,0-.18-.17.43.43,0,0,0-.25-.07H63.46a.54.54,0,0,0-.28.08.45.45,0,0,0-.19.22c-.24.54-.74,1.73-1.43,3.29Z"/><path class="cls-12" d="M41.31,553.91c-3.49,9.73-10,9.73-11.42,8.62-.58-.45-.67-1.23-.59-2.42,2.51.25,7.21-1.33,10-9.07,3.48-9.73-.86-21.73-2.38-24.83-.14-.27-.28-.56-.44-.85a14.34,14.34,0,0,1,2.46,3.74C40.45,532.18,44.81,544.18,41.31,553.91Z"/><path class="cls-8" d="M19.45,519.72c-1.6,2.08-5.06,5.85-2.22,7.14a9.64,9.64,0,0,0-1.76,3.22,3.78,3.78,0,0,1-2-1.54C11.62,525.86,15,522,15,522a27.83,27.83,0,0,0,3.67-4C19.65,516.4,21.08,517.64,19.45,519.72Z"/><path class="cls-8" d="M18.07,555.87a15.76,15.76,0,0,0-1.14,5.79,9.23,9.23,0,0,1,1.42-1.87,16.47,16.47,0,0,1,.82-2c2.22-4.65,2-9.69,2.09-11.74s-1.14-2-1.73-.57-1.61,6-2.56,7.94-3,.37-3.07.3c.3.68.53,1.18.66,1.43a2.34,2.34,0,0,0,3.15,1A2.25,2.25,0,0,0,18.07,555.87Z"/><path class="cls-13" d="M156.26,302c9.79-16.16,9.4-54.54,9.4-54.54,0-18-.74-33.53,9.1-47.63,14.38-20.59,39.81-16.29,39.81-49.28s11.78-74.34,39.28-115.46C291.23-20.79,415.65,8.68,363.08,8.68V592.54c-27.13-24.42-57.25-19.29-84.38-28.68s-27.87-32.31-50.86-40.58-49.73,12.78-74.6,6.77c-21.32-5.16-37.67-30.81-56.13-37.68-14.82-5.51-24,2.86-27.12,6.37a1.89,1.89,0,0,1-1.27.64,2,2,0,0,1-1.37-.42,2,2,0,0,1-.69-1.29,1.85,1.85,0,0,1,.07-.74,1.83,1.83,0,0,1,.35-.66c17-20.93,5.28-41.83,10.06-62C82,413.61,113.3,414,120.46,398.21s-3.38-34.57-.37-54.1S146.47,318.16,156.26,302Z"/><path class="cls-14" d="M156.2,301.08c9.79-16.15,9.4-54.54,9.4-54.54,0-18-.74-33.53,9.1-47.62,14.38-20.59,39.81-16.29,39.81-49.28s11.78-74.35,39.28-115.46C291.17-21.7,415.59,7.76,363,7.76V591.63c-27.13-24.42-57.25-19.3-84.38-28.69s-27.88-32.31-50.86-40.57-49.73,12.77-74.6,6.76C131.83,524,115.48,498.32,97,491.45c-14.82-5.51-24,2.86-27.12,6.38a1.84,1.84,0,0,1-2.61.17,1.87,1.87,0,0,1-.48-.57,2,2,0,0,1-.21-.72,1.85,1.85,0,0,1,.07-.74,1.91,1.91,0,0,1,.35-.66c17-20.92,5.28-41.83,10.06-62C82,412.64,113.24,413,120.4,397.24S117,362.7,120,343.16,146.4,317.24,156.2,301.08Z"/><path class="cls-15" d="M107.31,498a46.16,46.16,0,0,0-10.2-5.58,25.21,25.21,0,0,0-14.32-1.32c6.11-14.55,26.88-7.29,66.84-8.18s32.16-33.16,57.24-43.3c34.9-14.12,55.62,11.67,88.41,14.1s68.6-45.22,68.6-45.8V519.08s-31,12.44-54.88,6.74c-34.22-8.18-30.72-36.11-64.13-39.26-43.73-4.13-31.09,18.77-79.33,27.1C145.65,517.1,133.66,496.46,107.31,498Z"/><path class="cls-16" d="M347,247.46s-24,34.67-56.11,54.85-49.51,23.43-63.61,46.49-.79,43.1-18.43,59.82c-22,20.91-78.79,33.52-95,46.85S93.13,462.8,67.35,499a2,2,0,0,1-.47-.58,1.78,1.78,0,0,1-.22-.71,1.85,1.85,0,0,1,.07-.74,1.83,1.83,0,0,1,.35-.66,40.7,40.7,0,0,0,9-20.4h0c.27-1,4.85-17.29,28-33.7,23.85-17,61.44-16.64,67.91-42.21s-15.53-51.18,7.59-84.31S284,256.4,323.49,79.9Z"/><g class="cls-17"><path class="cls-18" d="M140.14,375a.34.34,0,0,1,0,.2.39.39,0,0,1-.11.17.52.52,0,0,1-.37.16,2.64,2.64,0,0,0-2.65,2.63h0a.52.52,0,0,1-.16.37.51.51,0,0,1-.73,0,.47.47,0,0,1-.16-.37,2.49,2.49,0,0,0-.21-1,2.58,2.58,0,0,0-.57-.86,2.75,2.75,0,0,0-.86-.57,2.66,2.66,0,0,0-1-.2.52.52,0,0,1-.37-.16.66.66,0,0,1-.12-.17.67.67,0,0,1,0-.2.52.52,0,0,1,.16-.37.56.56,0,0,1,.37-.15,2.68,2.68,0,0,0,1.87-.77,2.63,2.63,0,0,0,.78-1.87.51.51,0,0,1,.53-.53.51.51,0,0,1,.37.15.55.55,0,0,1,.16.38,2.63,2.63,0,0,0,.77,1.87,2.68,2.68,0,0,0,1.87.77.56.56,0,0,1,.37.15.51.51,0,0,1,.15.37Z"/><path class="cls-19" d="M145.33,391.85a.32.32,0,0,1-.11.24.38.38,0,0,1-.23.11,1.72,1.72,0,0,0-1.72,1.7h0a.47.47,0,0,1-.11.25.34.34,0,0,1-.58-.25,1.72,1.72,0,0,0-1.72-1.71h-.13a.25.25,0,0,1-.12-.08.41.41,0,0,1-.07-.11.29.29,0,0,1,0-.13.29.29,0,0,1,0-.13.41.41,0,0,1,.07-.11.39.39,0,0,1,.25-.1,1.74,1.74,0,0,0,1.22-.5,1.72,1.72,0,0,0,.5-1.22.33.33,0,0,1,.06-.19.44.44,0,0,1,.15-.12.34.34,0,0,1,.2,0,.26.26,0,0,1,.17.09.22.22,0,0,1,.08.24,1.72,1.72,0,0,0,.5,1.22,1.74,1.74,0,0,0,1.22.5.35.35,0,0,1,.24.1.31.31,0,0,1,.1.24Z"/><path class="cls-20" d="M96.43,436.54a.51.51,0,0,1-.15.37.55.55,0,0,1-.38.16,2.68,2.68,0,0,0-1.87.77,2.64,2.64,0,0,0-.78,1.87.51.51,0,0,1-.15.37.53.53,0,0,1-.74,0,.52.52,0,0,1-.16-.37,2.63,2.63,0,0,0-2.62-2.64h0a.57.57,0,0,1-.37-.16.52.52,0,0,1,.35-.89h0a2.65,2.65,0,0,0,2.65-2.65.48.48,0,0,1,.16-.36.52.52,0,0,1,.72,0l0,0a.48.48,0,0,1,.15.36A2.66,2.66,0,0,0,95.9,436h.2a.42.42,0,0,1,.18.11.45.45,0,0,1,.11.17.67.67,0,0,1,0,.2Z"/><path class="cls-21" d="M236.66,373.22a.67.67,0,0,1,0,.2.45.45,0,0,1-.11.17.56.56,0,0,1-.37.15,2.66,2.66,0,0,0-1,.2,2.7,2.7,0,0,0-1.43,1.43,2.66,2.66,0,0,0-.2,1,.52.52,0,0,1-.16.37.53.53,0,0,1-.74,0,.51.51,0,0,1-.15-.37,2.49,2.49,0,0,0-.21-1,2.45,2.45,0,0,0-.57-.85,2.51,2.51,0,0,0-.86-.58,2.66,2.66,0,0,0-1-.2.51.51,0,0,1-.37-.15.66.66,0,0,1-.12-.17.52.52,0,0,1,.12-.57.57.57,0,0,1,.37-.16,2.68,2.68,0,0,0,1.87-.77,2.63,2.63,0,0,0,.78-1.87.51.51,0,0,1,.15-.37.53.53,0,0,1,.91.37,2.63,2.63,0,0,0,.77,1.87,2.68,2.68,0,0,0,1.87.77.57.57,0,0,1,.37.16.51.51,0,0,1,.15.37Z"/><path class="cls-22" d="M174.58,311.17a.51.51,0,0,1-.15.37.55.55,0,0,1-.38.16,2.68,2.68,0,0,0-1.87.77,2.64,2.64,0,0,0-.78,1.87.51.51,0,0,1-.15.37.53.53,0,0,1-.91-.37,2.63,2.63,0,0,0-2.62-2.64h0a.55.55,0,0,1-.38-.16.53.53,0,0,1,0-.74.57.57,0,0,1,.37-.16,2.65,2.65,0,0,0,2.65-2.64.67.67,0,0,1,0-.2.66.66,0,0,1,.12-.17.51.51,0,0,1,.37-.15.56.56,0,0,1,.37.15.62.62,0,0,1,.11.17.67.67,0,0,1,0,.2,2.65,2.65,0,0,0,2.65,2.64.57.57,0,0,1,.37.16.66.66,0,0,1,.12.17.46.46,0,0,1,.05.2Z"/><path class="cls-23" d="M288.25,390.61a.32.32,0,0,1-.11.24.31.31,0,0,1-.24.1,1.72,1.72,0,0,0-1.72,1.72.35.35,0,0,1-.69,0,1.72,1.72,0,0,0-1.72-1.72.34.34,0,0,1-.34-.34.29.29,0,0,1,0-.13.41.41,0,0,1,.07-.11l.12-.08h.13a1.72,1.72,0,0,0,1.72-1.72h0a.34.34,0,0,1,.35-.34.31.31,0,0,1,.24.1.35.35,0,0,1,.1.24,1.72,1.72,0,0,0,1.72,1.72H288a.25.25,0,0,1,.12.08.41.41,0,0,1,.07.11.29.29,0,0,1,0,.13Z"/><path class="cls-24" d="M166.25,521.78a.29.29,0,0,1,0,.13.41.41,0,0,1-.07.11l-.12.08h-.13a1.74,1.74,0,0,0-1.22.5,1.72,1.72,0,0,0-.5,1.22.34.34,0,0,1-.34.34.39.39,0,0,1-.25-.1.35.35,0,0,1-.1-.24,1.71,1.71,0,0,0-1.72-1.72.39.39,0,0,1-.25-.1.34.34,0,0,1,0-.48.25.25,0,0,1,.12-.08.29.29,0,0,1,.13,0,1.71,1.71,0,0,0,1.72-1.71.33.33,0,0,1,0-.14.26.26,0,0,1,.07-.11.41.41,0,0,1,.11-.07h.14a.35.35,0,0,1,.24.1.39.39,0,0,1,.1.25,1.72,1.72,0,0,0,.5,1.21,1.74,1.74,0,0,0,1.22.5.35.35,0,0,1,.24.1.47.47,0,0,1,.11.25Z"/><path class="cls-25" d="M174.58,485.61a.51.51,0,0,1-.15.37.55.55,0,0,1-.38.16,2.68,2.68,0,0,0-1.87.77,2.63,2.63,0,0,0-.78,1.87.51.51,0,0,1-.15.37.53.53,0,0,1-.91-.37,2.63,2.63,0,0,0-2.62-2.64h0a.55.55,0,0,1-.38-.16.53.53,0,0,1,0-.74.55.55,0,0,1,.38-.16,2.63,2.63,0,0,0,2.64-2.62v0a.53.53,0,0,1,.91-.37.51.51,0,0,1,.15.37,2.63,2.63,0,0,0,.78,1.87,2.68,2.68,0,0,0,1.87.77.55.55,0,0,1,.38.16.51.51,0,0,1,.15.37Z"/><path class="cls-26" d="M190.06,435.24a.33.33,0,0,1,0,.14.44.44,0,0,1-.08.11.41.41,0,0,1-.11.07h-.13a1.65,1.65,0,0,0-.66.13,1.61,1.61,0,0,0-.56.37,1.79,1.79,0,0,0-.38.56,1.85,1.85,0,0,0-.13.66.27.27,0,0,1-.11.22.38.38,0,0,1-.23.08.4.4,0,0,1-.23-.08.39.39,0,0,1-.11-.22,1.85,1.85,0,0,0-.13-.66,1.79,1.79,0,0,0-.38-.56,1.72,1.72,0,0,0-1.22-.5.39.39,0,0,1-.22-.11.41.41,0,0,1-.08-.24.4.4,0,0,1,.08-.23.39.39,0,0,1,.22-.11,1.72,1.72,0,0,0,1.22-.5,1.79,1.79,0,0,0,.38-.56,1.85,1.85,0,0,0,.13-.66V433a.44.44,0,0,1,.08-.11.26.26,0,0,1,.11-.07h.26a.26.26,0,0,1,.11.07.22.22,0,0,1,.08.24,1.85,1.85,0,0,0,.13.66,1.79,1.79,0,0,0,.38.56,1.61,1.61,0,0,0,.56.37,1.65,1.65,0,0,0,.66.13h.13a.41.41,0,0,1,.11.07.44.44,0,0,1,.08.11.29.29,0,0,1,0,.13Z"/><path class="cls-27" d="M115.72,473.87a.29.29,0,0,1,0,.13.24.24,0,0,1-.07.12.35.35,0,0,1-.24.1,1.65,1.65,0,0,0-.66.13,1.61,1.61,0,0,0-.56.37,1.72,1.72,0,0,0-.37.55,1.66,1.66,0,0,0-.14.66.31.31,0,0,1,0,.19.4.4,0,0,1-.16.13.34.34,0,0,1-.2,0,.56.56,0,0,1-.17-.09.33.33,0,0,1-.1-.25,1.85,1.85,0,0,0-.13-.66,1.87,1.87,0,0,0-.38-.55,1.61,1.61,0,0,0-.56-.37,1.65,1.65,0,0,0-.66-.13.34.34,0,0,1-.34-.34h0a.34.34,0,0,1,.34-.34,1.85,1.85,0,0,0,.66-.13,1.76,1.76,0,0,0,.56-.37,1.79,1.79,0,0,0,.38-.56,1.85,1.85,0,0,0,.13-.66v-.13a.44.44,0,0,1,.08-.11.34.34,0,0,1,.48,0,.35.35,0,0,1,.1.24,1.66,1.66,0,0,0,.14.66,1.61,1.61,0,0,0,.37.56,1.76,1.76,0,0,0,.56.37,1.85,1.85,0,0,0,.66.13.31.31,0,0,1,.24.1.26.26,0,0,1,.07.11.29.29,0,0,1,0,.13Z"/></g><g class="cls-28"><path class="cls-29" d="M295.16,417.35a1.53,1.53,0,1,0-1.53-1.53h0a1.52,1.52,0,0,0,1.52,1.52Z"/><path class="cls-30" d="M301.77,330.18a1.53,1.53,0,1,0-1.52-1.54v0A1.52,1.52,0,0,0,301.77,330.18Z"/><path class="cls-31" d="M242.49,301.17a1.52,1.52,0,1,0-1.53-1.52A1.52,1.52,0,0,0,242.49,301.17Z"/><path class="cls-32" d="M202.34,348.19a1.53,1.53,0,1,0-1.53-1.53h0a1.52,1.52,0,0,0,1.51,1.53Z"/><path class="cls-33" d="M214.91,475.35a1.53,1.53,0,1,0-1.52-1.54h0a1.52,1.52,0,0,0,1.51,1.53Z"/><path class="cls-34" d="M253.46,514.9a1.53,1.53,0,1,0-1.53-1.53,1.52,1.52,0,0,0,1.53,1.53Z"/><path class="cls-35" d="M185.46,486.12a1.53,1.53,0,1,0-1.53-1.53h0A1.53,1.53,0,0,0,185.46,486.12Z"/><path class="cls-36" d="M129.08,406.56a1.52,1.52,0,1,0-1.52-1.52h0A1.52,1.52,0,0,0,129.08,406.56Z"/><path class="cls-37" d="M194,425.65a1.52,1.52,0,1,0-1.53-1.52A1.52,1.52,0,0,0,194,425.65Z"/><path class="cls-38" d="M132.73,475.27a1.53,1.53,0,1,0-1.53-1.53h0A1.53,1.53,0,0,0,132.73,475.27Z"/><path class="cls-39" d="M101.78,475.27a1.53,1.53,0,1,0-1.53-1.53h0A1.55,1.55,0,0,0,101.78,475.27Z"/><path class="cls-40" d="M204.1,431.12a1.53,1.53,0,1,0-1.52-1.54h0A1.53,1.53,0,0,0,204.1,431.12Z"/><path class="cls-41" d="M160.06,476.87a1.53,1.53,0,1,0-1.52-1.54v0A1.52,1.52,0,0,0,160.06,476.87Z"/><path class="cls-42" d="M261,383.41a1.53,1.53,0,1,0-1.53-1.53h0A1.53,1.53,0,0,0,261,383.41Z"/><path class="cls-43" d="M253.46,334.35a1.52,1.52,0,1,0-1.53-1.52,1.52,1.52,0,0,0,1.53,1.52Z"/><path class="cls-44" d="M301.89,307.41a1.53,1.53,0,1,0-1.53-1.53h0A1.53,1.53,0,0,0,301.89,307.41Z"/><path class="cls-45" d="M277,332.83a1.53,1.53,0,1,0-1.53-1.53h0A1.53,1.53,0,0,0,277,332.83Z"/><path class="cls-46" d="M193.79,354.11a1.53,1.53,0,1,0-1.52-1.54h0a1.52,1.52,0,0,0,1.51,1.53Z"/><path class="cls-47" d="M153.85,365.37a1.52,1.52,0,1,0-1.53-1.52A1.52,1.52,0,0,0,153.85,365.37Z"/><path class="cls-48" d="M108.13,423.85a1.53,1.53,0,1,0-1.53-1.53h0A1.53,1.53,0,0,0,108.13,423.85Z"/><path class="cls-49" d="M85.2,471a1.53,1.53,0,1,0-1.53-1.53h0A1.53,1.53,0,0,0,85.2,471Z"/><path class="cls-50" d="M96.35,456.4a1.53,1.53,0,1,0-1.53-1.53h0A1.55,1.55,0,0,0,96.35,456.4Z"/><path class="cls-51" d="M138.21,344.76a1.53,1.53,0,1,0-1.53-1.53h0A1.53,1.53,0,0,0,138.21,344.76Z"/><path class="cls-52" d="M210.22,301.17a1.52,1.52,0,1,0-1.53-1.52A1.52,1.52,0,0,0,210.22,301.17Z"/><path class="cls-53" d="M125.8,489.17a1.53,1.53,0,1,0-1.53-1.53h0a1.52,1.52,0,0,0,1.51,1.53Z"/><path class="cls-54" d="M144.22,408.59a1.53,1.53,0,1,0-1.53-1.53h0A1.53,1.53,0,0,0,144.22,408.59Z"/><path class="cls-55" d="M176.32,435a1.52,1.52,0,1,0-1.53-1.52A1.52,1.52,0,0,0,176.32,435Z"/><path class="cls-56" d="M281.22,436.57a1.53,1.53,0,1,0-1.53-1.57,1.53,1.53,0,0,0,1.53,1.57Z"/><path class="cls-57" d="M279.69,411a1.52,1.52,0,1,0-1.53-1.52A1.52,1.52,0,0,0,279.69,411Z"/><path class="cls-58" d="M279.69,487.64a1.52,1.52,0,1,0-1.53-1.52A1.52,1.52,0,0,0,279.69,487.64Z"/><path class="cls-59" d="M266.12,514.9a1.53,1.53,0,1,0-1.53-1.53,1.52,1.52,0,0,0,1.53,1.53Z"/><path class="cls-60" d="M283.42,545.93a1.52,1.52,0,1,0-1.52-1.52,1.52,1.52,0,0,0,1.52,1.52Z"/></g></g></g></g></g></svg>