<svg width="1088" height="888" viewBox="0 0 1088 888" fill="none" xmlns="http://www.w3.org/2000/svg">
<g clip-path="url(#clip0)">
<path opacity="0.4" d="M133.484 873.065C166.896 873.065 193.981 867.613 193.981 860.888C193.981 854.162 166.896 848.71 133.484 848.71C100.073 848.71 72.9883 854.162 72.9883 860.888C72.9883 867.613 100.073 873.065 133.484 873.065Z" fill="url(#paint0_linear)"/>
<path d="M36.8811 654.329C36.8811 657.447 39.2816 660.807 50.8545 661.247C62.4274 661.686 65.0041 662.762 66.7769 665.87C68.5497 668.977 74.4849 678.113 74.4849 678.113C74.4849 678.113 64.4866 689.478 70.0803 697.461C72.3487 700.755 77.2267 707.168 111.923 701.601C146.62 696.034 156.905 688.358 155.781 677.169C154.768 667.055 141.18 659.698 136.611 657.403C130.395 654.595 124.659 650.835 119.609 646.258C112.628 639.933 100.439 629.941 91.4312 630.314C82.424 630.687 52.8916 638.418 42.9814 645.632C37.9382 649.322 36.8371 651.232 36.8811 654.329Z" fill="#001B3A"/>
<path d="M155.738 677.267C146.235 673.128 134.057 671.393 121.097 672.963C103.699 675.082 89.0977 682.67 81.2466 692.454C78.9133 695.282 77.1419 698.528 76.0273 702.018C73.5785 701.226 71.4785 699.617 70.0812 697.461C64.5755 689.478 74.4857 678.113 74.4857 678.113C74.4857 678.113 68.5286 668.966 66.7778 665.858C65.027 662.751 62.4283 661.697 50.8444 661.246C39.2605 660.796 36.9261 657.447 36.8821 654.329C36.838 651.21 37.9832 649.321 42.8832 645.654C52.7934 638.439 82.3588 630.72 91.333 630.336C100.307 629.951 112.519 639.955 119.511 646.28C124.558 650.86 130.295 654.621 136.512 657.425C141.082 659.698 154.67 667.055 155.683 677.191C155.727 677.202 155.738 677.234 155.738 677.267Z" fill="url(#paint1_linear)"/>
<g style="mix-blend-mode:overlay" opacity="0.3">
<path d="M83.8115 689.588C84.4942 688.885 85.232 688.194 86.0138 687.535C85.232 688.205 84.5052 688.885 83.8115 689.588Z" fill="#2A3D42"/>
</g>
<path d="M67.1733 738.727C64.2663 734.609 63.4955 732.204 64.2553 730.195H64.1782L61.8548 731.139C58.2431 732.599 51.7905 735.202 51.6473 735.246L51.262 735.378C48.1568 736.399 43.0585 735.378 41.0545 735.894C39.4909 736.289 37.7511 737.387 37.7511 739.188C37.7294 739.436 37.7294 739.686 37.7511 739.935C37.597 740.023 36.9363 740.253 36.0664 740.659C33.3796 741.911 28.6778 744.777 30.3515 750.059C32.1353 755.736 42.4639 754.331 46.0426 752.969C51.2434 750.733 56.2709 748.116 61.084 745.14C65.2573 742.647 68.4396 740.605 68.4396 740.605C67.9661 739.913 67.5587 739.276 67.1733 738.727Z" fill="#FFAD97"/>
<path d="M209.275 660.884L208.702 661.06L207.821 661.302L207.359 661.411L206.764 661.543L205.531 661.796C202.426 662.444 201.126 662.894 200.366 663.443C198.23 668.856 196.402 673.831 195.202 677.564V677.674L188.122 681.418L182.616 684.306C182.181 682.329 181.629 680.378 180.964 678.465C180.095 675.588 179.863 673.413 178.531 673.095L179.962 671.744C182.903 668.977 189.52 662.729 192.185 660.269C195.643 657.063 197.173 654.01 202.8 653.681C208.427 653.352 214.472 651.99 214.802 654.395C215.089 656.492 214.219 659.248 209.275 660.884Z" fill="#FFAD97"/>
<path d="M219.957 661.543C219.67 665.65 216.653 668.911 210.233 670.405C209.496 670.58 208.725 670.734 207.888 670.855L206.511 671.053C206.809 669.383 207.172 667.681 207.613 665.969C208.061 664.247 208.609 662.554 209.253 660.895V660.895C210.723 660.468 212.078 659.718 213.218 658.699V658.699C213.939 658.045 214.452 657.193 214.693 656.251H214.847C214.968 656.251 215.475 656.382 216.114 656.58C217.721 657.063 220.188 658.293 219.957 661.543Z" fill="#FFAD97"/>
<path d="M121.58 810.783C120.744 819.249 112.948 828.473 105.603 828.473C98.2584 828.473 98.5667 823.29 98.864 821.05C99.1863 819.422 99.6468 817.824 100.24 816.273C106.154 814.758 113.917 812.32 121.58 810.783Z" fill="#001B3A"/>
<path d="M153.182 823.323C146.73 823.323 139.969 816.548 137.37 809.114C145.078 808.828 152.368 808.971 158.005 808.246C158.956 810.609 159.718 813.044 160.285 815.526C160.582 817.887 160.89 823.323 153.182 823.323Z" fill="#001B3A"/>
<path d="M137.513 672.733L136.181 672.612H136.534C136.864 672.656 137.194 672.689 137.513 672.733Z" fill="#FFAD97"/>
<path d="M141.171 685.075C140.704 682.399 139.275 679.984 137.15 678.284C135.026 676.584 132.352 675.715 129.631 675.841C125.884 676.035 122.153 676.446 118.454 677.07C117.331 677.246 116.164 677.444 114.953 677.663C107.63 678.981 100.638 682.539 96.3214 685.108C95.0056 685.896 93.9623 687.066 93.3307 688.461C92.6991 689.856 92.5094 691.41 92.7868 692.916L95.0992 705.697C97.3937 699.654 101.66 694.557 107.212 691.225L107.597 690.994C108.412 693.761 112.838 695.233 117.716 694.288C122.793 693.322 126.437 690.116 125.865 687.162C125.87 687.14 125.87 687.118 125.865 687.096C126.316 687.096 126.746 687.206 127.175 687.261C127.375 687.287 127.574 687.323 127.77 687.37L128.53 687.502L128.86 687.568L129.763 687.788L130.324 687.941C130.512 687.996 130.699 688.051 130.864 688.117C131.062 688.164 131.257 688.223 131.448 688.293L132.108 688.523C133.104 688.893 134.072 689.334 135.004 689.841C135.268 689.984 135.533 690.127 135.797 690.291C135.904 690.347 136.007 690.409 136.105 690.478L136.799 690.906L137.096 691.104C137.317 691.258 137.537 691.4 137.735 691.554L138.506 692.125C138.689 692.258 138.866 692.401 139.034 692.553C139.833 693.205 140.594 693.902 141.314 694.64C141.545 694.881 141.787 695.123 142.018 695.386C142.25 695.65 142.481 695.88 142.701 696.144L143.142 696.671L141.171 685.075Z" fill="#FFAD97"/>
<path d="M192.758 751.048C189.278 755.934 177.617 761.655 174.523 767.365C171.429 773.075 173.113 784.1 174.347 792.621C174.965 796.574 174.179 800.619 172.124 804.055C170.069 807.492 166.875 810.105 163.093 811.442C159.993 812.331 156.793 812.829 153.568 812.924C146.543 813.33 137.899 813.1 129.343 813.89C116.251 815.109 100.714 821.237 93.7439 821.851C88.5685 822.313 85.4193 818.799 83.1179 811.661C82.2446 808.842 81.535 805.975 80.9927 803.074C78.4821 790.227 83.7125 778.587 83.7125 778.587C79.4181 781.442 75.1127 779.806 73.2848 776.391C72.8994 775.666 72.1836 774.195 71.3358 772.153C67.9002 764.389 61.3485 749.093 57.1312 743.141C51.8017 735.587 53.6406 733.753 58.9591 729.668C60.5067 728.48 61.9778 727.197 63.3636 725.825C68.8933 720.049 73.9353 713.827 78.4381 707.223C80.5696 704.404 83.2235 702.018 86.2561 700.196C88.5904 698.714 91.2674 697.856 94.0302 697.703C95.2854 697.637 96.6178 697.549 98.0162 697.417C102.024 697.088 106.638 696.517 111.935 695.661C123.474 693.805 132.305 691.719 138.923 689.347L139.782 689.588C142.488 690.381 145.338 690.558 148.122 690.108C150.906 689.658 153.554 688.591 155.87 686.986C157.94 685.635 165.637 680.189 172.166 675.445C175.602 672.952 178.773 670.668 180.546 669.263C185.865 665.189 185.666 668.044 187.153 672.733C193.286 690.302 187.153 703.545 189.818 719.258C190.016 720.411 190.214 721.531 190.412 722.64C192.89 736.531 195.984 746.502 192.758 751.048Z" fill="url(#paint2_linear)"/>
<path opacity="0.15" d="M49.677 742.834C49.677 742.834 45.6138 745.733 41.969 745.93C38.3242 746.128 36.7276 744.668 36.0559 740.671C36.9258 740.264 37.5865 740.034 37.7406 739.946H37.7957C37.9939 741.56 39.1611 743.24 42.4315 743.24C44.5717 743.292 46.713 743.196 48.8401 742.955L49.677 742.834Z" fill="#001B3A"/>
<path d="M152.688 772.767C142.326 801.669 123.035 801.669 118.795 798.375C114.556 795.08 119.026 785.944 118.795 767.156C118.564 748.368 107.971 744.635 99.0299 720.927C91.8836 701.974 99.7787 689.917 108.83 684.625C109.535 687.029 113.378 688.314 117.639 687.491C121.9 686.667 125.215 683.867 124.719 681.298C124.719 681.298 124.719 681.298 124.719 681.243C136.292 682.341 141.996 691.63 145.641 699.097C150.144 708.266 163.094 743.899 152.688 772.767Z" fill="#F6F6F6"/>
<path opacity="0.15" d="M216.124 656.569C214.913 658.052 210.079 664.365 210.233 670.405C209.496 670.58 208.725 670.734 207.888 670.855L206.511 671.053C206.809 669.383 207.172 667.671 207.613 665.969C208.061 664.247 208.609 662.554 209.253 660.895V660.895C210.723 660.468 212.077 659.718 213.217 658.699V658.699C213.939 658.045 214.452 657.193 214.693 656.251H214.847C214.979 656.284 215.486 656.371 216.124 656.569Z" fill="#001B3A"/>
<path d="M209.275 660.885C205.817 669.669 205.366 679.815 205.355 684.24C205.356 684.506 205.293 684.767 205.173 685.004C205.053 685.24 204.878 685.445 204.664 685.602C204.449 685.758 204.2 685.862 203.937 685.904C203.675 685.946 203.406 685.925 203.153 685.844L195.181 683.494C194.76 683.355 194.41 683.059 194.204 682.667C193.999 682.276 193.954 681.82 194.079 681.396C194.52 679.892 195.181 677.839 195.181 677.674V677.564C196.381 673.831 198.209 668.856 200.345 663.443C201.16 662.806 202.745 662.345 206.742 661.543C207.599 661.375 208.445 661.155 209.275 660.885Z" fill="#001B3A"/>
<path d="M227.257 625.022C224.46 630.15 217.501 643.041 212.733 653.067C210.74 652.836 207.558 653.297 204.331 653.572C209.749 640.395 215.519 627.218 217.06 623.682C217.18 623.412 217.377 623.184 217.625 623.024C217.873 622.864 218.163 622.78 218.459 622.782H225.914C226.178 622.78 226.438 622.847 226.668 622.976C226.898 623.106 227.091 623.293 227.227 623.519C227.362 623.745 227.436 624.003 227.442 624.266C227.447 624.53 227.383 624.79 227.257 625.022V625.022Z" fill="#001B3A"/>
<g style="mix-blend-mode:overlay" opacity="0.3">
<g style="mix-blend-mode:overlay" opacity="0.3">
<path d="M205.024 661.906C202.304 668.867 199.97 675.225 198.417 680.09C198.417 680.145 198.417 680.2 198.417 680.254C198.417 680.419 197.823 682.253 197.316 684.076L195.301 683.483C194.881 683.344 194.531 683.048 194.325 682.656C194.12 682.265 194.075 681.809 194.2 681.385C194.641 679.87 195.301 677.817 195.301 677.663V677.553C196.501 673.82 198.329 668.845 200.466 663.432C201.049 662.905 202.282 662.498 205.024 661.906Z" fill="#FBFBFC"/>
</g>
<g style="mix-blend-mode:overlay" opacity="0.3">
<path d="M223.17 622.781C222.836 622.778 222.508 622.873 222.228 623.054C221.948 623.236 221.728 623.496 221.596 623.802C220.021 627.371 214.582 639.801 209.043 653.121C207.589 653.253 205.96 653.439 204.33 653.571C209.737 640.394 215.518 627.217 217.07 623.692C217.185 623.421 217.379 623.19 217.625 623.027C217.872 622.865 218.162 622.779 218.458 622.781H223.17Z" fill="#FBFBFC"/>
</g>
</g>
<path d="M212.942 633.455C216.09 633.458 219.233 633.697 222.346 634.168C224.372 630.336 226.145 627.064 227.257 625.021C227.373 624.791 227.428 624.536 227.418 624.279C227.407 624.021 227.331 623.771 227.197 623.551C227.062 623.332 226.874 623.15 226.649 623.023C226.425 622.896 226.172 622.828 225.913 622.825H218.459C218.163 622.823 217.873 622.908 217.625 623.068C217.377 623.227 217.18 623.456 217.06 623.726C216.367 625.318 214.858 628.865 212.81 633.499L212.942 633.455Z" fill="url(#paint3_linear)"/>
<path opacity="0.1" d="M152.688 772.767C142.326 801.669 123.034 801.669 118.795 798.374C117.066 797.046 116.791 794.729 117.033 791.193C124.499 791.918 138.428 787.24 146.687 764.246C157.037 735.378 144.132 699.745 139.618 690.543C139.221 689.72 138.792 688.874 138.329 688.018C141.316 691.318 143.778 695.054 145.63 699.097C150.144 708.266 163.094 743.899 152.688 772.767Z" fill="#2A3D42"/>
<path opacity="0.15" d="M87.7979 671.25C83.03 677.421 72.7564 688.643 81.1911 692.454C78.8578 695.282 77.0864 698.528 75.9717 702.018C73.523 701.226 71.4229 699.617 70.0256 697.461C64.5199 689.478 74.4301 678.113 74.4301 678.113C74.4301 678.113 82.2922 670.931 85.3314 666.166C88.3705 661.4 92.6209 665.079 87.7979 671.25Z" fill="#001B3A"/>
<path opacity="0.15" d="M83.6911 778.609C81.4753 784.075 80.3206 789.91 80.2886 795.805C81.4725 793.789 82.8878 791.917 84.506 790.227C85.1896 788.176 86.0024 786.169 86.9395 784.22C93.5462 770.396 93.0067 755.429 93.1608 749.367C93.315 743.306 89.7583 743.526 88.0186 747.654C86.2788 751.783 83.2506 765.597 80.4207 771.23C77.5908 776.863 71.6118 772.328 71.3145 772.13C72.2064 774.14 72.878 775.644 73.2634 776.369C75.0913 779.806 79.4077 781.442 83.6911 778.609Z" fill="#001B3A"/>
<path d="M494.016 24.77C523.097 -23.205 521.941 -137.185 521.941 -137.185C521.941 -190.754 519.728 -236.736 548.96 -278.599C591.648 -339.734 667.169 -326.971 667.169 -424.925C667.169 -522.879 702.151 -645.68 783.807 -767.764C894.787 -933.689 1264.25 -846.203 1108.13 -846.203V887.5C1027.58 814.983 938.136 830.208 857.588 802.317C777.04 774.426 774.816 706.378 706.568 681.836C638.32 657.294 558.895 719.763 485.064 701.92C421.738 686.612 373.2 610.439 318.386 590.048C274.384 573.687 246.966 598.525 237.86 608.968C236.889 610.063 235.532 610.743 234.07 610.863C232.609 610.984 231.158 610.537 230.02 609.615C229.44 609.144 228.959 608.562 228.605 607.904C228.251 607.247 228.031 606.526 227.957 605.783C227.884 605.04 227.958 604.29 228.176 603.576C228.394 602.862 228.751 602.198 229.227 601.622C279.802 539.493 244.885 477.407 259.09 417.452C273.636 356.092 366.45 357.212 387.724 310.357C408.998 263.502 377.671 207.72 386.623 149.709C395.575 91.6976 464.935 72.7449 494.016 24.77Z" fill="url(#paint4_linear)"/>
<path d="M493.837 25.0209C522.917 -22.954 521.761 -136.934 521.761 -136.934C521.761 -190.503 519.548 -236.485 548.78 -278.348C591.469 -339.483 666.989 -326.72 666.989 -424.674C666.989 -522.628 701.971 -645.429 783.627 -767.513C894.607 -933.438 1264.07 -845.952 1107.95 -845.952V887.751C1027.4 815.234 937.956 830.459 857.408 802.568C776.86 774.677 774.636 706.629 706.388 682.087C638.14 657.545 558.715 720.014 484.884 702.171C421.558 686.863 373.02 610.69 318.206 590.299C274.205 573.938 246.787 598.776 237.68 609.219C236.71 610.314 235.352 610.994 233.891 611.114C232.43 611.235 230.978 610.788 229.84 609.866C229.26 609.395 228.779 608.813 228.425 608.155C228.071 607.498 227.851 606.777 227.778 606.034C227.704 605.291 227.778 604.541 227.996 603.827C228.214 603.113 228.571 602.449 229.047 601.873C279.622 539.744 244.705 477.658 258.91 417.703C273.456 356.343 366.27 357.463 387.544 310.608C408.818 263.753 377.491 207.971 386.443 149.96C395.395 91.9485 464.756 72.9958 493.837 25.0209Z" fill="url(#paint5_linear)"/>
<path opacity="0.3" d="M348.678 606.618C338.768 599.656 328.66 593.88 318.397 590.059C301.88 583.899 287.631 583.58 275.86 586.117C294.018 542.93 355.67 564.496 474.328 561.838C592.986 559.181 569.819 463.374 644.288 433.265C747.927 391.329 809.458 467.92 906.831 475.145C1004.2 482.371 1110.52 340.847 1110.52 339.145V669.358C1110.52 669.358 1018.38 706.29 947.551 689.358C845.96 665.079 856.333 582.153 757.132 572.797C627.276 560.543 664.813 628.524 521.578 653.275C462.513 663.487 426.925 602.193 348.678 606.618Z" fill="url(#paint6_linear)"/>
<path opacity="0.3" d="M1060.52 -137.185C1060.52 -137.185 989.393 -34.2186 893.892 25.7034C798.391 85.6253 746.88 95.2554 705.026 163.742C663.172 232.229 702.681 291.712 650.3 341.378C584.826 403.452 416.353 440.896 368.08 480.493C319.806 520.09 306.57 502.246 230.02 609.616C229.441 609.143 228.961 608.561 228.608 607.903C228.255 607.246 228.035 606.525 227.962 605.782C227.888 605.04 227.962 604.29 228.179 603.576C228.396 602.862 228.752 602.198 229.227 601.622C243.645 584.314 252.944 563.344 256.083 541.063C256.079 541.026 256.079 540.989 256.083 540.953C256.876 537.977 270.475 489.629 339.087 440.896C409.912 390.605 521.511 391.681 540.825 315.716C560.139 239.751 494.688 163.753 563.365 65.3548C632.043 -33.0436 832.4 -241.811 843.18 -377.478L1060.52 -137.185Z" fill="url(#paint7_linear)"/>
<g opacity="0.5">
<path opacity="0.3" d="M446.161 241.573C446.161 241.778 446.119 241.98 446.04 242.168C445.961 242.357 445.845 242.528 445.699 242.671C445.407 242.964 445.011 243.13 444.598 243.133C443.564 243.133 442.541 243.336 441.586 243.73C440.632 244.125 439.765 244.704 439.034 245.433C438.304 246.162 437.725 247.028 437.331 247.98C436.936 248.933 436.734 249.953 436.736 250.984C436.731 251.396 436.565 251.79 436.273 252.082C435.976 252.364 435.582 252.521 435.172 252.521C434.762 252.521 434.368 252.364 434.071 252.082C433.779 251.79 433.613 251.396 433.608 250.984C433.61 249.953 433.407 248.933 433.013 247.98C432.619 247.028 432.04 246.162 431.309 245.433C430.579 244.704 429.712 244.125 428.757 243.73C427.803 243.336 426.78 243.133 425.746 243.133C425.332 243.13 424.937 242.964 424.645 242.671C424.499 242.528 424.383 242.357 424.304 242.168C424.224 241.98 424.183 241.778 424.183 241.573C424.187 241.161 424.353 240.767 424.645 240.475C424.941 240.19 425.335 240.029 425.746 240.025C427.832 240.022 429.832 239.194 431.306 237.722C432.78 236.249 433.608 234.254 433.608 232.174C433.608 231.757 433.774 231.358 434.07 231.063C434.365 230.769 434.765 230.604 435.183 230.604C435.601 230.604 436.001 230.769 436.296 231.063C436.592 231.358 436.758 231.757 436.758 232.174C436.758 234.254 437.586 236.249 439.06 237.722C440.534 239.194 442.533 240.022 444.62 240.025C445.031 240.029 445.425 240.19 445.721 240.475C446.004 240.771 446.162 241.164 446.161 241.573V241.573Z" fill="url(#paint8_linear)"/>
<path opacity="0.3" d="M461.566 291.58C461.548 291.845 461.434 292.094 461.246 292.282C461.058 292.47 460.807 292.583 460.542 292.601C459.187 292.601 457.887 293.138 456.929 294.093C455.971 295.049 455.432 296.345 455.432 297.696C455.43 297.966 455.321 298.224 455.129 298.415C454.938 298.606 454.679 298.714 454.408 298.717C454.137 298.717 453.876 298.611 453.682 298.421C453.497 298.224 453.391 297.966 453.384 297.696C453.384 296.347 452.848 295.052 451.892 294.097C450.936 293.142 449.639 292.604 448.286 292.601C448.15 292.601 448.016 292.574 447.891 292.522C447.766 292.469 447.653 292.391 447.559 292.293C447.464 292.201 447.388 292.09 447.337 291.967C447.286 291.844 447.26 291.713 447.262 291.58C447.26 291.445 447.285 291.312 447.337 291.187C447.388 291.063 447.463 290.95 447.559 290.855C447.753 290.665 448.014 290.558 448.286 290.558C449.641 290.558 450.941 290.022 451.899 289.066C452.857 288.111 453.395 286.815 453.395 285.463C453.397 285.263 453.457 285.067 453.569 284.901C453.681 284.734 453.839 284.604 454.025 284.527C454.21 284.449 454.414 284.428 454.612 284.466C454.809 284.504 454.991 284.598 455.135 284.739C455.233 284.832 455.311 284.945 455.364 285.069C455.417 285.194 455.444 285.328 455.444 285.463C455.444 286.815 455.982 288.111 456.94 289.066C457.898 290.022 459.198 290.558 460.553 290.558C460.824 290.561 461.082 290.67 461.274 290.861C461.465 291.052 461.574 291.31 461.577 291.58H461.566Z" fill="url(#paint9_linear)"/>
<path opacity="0.3" d="M959.3 92.949C959.301 93.1547 959.262 93.3587 959.184 93.5491C959.106 93.7396 958.991 93.9128 958.846 94.0587C958.7 94.2047 958.527 94.3205 958.337 94.3996C958.147 94.4786 957.942 94.5193 957.736 94.5193C956.702 94.5178 955.677 94.7199 954.721 95.114C953.766 95.508 952.897 96.0863 952.166 96.8157C951.434 97.545 950.855 98.4111 950.459 99.3643C950.064 100.317 949.862 101.339 949.863 102.371C949.863 102.576 949.822 102.78 949.743 102.97C949.664 103.16 949.547 103.332 949.401 103.477C949.255 103.622 949.081 103.737 948.89 103.814C948.699 103.892 948.495 103.931 948.288 103.93C948.082 103.933 947.878 103.894 947.686 103.817C947.495 103.74 947.322 103.625 947.176 103.48C947.03 103.334 946.915 103.161 946.838 102.971C946.76 102.78 946.722 102.576 946.725 102.371C946.725 101.339 946.521 100.319 946.125 99.366C945.73 98.4134 945.15 97.5479 944.419 96.8189C943.688 96.0898 942.82 95.5115 941.864 95.1169C940.909 94.7224 939.885 94.5193 938.852 94.5193C938.438 94.5169 938.042 94.3511 937.75 94.0581C937.604 93.9146 937.488 93.7437 937.409 93.5552C937.33 93.3667 937.288 93.1644 937.288 92.96C937.29 92.5474 937.457 92.1525 937.75 91.8619C938.046 91.5769 938.44 91.4158 938.852 91.4117C940.938 91.4059 942.937 90.5769 944.412 89.1058C945.887 87.6346 946.719 85.641 946.725 83.5605C946.729 83.1503 946.89 82.7574 947.176 82.4624C947.469 82.1714 947.864 82.006 948.277 82.0012C948.482 82.0018 948.685 82.0429 948.874 82.122C949.063 82.2012 949.234 82.3169 949.378 82.4624C949.672 82.753 949.839 83.1479 949.841 83.5605C949.841 84.5915 950.045 85.6125 950.44 86.565C950.836 87.5176 951.416 88.3831 952.147 89.1122C952.878 89.8412 953.746 90.4195 954.701 90.8141C955.656 91.2087 956.68 91.4117 957.714 91.4117C958.125 91.4169 958.519 91.5779 958.815 91.8619C959.111 92.1489 959.284 92.5381 959.3 92.949V92.949Z" fill="url(#paint10_linear)"/>
<path opacity="0.3" d="M316.371 424.26C316.371 424.676 316.205 425.076 315.909 425.37C315.614 425.665 315.214 425.83 314.796 425.83C312.71 425.833 310.71 426.661 309.236 428.133C307.762 429.605 306.934 431.601 306.934 433.681C306.929 434.093 306.763 434.487 306.471 434.779C306.175 435.061 305.78 435.218 305.37 435.218C304.96 435.218 304.566 435.061 304.269 434.779C303.977 434.487 303.811 434.093 303.807 433.681C303.807 431.601 302.979 429.605 301.505 428.133C300.03 426.661 298.031 425.833 295.945 425.83C295.531 425.828 295.135 425.662 294.843 425.369C294.697 425.225 294.581 425.054 294.502 424.866C294.423 424.677 294.381 424.475 294.381 424.271C294.386 423.859 294.552 423.465 294.843 423.173C295.139 422.888 295.533 422.727 295.945 422.722C298.031 422.72 300.03 421.891 301.505 420.419C302.979 418.947 303.807 416.952 303.807 414.871C303.809 414.459 303.975 414.064 304.269 413.773C304.562 413.484 304.958 413.321 305.37 413.321C305.783 413.321 306.179 413.484 306.471 413.773C306.765 414.064 306.931 414.459 306.934 414.871C306.934 416.952 307.762 418.947 309.236 420.419C310.71 421.891 312.71 422.72 314.796 422.722C315.002 422.721 315.207 422.76 315.398 422.838C315.589 422.916 315.762 423.03 315.909 423.175C316.055 423.32 316.171 423.493 316.251 423.682C316.33 423.872 316.371 424.076 316.371 424.282V424.26Z" fill="url(#paint11_linear)"/>
<path opacity="0.3" d="M732.763 236.237C732.762 236.441 732.721 236.644 732.642 236.832C732.562 237.021 732.446 237.191 732.3 237.335C732.009 237.628 731.613 237.794 731.199 237.796C730.166 237.796 729.143 237.999 728.188 238.394C727.233 238.789 726.366 239.367 725.636 240.096C724.906 240.826 724.327 241.691 723.932 242.644C723.538 243.596 723.336 244.617 723.337 245.647C723.332 246.06 723.166 246.454 722.875 246.746C722.578 247.027 722.183 247.185 721.773 247.185C721.363 247.185 720.969 247.027 720.672 246.746C720.38 246.454 720.214 246.06 720.21 245.647C720.211 244.617 720.009 243.596 719.615 242.644C719.22 241.691 718.641 240.826 717.911 240.096C717.181 239.367 716.313 238.789 715.359 238.394C714.404 237.999 713.381 237.796 712.348 237.796C711.934 237.794 711.538 237.628 711.246 237.335C711.101 237.191 710.984 237.021 710.905 236.832C710.826 236.644 710.785 236.441 710.784 236.237C710.786 235.824 710.953 235.429 711.246 235.139C711.542 234.854 711.936 234.693 712.348 234.689C714.434 234.686 716.434 233.857 717.908 232.385C719.382 230.913 720.21 228.918 720.21 226.837C720.21 226.421 720.376 226.022 720.671 225.727C720.966 225.433 721.367 225.267 721.784 225.267C722.202 225.267 722.602 225.433 722.898 225.727C723.193 226.022 723.359 226.421 723.359 226.837C723.359 228.918 724.187 230.913 725.661 232.385C727.135 233.857 729.135 234.686 731.221 234.689C731.632 234.693 732.027 234.854 732.322 235.139C732.608 235.433 732.766 235.827 732.763 236.237V236.237Z" fill="url(#paint12_linear)"/>
<path opacity="0.3" d="M548.423 52.002C548.423 52.4185 548.257 52.8179 547.961 53.1124C547.666 53.4068 547.266 53.5723 546.848 53.5723C544.763 53.5723 542.763 54.3983 541.289 55.8686C539.814 57.3389 538.986 59.3331 538.986 61.4125C538.986 61.8289 538.82 62.2283 538.525 62.5228C538.23 62.8173 537.829 62.9827 537.411 62.9827C536.994 62.9827 536.593 62.8173 536.298 62.5228C536.003 62.2283 535.837 61.8289 535.837 61.4125C535.837 59.3331 535.009 57.3389 533.534 55.8686C532.06 54.3983 530.06 53.5723 527.975 53.5723C527.557 53.5723 527.157 53.4068 526.862 53.1124C526.566 52.8179 526.4 52.4185 526.4 52.002C526.401 51.7976 526.442 51.5953 526.521 51.4069C526.601 51.2184 526.717 51.0475 526.863 50.9039C527.154 50.611 527.55 50.4451 527.964 50.4428C530.049 50.4428 532.049 49.6167 533.523 48.1464C534.998 46.6761 535.826 44.6819 535.826 42.6025C535.826 42.3981 535.868 42.1959 535.947 42.0074C536.026 41.8189 536.142 41.648 536.288 41.5045C536.581 41.2148 536.977 41.0522 537.389 41.0522C537.802 41.0522 538.198 41.2148 538.491 41.5045C538.637 41.648 538.753 41.8189 538.832 42.0074C538.911 42.1959 538.952 42.3981 538.953 42.6025C538.953 44.6819 539.781 46.6761 541.256 48.1464C542.73 49.6167 544.73 50.4428 546.815 50.4428C547.229 50.4451 547.625 50.611 547.916 50.9039C548.07 51.0438 548.194 51.213 548.281 51.4017C548.368 51.5903 548.416 51.7945 548.423 52.002V52.002Z" fill="url(#paint13_linear)"/>
<path opacity="0.3" d="M885.931 287.89C885.928 288.16 885.819 288.418 885.628 288.609C885.436 288.8 885.177 288.908 884.907 288.911C883.552 288.911 882.252 289.448 881.294 290.403C880.336 291.359 879.797 292.655 879.797 294.006C879.797 294.277 879.69 294.537 879.498 294.728C879.306 294.92 879.045 295.027 878.773 295.027C878.502 295.027 878.241 294.92 878.049 294.728C877.857 294.537 877.749 294.277 877.749 294.006C877.749 292.655 877.211 291.359 876.253 290.403C875.295 289.448 873.995 288.911 872.64 288.911C872.369 288.908 872.111 288.8 871.919 288.609C871.728 288.418 871.619 288.16 871.616 287.89C871.615 287.755 871.64 287.622 871.691 287.497C871.742 287.373 871.817 287.26 871.913 287.165C872.008 287.069 872.122 286.994 872.247 286.943C872.371 286.893 872.505 286.867 872.64 286.869C873.995 286.869 875.295 286.332 876.253 285.376C877.211 284.421 877.749 283.125 877.749 281.774C877.749 281.503 877.856 281.242 878.047 281.049C878.24 280.858 878.501 280.752 878.773 280.752C879.045 280.752 879.306 280.858 879.5 281.049C879.691 281.242 879.798 281.503 879.797 281.774C879.797 283.125 880.336 284.421 881.294 285.376C882.252 286.332 883.552 286.869 884.907 286.869C885.042 286.867 885.175 286.893 885.3 286.943C885.425 286.994 885.539 287.069 885.634 287.165C885.729 287.26 885.805 287.373 885.856 287.497C885.907 287.622 885.932 287.755 885.931 287.89V287.89Z" fill="url(#paint14_linear)"/>
<path opacity="0.3" d="M523.67 677.367C523.672 677.501 523.646 677.635 523.595 677.759C523.544 677.884 523.469 677.997 523.373 678.092C523.278 678.187 523.165 678.262 523.04 678.313C522.915 678.364 522.781 678.389 522.646 678.388C521.291 678.388 519.991 678.925 519.033 679.88C518.075 680.836 517.537 682.132 517.537 683.483C517.537 683.754 517.43 684.014 517.239 684.208C517.042 684.392 516.783 684.498 516.513 684.504C516.242 684.498 515.983 684.392 515.786 684.208C515.595 684.014 515.488 683.754 515.489 683.483C515.489 682.132 514.95 680.836 513.992 679.88C513.034 678.925 511.734 678.388 510.379 678.388C510.107 678.388 509.846 678.281 509.652 678.091C509.467 677.894 509.362 677.636 509.355 677.367C509.357 677.099 509.463 676.843 509.652 676.653C509.746 676.555 509.859 676.478 509.984 676.425C510.109 676.372 510.244 676.345 510.379 676.345C511.734 676.345 513.034 675.809 513.992 674.853C514.95 673.898 515.489 672.602 515.489 671.25C515.487 671.116 515.513 670.982 515.564 670.858C515.614 670.733 515.69 670.62 515.785 670.525C515.881 670.43 515.994 670.355 516.119 670.304C516.244 670.253 516.378 670.228 516.513 670.229C516.783 670.235 517.042 670.341 517.239 670.526C517.424 670.723 517.53 670.98 517.537 671.25C517.537 672.602 518.075 673.898 519.033 674.853C519.991 675.809 521.291 676.345 522.646 676.345C522.917 676.348 523.176 676.457 523.367 676.648C523.558 676.839 523.667 677.097 523.67 677.367V677.367Z" fill="url(#paint15_linear)"/>
<path opacity="0.3" d="M548.423 569.975C548.423 570.391 548.257 570.791 547.961 571.085C547.666 571.379 547.266 571.545 546.848 571.545C544.763 571.545 542.763 572.371 541.289 573.841C539.814 575.312 538.986 577.306 538.986 579.385C538.986 579.802 538.82 580.201 538.525 580.495C538.23 580.79 537.829 580.955 537.411 580.955C536.994 580.955 536.593 580.79 536.298 580.495C536.003 580.201 535.837 579.802 535.837 579.385C535.837 577.306 535.009 575.312 533.534 573.841C532.06 572.371 530.06 571.545 527.975 571.545C527.557 571.545 527.157 571.379 526.862 571.085C526.566 570.791 526.4 570.391 526.4 569.975C526.4 569.558 526.566 569.159 526.862 568.864C527.157 568.57 527.557 568.404 527.975 568.404C530.06 568.404 532.06 567.578 533.534 566.108C535.009 564.638 535.837 562.643 535.837 560.564C535.837 560.148 536.003 559.748 536.298 559.454C536.593 559.159 536.994 558.994 537.411 558.994C537.829 558.994 538.23 559.159 538.525 559.454C538.82 559.748 538.986 560.148 538.986 560.564C538.986 562.643 539.814 564.638 541.289 566.108C542.763 567.578 544.763 568.404 546.848 568.404C547.266 568.404 547.666 568.57 547.961 568.864C548.257 569.159 548.423 569.558 548.423 569.975V569.975Z" fill="url(#paint16_linear)"/>
<path opacity="0.3" d="M594.395 420.417C594.395 420.552 594.368 420.686 594.315 420.811C594.262 420.936 594.184 421.048 594.087 421.142C593.994 421.237 593.882 421.313 593.759 421.364C593.636 421.415 593.504 421.44 593.371 421.438C592.698 421.437 592.032 421.568 591.41 421.824C590.788 422.08 590.223 422.456 589.747 422.931C589.271 423.405 588.894 423.969 588.637 424.589C588.381 425.209 588.249 425.873 588.251 426.544C588.224 426.796 588.106 427.028 587.918 427.197C587.73 427.366 587.485 427.46 587.232 427.46C586.979 427.46 586.735 427.366 586.546 427.197C586.358 427.028 586.24 426.796 586.214 426.544C586.215 425.873 586.084 425.209 585.827 424.589C585.57 423.969 585.193 423.405 584.717 422.931C584.241 422.456 583.676 422.08 583.054 421.824C582.433 421.568 581.766 421.437 581.093 421.438C580.841 421.412 580.608 421.294 580.439 421.106C580.269 420.919 580.175 420.675 580.175 420.423C580.175 420.17 580.269 419.927 580.439 419.739C580.608 419.551 580.841 419.433 581.093 419.407C581.766 419.408 582.433 419.277 583.054 419.021C583.676 418.765 584.241 418.389 584.717 417.915C585.193 417.44 585.57 416.877 585.827 416.257C586.084 415.636 586.215 414.972 586.214 414.301C586.212 414.168 586.237 414.036 586.288 413.913C586.34 413.791 586.415 413.68 586.511 413.587C586.604 413.49 586.716 413.414 586.84 413.361C586.964 413.309 587.097 413.281 587.232 413.281C587.367 413.281 587.5 413.309 587.624 413.361C587.748 413.414 587.86 413.49 587.953 413.587C588.049 413.68 588.125 413.791 588.176 413.913C588.227 414.036 588.252 414.168 588.251 414.301C588.249 414.972 588.381 415.636 588.637 416.257C588.894 416.877 589.271 417.44 589.747 417.915C590.223 418.389 590.788 418.765 591.41 419.021C592.032 419.277 592.698 419.408 593.371 419.407C593.504 419.405 593.636 419.431 593.759 419.482C593.882 419.533 593.994 419.608 594.087 419.703C594.184 419.795 594.261 419.906 594.314 420.029C594.367 420.151 594.395 420.284 594.395 420.417V420.417Z" fill="url(#paint17_linear)"/>
<path opacity="0.3" d="M373.641 535.122C373.643 535.257 373.617 535.39 373.566 535.515C373.515 535.639 373.439 535.752 373.343 535.847C373.153 536.035 372.896 536.142 372.628 536.143C371.956 536.142 371.29 536.273 370.669 536.528C370.048 536.783 369.483 537.158 369.008 537.632C368.532 538.105 368.155 538.667 367.897 539.286C367.64 539.905 367.507 540.569 367.507 541.239C367.506 541.439 367.446 541.635 367.334 541.801C367.222 541.968 367.063 542.098 366.878 542.175C366.692 542.253 366.488 542.274 366.291 542.236C366.093 542.198 365.911 542.103 365.767 541.963C365.671 541.869 365.595 541.756 365.544 541.631C365.493 541.507 365.468 541.373 365.47 541.239C365.47 540.569 365.338 539.905 365.08 539.286C364.823 538.667 364.445 538.105 363.97 537.632C363.494 537.158 362.93 536.783 362.308 536.528C361.687 536.273 361.022 536.142 360.35 536.143C360.078 536.143 359.818 536.036 359.626 535.844C359.434 535.653 359.326 535.393 359.326 535.122C359.326 534.851 359.434 534.592 359.626 534.4C359.818 534.208 360.078 534.101 360.35 534.101C361.022 534.102 361.687 533.972 362.308 533.716C362.93 533.461 363.494 533.086 363.97 532.612C364.445 532.139 364.823 531.577 365.08 530.958C365.338 530.339 365.47 529.676 365.47 529.006C365.468 528.871 365.494 528.738 365.545 528.613C365.596 528.488 365.671 528.376 365.767 528.281C365.959 528.091 366.218 527.985 366.489 527.985C366.759 527.985 367.018 528.091 367.21 528.281C367.395 528.478 367.501 528.736 367.507 529.006C367.507 529.676 367.64 530.339 367.897 530.958C368.155 531.577 368.532 532.139 369.008 532.612C369.483 533.086 370.048 533.461 370.669 533.716C371.29 533.972 371.956 534.102 372.628 534.101C372.896 534.102 373.153 534.209 373.343 534.397C373.439 534.492 373.515 534.605 373.566 534.729C373.617 534.854 373.643 534.988 373.641 535.122V535.122Z" fill="url(#paint18_linear)"/>
</g>
<g style="mix-blend-mode:overlay" opacity="0.25">
<path style="mix-blend-mode:overlay" opacity="0.5" d="M906.467 367.292C908.973 367.292 911.004 365.267 911.004 362.768C911.004 360.27 908.973 358.244 906.467 358.244C903.962 358.244 901.931 360.27 901.931 362.768C901.931 365.267 903.962 367.292 906.467 367.292Z" fill="url(#paint19_linear)"/>
<path style="mix-blend-mode:overlay" opacity="0.5" d="M1038.49 402.101C1041 402.101 1043.03 400.076 1043.03 397.577C1043.03 395.079 1041 393.053 1038.49 393.053C1035.99 393.053 1033.96 395.079 1033.96 397.577C1033.96 400.076 1035.99 402.101 1038.49 402.101Z" fill="url(#paint20_linear)"/>
<path style="mix-blend-mode:overlay" opacity="0.5" d="M941.406 279.336C943.912 279.336 945.943 277.311 945.943 274.812C945.943 272.314 943.912 270.288 941.406 270.288C938.9 270.288 936.869 272.314 936.869 274.812C936.869 277.311 938.9 279.336 941.406 279.336Z" fill="url(#paint21_linear)"/>
<path style="mix-blend-mode:overlay" opacity="0.5" d="M926.1 108.454C928.606 108.454 930.637 106.429 930.637 103.93C930.637 101.432 928.606 99.4062 926.1 99.4062C923.595 99.4062 921.564 101.432 921.564 103.93C921.564 106.429 923.595 108.454 926.1 108.454Z" fill="url(#paint22_linear)"/>
<path style="mix-blend-mode:overlay" opacity="0.5" d="M984.538 108.454C987.043 108.454 989.074 106.429 989.074 103.93C989.074 101.432 987.043 99.4062 984.538 99.4062C982.032 99.4062 980.001 101.432 980.001 103.93C980.001 106.429 982.032 108.454 984.538 108.454Z" fill="url(#paint23_linear)"/>
<path style="mix-blend-mode:overlay" opacity="0.5" d="M750.063 22.3211C752.568 22.3211 754.599 20.2956 754.599 17.797C754.599 15.2984 752.568 13.2729 750.063 13.2729C747.557 13.2729 745.526 15.2984 745.526 17.797C745.526 20.2956 747.557 22.3211 750.063 22.3211Z" fill="url(#paint24_linear)"/>
<path style="mix-blend-mode:overlay" opacity="0.5" d="M630.854 161.919C633.359 161.919 635.39 159.894 635.39 157.395C635.39 154.897 633.359 152.871 630.854 152.871C628.348 152.871 626.317 154.897 626.317 157.395C626.317 159.894 628.348 161.919 630.854 161.919Z" fill="url(#paint25_linear)"/>
<path style="mix-blend-mode:overlay" opacity="0.5" d="M668.182 539.503C670.688 539.503 672.719 537.478 672.719 534.979C672.719 532.481 670.688 530.455 668.182 530.455C665.677 530.455 663.646 532.481 663.646 534.979C663.646 537.478 665.677 539.503 668.182 539.503Z" fill="url(#paint26_linear)"/>
<path style="mix-blend-mode:overlay" opacity="0.5" d="M782.645 656.942C785.151 656.942 787.182 654.917 787.182 652.418C787.182 649.92 785.151 647.894 782.645 647.894C780.14 647.894 778.109 649.92 778.109 652.418C778.109 654.917 780.14 656.942 782.645 656.942Z" fill="url(#paint27_linear)"/>
<path style="mix-blend-mode:overlay" opacity="0.5" d="M580.72 571.49C583.226 571.49 585.257 569.465 585.257 566.966C585.257 564.467 583.226 562.442 580.72 562.442C578.215 562.442 576.184 564.467 576.184 566.966C576.184 569.465 578.215 571.49 580.72 571.49Z" fill="url(#paint28_linear)"/>
<path style="mix-blend-mode:overlay" opacity="0.5" d="M413.326 335.261C415.831 335.261 417.863 333.236 417.863 330.737C417.863 328.239 415.831 326.213 413.326 326.213C410.82 326.213 408.789 328.239 408.789 330.737C408.789 333.236 410.82 335.261 413.326 335.261Z" fill="url(#paint29_linear)"/>
<path style="mix-blend-mode:overlay" opacity="0.5" d="M606.046 391.944C608.551 391.944 610.583 389.918 610.583 387.42C610.583 384.921 608.551 382.896 606.046 382.896C603.54 382.896 601.509 384.921 601.509 387.42C601.509 389.918 603.54 391.944 606.046 391.944Z" fill="url(#paint30_linear)"/>
<path style="mix-blend-mode:overlay" opacity="0.5" d="M424.139 539.262C426.645 539.262 428.676 537.236 428.676 534.738C428.676 532.239 426.645 530.214 424.139 530.214C421.634 530.214 419.603 532.239 419.603 534.738C419.603 537.236 421.634 539.262 424.139 539.262Z" fill="url(#paint31_linear)"/>
<path style="mix-blend-mode:overlay" opacity="0.5" d="M332.249 539.262C334.755 539.262 336.786 537.236 336.786 534.738C336.786 532.239 334.755 530.214 332.249 530.214C329.744 530.214 327.712 532.239 327.712 534.738C327.712 537.236 329.744 539.262 332.249 539.262Z" fill="url(#paint32_linear)"/>
<path style="mix-blend-mode:overlay" opacity="0.5" d="M636.084 408.163C638.59 408.163 640.621 406.137 640.621 403.639C640.621 401.14 638.59 399.115 636.084 399.115C633.579 399.115 631.548 401.14 631.548 403.639C631.548 406.137 633.579 408.163 636.084 408.163Z" fill="url(#paint33_linear)"/>
<path style="mix-blend-mode:overlay" opacity="0.5" d="M505.314 544.027C507.82 544.027 509.851 542.002 509.851 539.503C509.851 537.005 507.82 534.979 505.314 534.979C502.809 534.979 500.778 537.005 500.778 539.503C500.778 542.002 502.809 544.027 505.314 544.027Z" fill="url(#paint34_linear)"/>
<path style="mix-blend-mode:overlay" opacity="0.5" d="M805.119 266.5C807.625 266.5 809.656 264.475 809.656 261.976C809.656 259.477 807.625 257.452 805.119 257.452C802.614 257.452 800.582 259.477 800.582 261.976C800.582 264.475 802.614 266.5 805.119 266.5Z" fill="url(#paint35_linear)"/>
<path style="mix-blend-mode:overlay" opacity="0.5" d="M782.645 120.84C785.151 120.84 787.182 118.815 787.182 116.316C787.182 113.818 785.151 111.792 782.645 111.792C780.14 111.792 778.109 113.818 778.109 116.316C778.109 118.815 780.14 120.84 782.645 120.84Z" fill="url(#paint36_linear)"/>
<path style="mix-blend-mode:overlay" opacity="0.5" d="M926.454 40.8237C928.959 40.8237 930.99 38.7983 930.99 36.2997C930.99 33.8011 928.959 31.7756 926.454 31.7756C923.948 31.7756 921.917 33.8011 921.917 36.2997C921.917 38.7983 923.948 40.8237 926.454 40.8237Z" fill="url(#paint37_linear)"/>
<path style="mix-blend-mode:overlay" opacity="0.5" d="M852.358 116.316C854.863 116.316 856.894 114.291 856.894 111.792C856.894 109.294 854.863 107.268 852.358 107.268C849.852 107.268 847.821 109.294 847.821 111.792C847.821 114.291 849.852 116.316 852.358 116.316Z" fill="url(#paint38_linear)"/>
<path style="mix-blend-mode:overlay" opacity="0.5" d="M605.474 179.5C607.979 179.5 610.01 177.474 610.01 174.975C610.01 172.477 607.979 170.451 605.474 170.451C602.968 170.451 600.937 172.477 600.937 174.975C600.937 177.474 602.968 179.5 605.474 179.5Z" fill="url(#paint39_linear)"/>
<path style="mix-blend-mode:overlay" opacity="0.5" d="M486.859 212.947C489.365 212.947 491.396 210.922 491.396 208.423C491.396 205.924 489.365 203.899 486.859 203.899C484.354 203.899 482.323 205.924 482.323 208.423C482.323 210.922 484.354 212.947 486.859 212.947Z" fill="url(#paint40_linear)"/>
<path style="mix-blend-mode:overlay" opacity="0.5" d="M351.112 386.575C353.618 386.575 355.649 384.549 355.649 382.05C355.649 379.552 353.618 377.526 351.112 377.526C348.607 377.526 346.575 379.552 346.575 382.05C346.575 384.549 348.607 386.575 351.112 386.575Z" fill="url(#paint41_linear)"/>
<path style="mix-blend-mode:overlay" opacity="0.5" d="M283.007 526.524C285.512 526.524 287.544 524.498 287.544 522C287.544 519.501 285.512 517.476 283.007 517.476C280.501 517.476 278.47 519.501 278.47 522C278.47 524.498 280.501 526.524 283.007 526.524Z" fill="url(#paint42_linear)"/>
<path style="mix-blend-mode:overlay" opacity="0.5" d="M316.129 483.227C318.635 483.227 320.666 481.201 320.666 478.703C320.666 476.204 318.635 474.179 316.129 474.179C313.624 474.179 311.593 476.204 311.593 478.703C311.593 481.201 313.624 483.227 316.129 483.227Z" fill="url(#paint43_linear)"/>
<path style="mix-blend-mode:overlay" opacity="0.5" d="M440.413 151.729C442.919 151.729 444.95 149.704 444.95 147.205C444.95 144.707 442.919 142.681 440.413 142.681C437.908 142.681 435.877 144.707 435.877 147.205C435.877 149.704 437.908 151.729 440.413 151.729Z" fill="url(#paint44_linear)"/>
<path style="mix-blend-mode:overlay" opacity="0.5" d="M654.243 22.3211C656.748 22.3211 658.779 20.2956 658.779 17.797C658.779 15.2984 656.748 13.2729 654.243 13.2729C651.737 13.2729 649.706 15.2984 649.706 17.797C649.706 20.2956 651.737 22.3211 654.243 22.3211Z" fill="url(#paint45_linear)"/>
<path style="mix-blend-mode:overlay" opacity="0.5" d="M403.581 580.538C406.086 580.538 408.118 578.513 408.118 576.014C408.118 573.516 406.086 571.49 403.581 571.49C401.076 571.49 399.044 573.516 399.044 576.014C399.044 578.513 401.076 580.538 403.581 580.538Z" fill="url(#paint46_linear)"/>
<path style="mix-blend-mode:overlay" opacity="0.5" d="M458.263 341.279C460.768 341.279 462.8 339.253 462.8 336.755C462.8 334.256 460.768 332.231 458.263 332.231C455.757 332.231 453.726 334.256 453.726 336.755C453.726 339.253 455.757 341.279 458.263 341.279Z" fill="url(#paint47_linear)"/>
<path style="mix-blend-mode:overlay" opacity="0.5" d="M553.576 419.824C556.082 419.824 558.113 417.799 558.113 415.3C558.113 412.802 556.082 410.776 553.576 410.776C551.071 410.776 549.04 412.802 549.04 415.3C549.04 417.799 551.071 419.824 553.576 419.824Z" fill="url(#paint48_linear)"/>
<path style="mix-blend-mode:overlay" opacity="0.5" d="M865.075 424.348C867.58 424.348 869.612 422.323 869.612 419.824C869.612 417.326 867.58 415.3 865.075 415.3C862.569 415.3 860.538 417.326 860.538 419.824C860.538 422.323 862.569 424.348 865.075 424.348Z" fill="url(#paint49_linear)"/>
<path style="mix-blend-mode:overlay" opacity="0.5" d="M1005.21 522C1007.71 522 1009.74 519.974 1009.74 517.476C1009.74 514.977 1007.71 512.952 1005.21 512.952C1002.7 512.952 1000.67 514.977 1000.67 517.476C1000.67 519.974 1002.7 522 1005.21 522Z" fill="url(#paint50_linear)"/>
<path style="mix-blend-mode:overlay" opacity="0.5" d="M860.528 348.416C863.034 348.416 865.065 346.391 865.065 343.892C865.065 341.394 863.034 339.368 860.528 339.368C858.023 339.368 855.991 341.394 855.991 343.892C855.991 346.391 858.023 348.416 860.528 348.416Z" fill="url(#paint51_linear)"/>
<path style="mix-blend-mode:overlay" opacity="0.5" d="M860.528 576.015C863.034 576.015 865.065 573.989 865.065 571.491C865.065 568.992 863.034 566.967 860.528 566.967C858.023 566.967 855.991 568.992 855.991 571.491C855.991 573.989 858.023 576.015 860.528 576.015Z" fill="url(#paint52_linear)"/>
<path style="mix-blend-mode:overlay" opacity="0.5" d="M820.227 656.942C822.732 656.942 824.763 654.917 824.763 652.418C824.763 649.92 822.732 647.894 820.227 647.894C817.721 647.894 815.69 649.92 815.69 652.418C815.69 654.917 817.721 656.942 820.227 656.942Z" fill="url(#paint53_linear)"/>
<path style="mix-blend-mode:overlay" opacity="0.5" d="M871.616 749.093C874.121 749.093 876.152 747.067 876.152 744.569C876.152 742.07 874.121 740.045 871.616 740.045C869.11 740.045 867.079 742.07 867.079 744.569C867.079 747.067 869.11 749.093 871.616 749.093Z" fill="url(#paint54_linear)"/>
</g>
</g>
<defs>
<linearGradient id="paint0_linear" x1="100.167" y1="856.805" x2="103.138" y2="874.311" gradientUnits="userSpaceOnUse">
<stop stop-color="#A3B9E6" stop-opacity="0.5"/>
<stop offset="1" stop-color="#A3B9E5"/>
</linearGradient>
<linearGradient id="paint1_linear" x1="126.159" y1="684.212" x2="101.959" y2="632.718" gradientUnits="userSpaceOnUse">
<stop stop-color="#4D51E7"/>
<stop offset="1" stop-color="#8D90FF"/>
</linearGradient>
<linearGradient id="paint2_linear" x1="159.25" y1="783.5" x2="92.2502" y2="705.5" gradientUnits="userSpaceOnUse">
<stop stop-color="#4D51E7"/>
<stop offset="1" stop-color="#8D90FF"/>
</linearGradient>
<linearGradient id="paint3_linear" x1="223.783" y1="631.351" x2="219.378" y2="624.069" gradientUnits="userSpaceOnUse">
<stop stop-color="#4D51E7"/>
<stop offset="1" stop-color="#8D90FF"/>
</linearGradient>
<linearGradient id="paint4_linear" x1="1234.75" y1="-683" x2="292.75" y2="653.5" gradientUnits="userSpaceOnUse">
<stop stop-color="#EEA83C"/>
<stop offset="0.494792" stop-color="#E66395"/>
<stop offset="1" stop-color="#6865F1"/>
</linearGradient>
<linearGradient id="paint5_linear" x1="686.803" y1="-869" x2="686.803" y2="887.751" gradientUnits="userSpaceOnUse">
<stop stop-color="white"/>
<stop offset="1" stop-color="white" stop-opacity="0"/>
</linearGradient>
<linearGradient id="paint6_linear" x1="571034" y1="204948" x2="1.13018e+06" y2="204948" gradientUnits="userSpaceOnUse">
<stop stop-color="white"/>
<stop offset="1" stop-color="white" stop-opacity="0"/>
</linearGradient>
<linearGradient id="paint7_linear" x1="569622" y1="253812" x2="1.19915e+06" y2="253812" gradientUnits="userSpaceOnUse">
<stop stop-color="white"/>
<stop offset="1" stop-color="white" stop-opacity="0"/>
</linearGradient>
<linearGradient id="paint8_linear" x1="14532.7" y1="10997.8" x2="28494.8" y2="2096.15" gradientUnits="userSpaceOnUse">
<stop stop-color="white"/>
<stop offset="1" stop-color="white" stop-opacity="0"/>
</linearGradient>
<linearGradient id="paint9_linear" x1="11107.1" y1="7170.6" x2="17016.7" y2="3401.43" gradientUnits="userSpaceOnUse">
<stop stop-color="white"/>
<stop offset="1" stop-color="white" stop-opacity="0"/>
</linearGradient>
<linearGradient id="paint10_linear" x1="16671.2" y1="13368" x2="30646.1" y2="4449" gradientUnits="userSpaceOnUse">
<stop stop-color="white"/>
<stop offset="1" stop-color="white" stop-opacity="0"/>
</linearGradient>
<linearGradient id="paint11_linear" x1="15320.4" y1="12596.4" x2="29277.9" y2="3684.82" gradientUnits="userSpaceOnUse">
<stop stop-color="white"/>
<stop offset="1" stop-color="white" stop-opacity="0"/>
</linearGradient>
<linearGradient id="paint12_linear" x1="16964" y1="13153.4" x2="30926" y2="4251.51" gradientUnits="userSpaceOnUse">
<stop stop-color="white"/>
<stop offset="1" stop-color="white" stop-opacity="0"/>
</linearGradient>
<linearGradient id="paint13_linear" x1="13530.1" y1="9040.44" x2="27508.6" y2="115.847" gradientUnits="userSpaceOnUse">
<stop stop-color="white"/>
<stop offset="1" stop-color="white" stop-opacity="0"/>
</linearGradient>
<linearGradient id="paint14_linear" x1="14480.6" y1="8750.11" x2="20391.6" y2="4981.67" gradientUnits="userSpaceOnUse">
<stop stop-color="white"/>
<stop offset="1" stop-color="white" stop-opacity="0"/>
</linearGradient>
<linearGradient id="paint15_linear" x1="13107.5" y1="11857.4" x2="19018.3" y2="8088.87" gradientUnits="userSpaceOnUse">
<stop stop-color="white"/>
<stop offset="1" stop-color="white" stop-opacity="0"/>
</linearGradient>
<linearGradient id="paint16_linear" x1="18233.8" y1="16948.9" x2="32223.8" y2="8029.57" gradientUnits="userSpaceOnUse">
<stop stop-color="white"/>
<stop offset="1" stop-color="white" stop-opacity="0"/>
</linearGradient>
<linearGradient id="paint17_linear" x1="12581.5" y1="9111.15" x2="18452.6" y2="5367.5" gradientUnits="userSpaceOnUse">
<stop stop-color="white"/>
<stop offset="1" stop-color="white" stop-opacity="0"/>
</linearGradient>
<linearGradient id="paint18_linear" x1="11339.9" y1="9651.62" x2="17249.4" y2="5882.39" gradientUnits="userSpaceOnUse">
<stop stop-color="white"/>
<stop offset="1" stop-color="white" stop-opacity="0"/>
</linearGradient>
<linearGradient id="paint19_linear" x1="8154.77" y1="7814.86" x2="17679.9" y2="779.994" gradientUnits="userSpaceOnUse">
<stop stop-color="white"/>
<stop offset="1" stop-color="white" stop-opacity="0"/>
</linearGradient>
<linearGradient id="paint20_linear" x1="8806.63" y1="8553.63" x2="18331.7" y2="1518.93" gradientUnits="userSpaceOnUse">
<stop stop-color="white"/>
<stop offset="1" stop-color="white" stop-opacity="0"/>
</linearGradient>
<linearGradient id="paint21_linear" x1="7943.76" y1="7393.97" x2="17468.7" y2="359.242" gradientUnits="userSpaceOnUse">
<stop stop-color="white"/>
<stop offset="1" stop-color="white" stop-opacity="0"/>
</linearGradient>
<linearGradient id="paint22_linear" x1="7210.01" y1="6250.22" x2="16735.1" y2="-784.581" gradientUnits="userSpaceOnUse">
<stop stop-color="white"/>
<stop offset="1" stop-color="white" stop-opacity="0"/>
</linearGradient>
<linearGradient id="paint23_linear" x1="7437.83" y1="6479.59" x2="16963" y2="-555.304" gradientUnits="userSpaceOnUse">
<stop stop-color="white"/>
<stop offset="1" stop-color="white" stop-opacity="0"/>
</linearGradient>
<linearGradient id="paint24_linear" x1="6183.99" y1="5013.27" x2="15709.1" y2="-2021.52" gradientUnits="userSpaceOnUse">
<stop stop-color="white"/>
<stop offset="1" stop-color="white" stop-opacity="0"/>
</linearGradient>
<linearGradient id="paint25_linear" x1="6270.05" y1="5430.97" x2="15795.2" y2="-1603.71" gradientUnits="userSpaceOnUse">
<stop stop-color="white"/>
<stop offset="1" stop-color="white" stop-opacity="0"/>
</linearGradient>
<linearGradient id="paint26_linear" x1="7905.41" y1="7972.14" x2="17430.7" y2="937.275" gradientUnits="userSpaceOnUse">
<stop stop-color="white"/>
<stop offset="1" stop-color="white" stop-opacity="0"/>
</linearGradient>
<linearGradient id="paint27_linear" x1="8814.98" y1="9166.05" x2="18340.2" y2="2131.18" gradientUnits="userSpaceOnUse">
<stop stop-color="white"/>
<stop offset="1" stop-color="white" stop-opacity="0"/>
</linearGradient>
<linearGradient id="paint28_linear" x1="7690.74" y1="7831.85" x2="17215.9" y2="796.984" gradientUnits="userSpaceOnUse">
<stop stop-color="white"/>
<stop offset="1" stop-color="white" stop-opacity="0"/>
</linearGradient>
<linearGradient id="paint29_linear" x1="6106.14" y1="5676.81" x2="15631.2" y2="-1357.98" gradientUnits="userSpaceOnUse">
<stop stop-color="white"/>
<stop offset="1" stop-color="white" stop-opacity="0"/>
</linearGradient>
<linearGradient id="paint30_linear" x1="7080.95" y1="6792.39" x2="16606" y2="-242.406" gradientUnits="userSpaceOnUse">
<stop stop-color="white"/>
<stop offset="1" stop-color="white" stop-opacity="0"/>
</linearGradient>
<linearGradient id="paint31_linear" x1="6953.08" y1="7012.93" x2="16478" y2="-21.6981" gradientUnits="userSpaceOnUse">
<stop stop-color="white"/>
<stop offset="1" stop-color="white" stop-opacity="0"/>
</linearGradient>
<linearGradient id="paint32_linear" x1="6595.02" y1="6652.37" x2="16120" y2="-382.451" gradientUnits="userSpaceOnUse">
<stop stop-color="white"/>
<stop offset="1" stop-color="white" stop-opacity="0"/>
</linearGradient>
<linearGradient id="paint33_linear" x1="7262.06" y1="7013.26" x2="16787.2" y2="-21.611" gradientUnits="userSpaceOnUse">
<stop stop-color="white"/>
<stop offset="1" stop-color="white" stop-opacity="0"/>
</linearGradient>
<linearGradient id="paint34_linear" x1="7288.35" y1="7361.75" x2="16813.6" y2="326.976" gradientUnits="userSpaceOnUse">
<stop stop-color="white"/>
<stop offset="1" stop-color="white" stop-opacity="0"/>
</linearGradient>
<linearGradient id="paint35_linear" x1="7362.3" y1="6777.88" x2="16887.6" y2="-257.389" gradientUnits="userSpaceOnUse">
<stop stop-color="white"/>
<stop offset="1" stop-color="white" stop-opacity="0"/>
</linearGradient>
<linearGradient id="paint36_linear" x1="6699.79" y1="5766.01" x2="16225" y2="-1268.86" gradientUnits="userSpaceOnUse">
<stop stop-color="white"/>
<stop offset="1" stop-color="white" stop-opacity="0"/>
</linearGradient>
<linearGradient id="paint37_linear" x1="6944.58" y1="5822.66" x2="16469.7" y2="-1212.23" gradientUnits="userSpaceOnUse">
<stop stop-color="white"/>
<stop offset="1" stop-color="white" stop-opacity="0"/>
</linearGradient>
<linearGradient id="paint38_linear" x1="6953.5" y1="6010.78" x2="16478.5" y2="-1023.83" gradientUnits="userSpaceOnUse">
<stop stop-color="white"/>
<stop offset="1" stop-color="white" stop-opacity="0"/>
</linearGradient>
<linearGradient id="paint39_linear" x1="6240.55" y1="5442.87" x2="15765.7" y2="-1591.93" gradientUnits="userSpaceOnUse">
<stop stop-color="white"/>
<stop offset="1" stop-color="white" stop-opacity="0"/>
</linearGradient>
<linearGradient id="paint40_linear" x1="5910.06" y1="5189.59" x2="15435.2" y2="-1845.11" gradientUnits="userSpaceOnUse">
<stop stop-color="white"/>
<stop offset="1" stop-color="white" stop-opacity="0"/>
</linearGradient>
<linearGradient id="paint41_linear" x1="6066.54" y1="5758.13" x2="15591.9" y2="-1277.3" gradientUnits="userSpaceOnUse">
<stop stop-color="white"/>
<stop offset="1" stop-color="white" stop-opacity="0"/>
</linearGradient>
<linearGradient id="paint42_linear" x1="6353.19" y1="6378.29" x2="15878.2" y2="-657.036" gradientUnits="userSpaceOnUse">
<stop stop-color="white"/>
<stop offset="1" stop-color="white" stop-opacity="0"/>
</linearGradient>
<linearGradient id="paint43_linear" x1="6311.21" y1="6233.9" x2="15836.4" y2="-800.971" gradientUnits="userSpaceOnUse">
<stop stop-color="white"/>
<stop offset="1" stop-color="white" stop-opacity="0"/>
</linearGradient>
<linearGradient id="paint44_linear" x1="5487.58" y1="4619.06" x2="15012.6" y2="-2415.64" gradientUnits="userSpaceOnUse">
<stop stop-color="white"/>
<stop offset="1" stop-color="white" stop-opacity="0"/>
</linearGradient>
<linearGradient id="paint45_linear" x1="5810.42" y1="4637.32" x2="15335.5" y2="-2397.28" gradientUnits="userSpaceOnUse">
<stop stop-color="white"/>
<stop offset="1" stop-color="white" stop-opacity="0"/>
</linearGradient>
<linearGradient id="paint46_linear" x1="7035.77" y1="7194.02" x2="16560.7" y2="159.371" gradientUnits="userSpaceOnUse">
<stop stop-color="white"/>
<stop offset="1" stop-color="white" stop-opacity="0"/>
</linearGradient>
<linearGradient id="paint47_linear" x1="6305.14" y1="5891.26" x2="15830.4" y2="-1143.7" gradientUnits="userSpaceOnUse">
<stop stop-color="white"/>
<stop offset="1" stop-color="white" stop-opacity="0"/>
</linearGradient>
<linearGradient id="paint48_linear" x1="6986.14" y1="6763.49" x2="16511.2" y2="-270.795" gradientUnits="userSpaceOnUse">
<stop stop-color="white"/>
<stop offset="1" stop-color="white" stop-opacity="0"/>
</linearGradient>
<linearGradient id="paint49_linear" x1="8218.39" y1="8014.34" x2="17743.5" y2="979.655" gradientUnits="userSpaceOnUse">
<stop stop-color="white"/>
<stop offset="1" stop-color="white" stop-opacity="0"/>
</linearGradient>
<linearGradient id="paint50_linear" x1="9149.97" y1="9183.66" x2="18675.3" y2="2148.92" gradientUnits="userSpaceOnUse">
<stop stop-color="white"/>
<stop offset="1" stop-color="white" stop-opacity="0"/>
</linearGradient>
<linearGradient id="paint51_linear" x1="7901.23" y1="7514.95" x2="17426.5" y2="480.08" gradientUnits="userSpaceOnUse">
<stop stop-color="white"/>
<stop offset="1" stop-color="white" stop-opacity="0"/>
</linearGradient>
<linearGradient id="paint52_linear" x1="8799.23" y1="8958.45" x2="18324.4" y2="1923.49" gradientUnits="userSpaceOnUse">
<stop stop-color="white"/>
<stop offset="1" stop-color="white" stop-opacity="0"/>
</linearGradient>
<linearGradient id="paint53_linear" x1="8961.19" y1="9313.53" x2="18486.3" y2="2278.95" gradientUnits="userSpaceOnUse">
<stop stop-color="white"/>
<stop offset="1" stop-color="white" stop-opacity="0"/>
</linearGradient>
<linearGradient id="paint54_linear" x1="9524.94" y1="10099.6" x2="19050" y2="3065.19" gradientUnits="userSpaceOnUse">
<stop stop-color="white"/>
<stop offset="1" stop-color="white" stop-opacity="0"/>
</linearGradient>
<clipPath id="clip0">
<rect width="1088" height="888" fill="white"/>
</clipPath>
</defs>
</svg>