<svg width="1440" height="803" viewBox="0 0 1440 803" fill="none" xmlns="http://www.w3.org/2000/svg">
<rect width="1440" height="803" fill="#EDEDF1"/>
<g style="mix-blend-mode:multiply" opacity="0.75">
<path d="M806.429 261.276L735.691 640.655L906.617 672.514L977.354 293.134L806.429 261.276Z" fill="#F7F7F9"/>
<path d="M712.405 568.95H670.914V543.476C670.914 542.606 670.568 541.771 669.953 541.156C669.338 540.541 668.503 540.195 667.633 540.195C666.763 540.195 665.928 540.541 665.313 541.156C664.697 541.771 664.352 542.606 664.352 543.476V572.231C664.352 573.101 664.697 573.935 665.313 574.55C665.928 575.166 666.763 575.511 667.633 575.511H709.123V597.705H667.633C666.763 597.705 665.928 598.05 665.313 598.665C664.697 599.281 664.352 600.115 664.352 600.985C664.352 601.855 664.697 602.69 665.313 603.305C665.928 603.92 666.763 604.266 667.633 604.266H712.405C713.275 604.266 714.109 603.92 714.725 603.305C715.34 602.69 715.686 601.855 715.686 600.985V572.231C715.686 571.36 715.34 570.526 714.725 569.911C714.109 569.296 713.275 568.95 712.405 568.95Z" fill="#EBEBEF"/>
<path d="M678.567 515.451V486.696C678.567 485.826 678.221 484.992 677.606 484.377C676.991 483.761 676.156 483.416 675.286 483.416H633.795V457.942C633.795 457.072 633.45 456.237 632.834 455.622C632.219 455.007 631.384 454.661 630.514 454.661H585.742C584.872 454.661 584.037 455.007 583.422 455.622C582.807 456.237 582.461 457.072 582.461 457.942C582.461 458.812 582.807 459.646 583.422 460.262C584.037 460.877 584.872 461.222 585.742 461.222H627.233V486.696C627.233 487.566 627.579 488.401 628.194 489.016C628.809 489.631 629.644 489.977 630.514 489.977H672.005V512.17H630.514C629.644 512.17 628.809 512.516 628.194 513.131C627.579 513.746 627.233 514.581 627.233 515.451C627.233 516.321 627.579 517.155 628.194 517.771C628.809 518.386 629.644 518.732 630.514 518.732H675.286C676.156 518.732 676.991 518.386 677.606 517.771C678.221 517.155 678.567 516.321 678.567 515.451Z" fill="#EBEBEF"/>
<path d="M721.061 420.739C721.931 420.739 722.766 420.394 723.381 419.779C723.996 419.163 724.342 418.329 724.342 417.459C724.342 416.589 723.996 415.754 723.381 415.139C722.766 414.524 721.931 414.178 721.061 414.178H676.289C675.419 414.178 674.584 414.524 673.969 415.139C673.354 415.754 673.008 416.589 673.008 417.459V446.246C673.008 447.116 673.354 447.951 673.969 448.566C674.584 449.181 675.419 449.527 676.289 449.527H721.061C721.931 449.527 722.766 449.181 723.381 448.566C723.996 447.951 724.342 447.116 724.342 446.246C724.342 445.376 723.996 444.542 723.381 443.927C722.766 443.311 721.931 442.966 721.061 442.966H679.57V420.739H721.061Z" fill="#EBEBEF"/>
<path d="M676.287 354.93C675.417 354.93 674.583 355.276 673.967 355.891C673.352 356.506 673.006 357.341 673.006 358.211V383.455H631.516C630.645 383.455 629.811 383.801 629.195 384.416C628.58 385.031 628.234 385.866 628.234 386.736V415.499C628.234 416.369 628.58 417.203 629.195 417.818C629.811 418.434 630.645 418.779 631.516 418.779C632.386 418.779 633.22 418.434 633.836 417.818C634.451 417.203 634.797 416.369 634.797 415.499V390.016H675.082C675.579 390.213 676.117 390.285 676.649 390.226C677.181 390.167 677.69 389.979 678.133 389.678C678.575 389.377 678.937 388.973 679.187 388.5C679.438 388.027 679.569 387.5 679.569 386.965V358.211C679.569 357.341 679.223 356.506 678.608 355.891C677.992 355.276 677.158 354.93 676.287 354.93Z" fill="#EBEBEF"/>
<path d="M721.061 190.366H679.57V164.892C679.57 164.022 679.225 163.188 678.609 162.573C677.994 161.957 677.159 161.612 676.289 161.612C675.419 161.612 674.584 161.957 673.969 162.573C673.354 163.188 673.008 164.022 673.008 164.892V193.647C673.008 194.517 673.354 195.352 673.969 195.967C674.584 196.582 675.419 196.928 676.289 196.928H721.061C721.931 196.928 722.766 196.582 723.381 195.967C723.996 195.352 724.342 194.517 724.342 193.647C724.342 192.777 723.996 191.943 723.381 191.327C722.766 190.712 721.931 190.366 721.061 190.366Z" fill="#EBEBEF"/>
<path d="M765.841 57.5095H724.342V32.0355C724.342 31.1654 723.996 30.331 723.381 29.7158C722.766 29.1005 721.931 28.7549 721.061 28.7549H676.289C675.419 28.7549 674.584 29.1005 673.969 29.7158C673.354 30.331 673.008 31.1654 673.008 32.0355V60.7901C673.008 61.6602 673.354 62.4947 673.969 63.1099C674.584 63.7251 675.419 64.0708 676.289 64.0708C677.159 64.0708 677.994 63.7251 678.609 63.1099C679.225 62.4947 679.57 61.6602 679.57 60.7901V35.3161H717.78V60.7901C717.78 61.6602 718.125 62.4947 718.741 63.1099C719.356 63.7251 720.191 64.0708 721.061 64.0708H765.841C766.711 64.0708 767.546 63.7251 768.161 63.1099C768.777 62.4947 769.122 61.6602 769.122 60.7901C769.122 59.9201 768.777 59.0856 768.161 58.4704C767.546 57.8552 766.711 57.5095 765.841 57.5095Z" fill="#EBEBEF"/>
<path d="M765.839 115.019H724.34V89.5448C724.34 88.6747 723.994 87.8403 723.379 87.225C722.763 86.6098 721.929 86.2642 721.059 86.2642C720.188 86.2642 719.354 86.6098 718.738 87.225C718.123 87.8403 717.777 88.6747 717.777 89.5448V118.299C717.777 119.17 718.123 120.004 718.738 120.619C719.354 121.234 720.188 121.58 721.059 121.58H765.839C766.709 121.58 767.543 121.234 768.159 120.619C768.774 120.004 769.12 119.17 769.12 118.299C769.12 117.429 768.774 116.595 768.159 115.98C767.543 115.364 766.709 115.019 765.839 115.019Z" fill="#EBEBEF"/>
<path d="M1087.74 64.0705C1088.61 64.0705 1089.45 63.7249 1090.06 63.1097C1090.68 62.4944 1091.02 61.66 1091.02 60.7899V35.3159H1177.29C1178.16 35.3159 1178.99 34.9703 1179.61 34.355C1180.22 33.7398 1180.57 32.9053 1180.57 32.0353C1180.57 31.1652 1180.22 30.3308 1179.61 29.7155C1178.99 29.1003 1178.16 28.7546 1177.29 28.7546H1135.8V3.28062C1135.8 2.41055 1135.45 1.57611 1134.83 0.960872C1134.22 0.345636 1133.38 0 1132.51 0C1131.64 0 1130.81 0.345636 1130.19 0.960872C1129.58 1.57611 1129.23 2.41055 1129.23 3.28062V28.7546H1087.74C1086.87 28.7546 1086.04 29.1003 1085.42 29.7155C1084.81 30.3308 1084.46 31.1652 1084.46 32.0353V60.7899C1084.46 61.66 1084.81 62.4944 1085.42 63.1097C1086.04 63.7249 1086.87 64.0705 1087.74 64.0705Z" fill="#EBEBEF"/>
<path d="M1087.27 246.276H1132.04C1132.91 246.276 1133.74 245.931 1134.36 245.315C1134.97 244.7 1135.32 243.866 1135.32 242.996C1135.32 242.126 1134.97 241.291 1134.36 240.676C1133.74 240.061 1132.91 239.715 1132.04 239.715H1090.55V217.522H1176.81C1177.68 217.522 1178.51 217.176 1179.13 216.561C1179.75 215.946 1180.09 215.111 1180.09 214.241V185.486C1180.09 184.616 1179.75 183.782 1179.13 183.167C1178.51 182.551 1177.68 182.206 1176.81 182.206H1090.55V156.732C1090.55 155.862 1090.2 155.027 1089.59 154.412C1088.97 153.797 1088.14 153.451 1087.27 153.451C1086.4 153.451 1085.56 153.797 1084.95 154.412C1084.33 155.027 1083.98 155.862 1083.98 156.732V185.486C1083.98 186.357 1084.33 187.191 1084.95 187.806C1085.56 188.421 1086.4 188.767 1087.27 188.767H1173.53V210.96H1087.27C1086.4 210.96 1085.56 211.306 1084.95 211.921C1084.33 212.537 1083.98 213.371 1083.98 214.241V242.996C1083.98 243.866 1084.33 244.7 1084.95 245.315C1085.56 245.931 1086.4 246.276 1087.27 246.276Z" fill="#EBEBEF"/>
<path d="M998.187 568.95C997.317 568.95 996.483 569.296 995.867 569.911C995.252 570.526 994.906 571.361 994.906 572.231C994.906 573.101 995.252 573.935 995.867 574.55C996.483 575.166 997.317 575.511 998.187 575.511H1087.74C1088.61 575.511 1089.44 575.166 1090.06 574.55C1090.67 573.935 1091.02 573.101 1091.02 572.231C1091.02 571.361 1090.67 570.526 1090.06 569.911C1089.44 569.296 1088.61 568.95 1087.74 568.95H1046.25V546.757H1087.74C1088.61 546.757 1089.44 546.411 1090.06 545.796C1090.67 545.18 1091.02 544.346 1091.02 543.476C1091.02 542.606 1090.67 541.771 1090.06 541.156C1089.44 540.541 1088.61 540.195 1087.74 540.195H998.187C997.317 540.195 996.483 540.541 995.867 541.156C995.252 541.771 994.906 542.606 994.906 543.476C994.906 544.346 995.252 545.18 995.867 545.796C996.483 546.411 997.317 546.757 998.187 546.757H1039.69V568.95H998.187Z" fill="#EBEBEF"/>
<path d="M1042.97 597.705H998.187C997.317 597.705 996.483 598.05 995.867 598.665C995.252 599.281 994.906 600.115 994.906 600.985C994.906 601.855 995.252 602.69 995.867 603.305C996.483 603.92 997.317 604.266 998.187 604.266H1039.69V626.459H998.187C997.317 626.459 996.483 626.805 995.867 627.42C995.252 628.035 994.906 628.87 994.906 629.74C994.906 630.61 995.252 631.444 995.867 632.06C996.483 632.675 997.317 633.02 998.187 633.02H1042.97C1043.84 633.02 1044.67 632.675 1045.29 632.06C1045.9 631.444 1046.25 630.61 1046.25 629.74V600.985C1046.25 600.115 1045.9 599.281 1045.29 598.665C1044.67 598.05 1043.84 597.705 1042.97 597.705Z" fill="#EBEBEF"/>
<path d="M1213.99 568.95H1176.09C1175.22 568.95 1174.39 569.296 1173.77 569.911C1173.16 570.526 1172.81 571.361 1172.81 572.231V597.705H1131.29C1130.42 597.705 1129.58 598.05 1128.97 598.666C1128.35 599.281 1128.01 600.115 1128.01 600.985C1128.01 601.856 1128.35 602.69 1128.97 603.305C1129.58 603.92 1130.42 604.266 1131.29 604.266H1176.06C1176.93 604.266 1177.77 603.92 1178.38 603.305C1179 602.69 1179.34 601.856 1179.34 600.985V575.511H1213.96L1213.99 568.95Z" fill="#EBEBEF"/>
<path d="M586.742 225.682C587.612 225.682 588.447 225.336 589.062 224.721C589.678 224.106 590.023 223.272 590.023 222.401V196.927H628.233V222.401C628.233 223.272 628.579 224.106 629.194 224.721C629.809 225.336 630.644 225.682 631.514 225.682H673.005V251.156C673.005 252.026 673.35 252.861 673.966 253.476C674.581 254.091 675.416 254.437 676.286 254.437C677.156 254.437 677.991 254.091 678.606 253.476C679.221 252.861 679.567 252.026 679.567 251.156V222.401C679.567 221.531 679.221 220.697 678.606 220.082C677.991 219.466 677.156 219.121 676.286 219.121H634.795V193.647C634.795 192.777 634.45 191.942 633.834 191.327C633.219 190.712 632.384 190.366 631.514 190.366H586.742C585.872 190.366 585.037 190.712 584.422 191.327C583.807 191.942 583.461 192.777 583.461 193.647V222.401C583.461 223.272 583.807 224.106 584.422 224.721C585.037 225.336 585.872 225.682 586.742 225.682Z" fill="#EBEBEF"/>
<path d="M1173.53 127.944V156.732C1173.53 157.602 1173.87 158.436 1174.49 159.051C1175.1 159.667 1175.94 160.012 1176.81 160.012C1177.68 160.012 1178.51 159.667 1179.13 159.051C1179.74 158.436 1180.09 157.602 1180.09 156.732V127.944C1180.09 127.074 1179.74 126.24 1179.13 125.624C1178.51 125.009 1177.68 124.664 1176.81 124.664C1175.94 124.664 1175.1 125.009 1174.49 125.624C1173.87 126.24 1173.53 127.074 1173.53 127.944Z" fill="#EBEBEF"/>
<path d="M1132.51 626.459H1087.74C1086.87 626.459 1086.04 626.805 1085.42 627.42C1084.81 628.035 1084.46 628.87 1084.46 629.74C1084.46 630.61 1084.81 631.444 1085.42 632.059C1086.04 632.675 1086.87 633.02 1087.74 633.02H1129.23V658.494C1129.23 659.364 1129.58 660.199 1130.19 660.814C1130.81 661.429 1131.64 661.775 1132.51 661.775C1133.38 661.775 1134.22 661.429 1134.83 660.814C1135.45 660.199 1135.8 659.364 1135.8 658.494V629.74C1135.8 628.87 1135.45 628.035 1134.83 627.42C1134.22 626.805 1133.38 626.459 1132.51 626.459Z" fill="#EBEBEF"/>
<path d="M501.784 414.375L540.1 534.118C539.428 532.022 537.952 530.279 535.996 529.27C534.04 528.261 531.763 528.07 529.666 528.738L451.582 553.72C449.484 554.391 447.738 555.868 446.729 557.826C445.72 559.784 445.53 562.062 446.2 564.16L407.884 444.417C405.911 438.253 405.172 431.76 405.709 425.31C406.245 418.86 408.048 412.579 411.012 406.825C416.999 395.205 427.358 386.439 439.81 382.455C452.262 378.471 465.787 379.596 477.409 385.582C489.031 391.568 497.799 401.925 501.784 414.375V414.375Z" fill="#EBEBEF"/>
<path opacity="0.5" d="M501.785 414.375C498.712 404.769 492.765 396.336 484.747 390.216C476.729 384.096 467.025 380.582 456.947 380.15C471.565 386.384 484.017 399.834 489.759 417.599L522.226 519.159L445.692 543.648C443.642 544.299 441.927 545.723 440.91 547.618L446.201 564.144C445.531 562.046 445.721 559.768 446.73 557.81C447.739 555.852 449.484 554.375 451.582 553.703L525.696 530.001L529.666 528.73C530.704 528.397 531.798 528.271 532.884 528.361C533.97 528.451 535.028 528.754 535.997 529.253C536.967 529.752 537.828 530.437 538.532 531.269C539.236 532.101 539.769 533.064 540.101 534.102L501.785 414.375Z" fill="#C4C6D1"/>
<path d="M405.918 435.503C406.299 438.52 406.958 441.497 407.887 444.393L441.306 548.815C439.71 543.857 436.214 539.733 431.583 537.347C426.952 534.961 421.563 534.508 416.599 536.086L413.227 537.202C409.844 538.284 406.821 540.269 404.483 542.943C404.483 542.943 377.331 498.4 368.833 471.86C360.334 445.32 358.111 422.733 376.306 416.91C399.906 409.315 405.918 435.503 405.918 435.503Z" fill="#EBEBEF"/>
<path d="M498.207 405.977C499.65 408.655 500.842 411.461 501.767 414.359L535.186 518.781C533.607 513.818 534.059 508.432 536.444 503.802C538.828 499.172 542.951 495.675 547.909 494.078L551.288 492.995C554.661 491.913 558.264 491.766 561.714 492.569C561.714 492.569 557.966 440.538 549.476 413.998C540.986 387.458 529.674 367.774 511.488 373.589C487.888 381.167 498.207 405.977 498.207 405.977Z" fill="#EBEBEF"/>
<path opacity="0.3" d="M431.084 537.111C432.239 537.666 433.338 538.33 434.365 539.096L434.456 539.162C435.119 539.671 435.752 540.218 436.351 540.802L436.465 540.917C436.728 541.179 436.974 541.442 437.22 541.737L437.343 541.876C437.622 542.188 437.884 542.508 438.163 542.836L438.204 542.893C438.434 543.189 438.656 543.5 438.861 543.812L439.033 544.066C439.222 544.353 439.402 544.64 439.566 544.936C439.609 544.995 439.648 545.058 439.681 545.124C439.878 545.469 440.066 545.83 440.247 546.19C440.288 546.281 440.329 546.379 440.378 546.477C440.509 546.756 440.632 547.043 440.756 547.339L440.895 547.675C441.043 548.06 441.182 548.446 441.313 548.848L434.702 528.18L407.886 444.417C406.956 441.521 406.297 438.545 405.917 435.527C405.917 435.527 399.905 409.282 376.305 416.86C375.467 417.126 374.645 417.441 373.844 417.803C391.07 417.5 395.738 437.823 395.738 437.823C396.114 440.838 396.77 443.812 397.698 446.706L422.586 524.473C422.069 524.473 421.544 524.423 421.011 524.423C412.808 524.423 404.876 528.524 399.683 534.831C402.587 539.826 404.449 542.885 404.449 542.885C406.789 540.214 409.812 538.229 413.193 537.144L416.565 536.061C419.645 535.071 422.923 534.859 426.105 535.446V535.446C427.832 535.776 429.507 536.336 431.084 537.111V537.111Z" fill="#C4C6D1"/>
<path opacity="0.3" d="M552.709 492.634H552.75C553.168 492.528 553.57 492.446 554.005 492.372H554.12C554.513 492.306 554.94 492.249 555.309 492.208H555.555L556.605 492.134H557.901H558.426L559.189 492.183L559.862 492.274C560.059 492.274 560.264 492.274 560.46 492.347C560.879 492.421 561.281 492.503 561.716 492.602C561.716 492.602 561.396 488.14 560.723 481.169C559.082 464.323 555.481 432.78 549.477 414.039C540.978 387.491 529.675 367.807 511.489 373.622C510.34 373.985 509.214 374.418 508.117 374.918C522.431 375.369 531.906 393.256 539.289 416.335C545.195 434.781 548.804 465.545 550.453 482.596C545.803 483.23 541.38 484.994 537.57 487.734C533.761 490.473 530.681 494.105 528.6 498.31L535.162 518.814C533.583 513.851 534.035 508.465 536.42 503.835C538.805 499.205 542.927 495.708 547.885 494.111L551.265 493.036L551.429 492.987C551.856 492.851 552.282 492.733 552.709 492.634Z" fill="#C4C6D1"/>
<path d="M416.587 536.131L413.204 537.213C402.87 540.518 397.172 551.574 400.478 561.906L400.481 561.914C403.787 572.247 414.845 577.943 425.179 574.638L428.562 573.556C438.896 570.25 444.594 559.195 441.288 548.862L441.285 548.854C437.979 538.522 426.921 532.825 416.587 536.131Z" fill="#EBEBEF"/>
<path d="M559.897 531.509L563.28 530.427C573.615 527.122 579.312 516.066 576.006 505.733L576.004 505.725C572.697 495.393 561.64 489.696 551.305 493.002L547.922 494.084C537.588 497.389 531.891 508.445 535.197 518.778L535.199 518.786C538.505 529.118 549.563 534.815 559.897 531.509Z" fill="#EBEBEF"/>
<g opacity="0.3">
<path opacity="0.3" d="M442.236 554.827C442.23 558.99 440.903 563.043 438.448 566.404C435.992 569.765 432.534 572.262 428.57 573.535L425.199 574.617C421.19 575.898 416.876 575.86 412.89 574.509C408.904 573.159 405.455 570.567 403.051 567.113C405.53 568.84 408.374 569.972 411.362 570.42C414.35 570.868 417.401 570.62 420.277 569.697L423.648 568.614C426.107 567.829 428.387 566.568 430.357 564.902C432.328 563.236 433.951 561.198 435.133 558.905C436.316 556.611 437.034 554.107 437.248 551.536C437.462 548.965 437.167 546.376 436.38 543.919C435.791 542.068 434.928 540.315 433.82 538.719C436.418 540.526 438.541 542.935 440.006 545.74C441.472 548.545 442.237 551.663 442.236 554.827V554.827Z" fill="#C4C6D1"/>
<path opacity="0.3" d="M563.262 530.452L559.882 531.527C555.873 532.821 551.554 532.789 547.565 531.436C543.575 530.083 540.128 527.48 537.734 524.014C540.21 525.748 543.054 526.885 546.043 527.334C549.032 527.784 552.084 527.535 554.961 526.606L558.34 525.531C563.298 523.934 567.421 520.437 569.805 515.807C572.19 511.177 572.642 505.791 571.063 500.828C570.475 498.972 569.61 497.217 568.496 495.62C571.504 497.713 573.867 500.605 575.317 503.97C576.767 507.335 577.247 511.038 576.703 514.662C576.158 518.285 574.611 521.684 572.236 524.475C569.861 527.265 566.752 529.335 563.262 530.452V530.452Z" fill="#C4C6D1"/>
</g>
<path d="M441.106 548.241L441.303 548.84C441.237 548.635 441.163 548.438 441.098 548.241H441.106Z" fill="#EBEBEF"/>
<path d="M440.054 563.824C441.238 561.531 441.958 559.028 442.172 556.456C442.386 553.885 442.09 551.297 441.301 548.84L456.739 597.073C457.038 598.003 457.15 598.983 457.07 599.956C456.989 600.93 456.718 601.878 456.27 602.746C455.823 603.615 455.209 604.386 454.463 605.017C453.717 605.648 452.855 606.126 451.924 606.423L434.501 611.992C433.571 612.29 432.592 612.402 431.619 612.322C430.646 612.241 429.698 611.97 428.83 611.523C427.962 611.075 427.191 610.461 426.561 609.716C425.931 608.97 425.454 608.108 425.158 607.177L414.871 575.052C418.292 575.83 421.859 575.674 425.199 574.601L428.57 573.518C431.029 572.738 433.309 571.48 435.28 569.817C437.25 568.153 438.873 566.117 440.054 563.824V563.824Z" fill="#D9DAE1"/>
<path d="M535.009 518.199C535.066 518.404 535.123 518.601 535.189 518.806L534.992 518.207L535.009 518.199Z" fill="#EBEBEF"/>
<path d="M571.929 524.826L582.215 556.951C582.814 558.829 582.643 560.868 581.74 562.621C580.838 564.374 579.277 565.697 577.4 566.301L559.977 571.87C559.047 572.168 558.067 572.281 557.093 572.2C556.12 572.12 555.171 571.848 554.303 571.401C553.434 570.954 552.663 570.34 552.032 569.594C551.401 568.849 550.923 567.986 550.626 567.055L535.188 518.806C536.776 523.767 540.27 527.895 544.902 530.28C549.534 532.666 554.924 533.114 559.887 531.526L563.266 530.444C566.606 529.383 569.598 527.442 571.929 524.826V524.826Z" fill="#D9DAE1"/>
<path opacity="0.5" d="M447.39 567.867C442.969 577.193 432.895 583.877 422.502 583.877C420.851 583.874 419.204 583.72 417.58 583.418L414.906 575.068C418.327 575.847 421.894 575.691 425.234 574.617L428.605 573.535C431.064 572.75 433.343 571.489 435.314 569.823C437.285 568.157 438.908 566.119 440.09 563.825C441.272 561.532 441.991 559.028 442.205 556.457C442.419 553.885 442.124 551.297 441.336 548.84L447.39 567.867Z" fill="#C4C6D1"/>
<path opacity="0.5" d="M574.994 534.397C569.802 540.236 562.165 544.017 554.347 544.017C550.168 544.04 546.043 543.067 542.314 541.179L535.152 518.806C536.741 523.767 540.235 527.895 544.867 530.28C549.499 532.666 554.889 533.114 559.852 531.526L563.231 530.452C566.57 529.385 569.561 527.442 571.894 524.826L574.994 534.397Z" fill="#C4C6D1"/>
<path d="M559.979 571.87L451.93 606.439C452.86 606.142 453.723 605.664 454.469 605.033C455.215 604.403 455.829 603.631 456.276 602.762C456.723 601.894 456.995 600.946 457.075 599.973C457.156 598.999 457.043 598.019 456.745 597.089L452.734 584.549L546.617 554.515L550.628 567.055C550.925 567.986 551.403 568.849 552.034 569.594C552.665 570.34 553.437 570.954 554.305 571.401C555.174 571.848 556.122 572.12 557.096 572.2C558.069 572.281 559.049 572.168 559.979 571.87V571.87Z" fill="#EBEBEF"/>
<path d="M451.547 553.698L529.638 528.721C531.735 528.05 534.012 528.239 535.969 529.248C537.926 530.256 539.403 532 540.074 534.097L546.6 554.493L452.696 584.528L446.18 564.164C445.843 563.124 445.714 562.028 445.802 560.939C445.889 559.85 446.191 558.789 446.69 557.816C447.188 556.844 447.874 555.98 448.708 555.273C449.541 554.566 450.506 554.031 451.547 553.698V553.698Z" fill="#EBEBEF"/>
<path opacity="0.3" d="M544.095 546.721L450.191 576.757L452.693 584.576L546.597 554.541L544.095 546.721Z" fill="#C4C6D1"/>
<path d="M561.281 571.473L576.056 566.747L580.077 579.316C580.704 581.274 580.526 583.4 579.585 585.227C578.643 587.055 577.014 588.433 575.056 589.059V589.059C573.098 589.686 570.971 589.509 569.143 588.567C567.316 587.626 565.937 585.997 565.311 584.039L561.289 571.47L561.281 571.473Z" fill="#D9DAE1"/>
<path d="M435.805 611.611L450.579 606.885L454.601 619.454C454.911 620.423 455.027 621.444 454.942 622.459C454.858 623.473 454.574 624.461 454.108 625.366C453.642 626.27 453.002 627.074 452.225 627.732C451.448 628.389 450.549 628.887 449.579 629.197C448.61 629.508 447.588 629.624 446.574 629.539C445.56 629.455 444.572 629.171 443.667 628.705C442.762 628.239 441.958 627.599 441.3 626.822C440.642 626.045 440.144 625.147 439.834 624.177L435.813 611.608L435.805 611.611Z" fill="#D9DAE1"/>
<path opacity="0.5" d="M564.414 579.752C566.917 577.25 570.026 575.439 573.437 574.494L578.359 573.838L576.07 566.728L561.305 571.46L564.102 580.178L564.414 579.752Z" fill="#C4C6D1"/>
<path opacity="0.5" d="M438.703 619.611C442.564 616.062 447.528 613.945 452.763 613.616L450.605 606.857L435.84 611.59L438.481 619.791L438.703 619.611Z" fill="#C4C6D1"/>
<path d="M465.633 434.608C464.57 434.325 463.46 434.266 462.374 434.437C461.288 434.608 460.249 435.004 459.325 435.601C458.728 433.455 457.679 431.461 456.249 429.753C455.951 429.447 455.545 429.269 455.118 429.258C454.691 429.246 454.276 429.402 453.962 429.692C453.648 429.981 453.459 430.382 453.436 430.808C453.412 431.235 453.556 431.654 453.837 431.976C455.028 433.468 455.869 435.208 456.298 437.069C454.756 437.069 452.713 437.553 450.408 439.652C450.163 439.875 449.991 440.167 449.915 440.49C449.839 440.812 449.862 441.15 449.982 441.459C450.102 441.768 450.313 442.034 450.586 442.221C450.86 442.408 451.184 442.507 451.516 442.506C451.922 442.505 452.314 442.353 452.615 442.08C455.15 439.775 456.766 440.341 457.184 440.554C458.177 442.028 458.605 443.81 458.39 445.574C458.36 446.008 458.505 446.435 458.791 446.763C459.077 447.091 459.481 447.291 459.915 447.321H460.022C460.439 447.322 460.841 447.163 461.146 446.879C461.451 446.594 461.636 446.203 461.663 445.787C461.867 443.503 461.36 441.211 460.211 439.226C460.818 438.406 462.171 437.241 464.911 437.84C465.336 437.932 465.781 437.852 466.147 437.617C466.513 437.381 466.771 437.01 466.863 436.585C466.956 436.16 466.876 435.715 466.64 435.349C466.405 434.983 466.034 434.725 465.608 434.633L465.633 434.608Z" fill="#D9DAE1"/>
<path d="M482.55 490.773C480.633 490.634 478.715 491.025 477.005 491.904C476.594 489.875 475.562 488.024 474.052 486.606C473.714 486.342 473.286 486.221 472.86 486.268C472.434 486.316 472.043 486.528 471.772 486.86C471.499 487.195 471.369 487.624 471.41 488.054C471.452 488.484 471.661 488.88 471.993 489.157C473.034 490.233 473.706 491.611 473.913 493.094C472.222 493.236 470.615 493.895 469.311 494.98C469.049 495.194 468.859 495.483 468.768 495.809C468.677 496.135 468.688 496.481 468.802 496.8C468.915 497.119 469.124 497.395 469.4 497.59C469.676 497.786 470.006 497.891 470.344 497.892C470.724 497.893 471.092 497.762 471.386 497.522C472.389 496.672 473.684 496.248 474.996 496.341C475.533 496.974 475.935 497.71 476.176 498.505C476.418 499.299 476.493 500.134 476.398 500.959C476.369 501.393 476.513 501.821 476.799 502.148C477.085 502.476 477.49 502.676 477.924 502.706H478.039C478.456 502.707 478.858 502.549 479.163 502.264C479.468 501.979 479.652 501.588 479.679 501.172C479.876 499.004 479.326 496.834 478.121 495.021C479.406 494.273 480.887 493.93 482.37 494.037C482.803 494.062 483.227 493.914 483.552 493.627C483.876 493.339 484.073 492.935 484.101 492.503C484.113 492.288 484.083 492.072 484.011 491.868C483.94 491.664 483.829 491.477 483.685 491.316C483.541 491.155 483.367 491.025 483.172 490.931C482.977 490.838 482.766 490.784 482.55 490.773V490.773Z" fill="#D9DAE1"/>
<path d="M589.141 345.499L603.209 337.961C603.209 337.961 609.263 343.825 612.47 342.062C617.753 339.183 619.032 328.505 630.418 322.419L632.157 326.717C632.157 326.717 621.887 335.739 620.771 347.746C619.812 358.145 614.668 362.271 609.418 364.026C605.719 365.232 590.478 364.895 589.141 345.499Z" fill="#EBEBEF"/>
<path opacity="0.3" d="M632.152 326.734C632.152 326.734 621.882 335.739 620.766 347.746C619.807 358.154 614.663 362.271 609.413 364.034C606.485 365.018 596.289 365.002 591.539 355.316C596.272 358.351 601.67 358.146 603.671 357.473C608.921 355.71 614.064 351.593 615.024 341.185C615.073 340.635 615.147 340.102 615.237 339.544C618.658 335.148 621.3 327.316 630.413 322.436L632.152 326.734Z" fill="#C4C6D1"/>
<path d="M1022.65 394.183H1069.1C1070.07 394.183 1071.01 394.568 1071.69 395.254C1072.38 395.94 1072.76 396.871 1072.76 397.841V456.072H1018.91V397.956C1018.91 396.96 1019.3 396.004 1020 395.297C1020.7 394.59 1021.65 394.19 1022.65 394.183V394.183Z" fill="#D9DAE1"/>
<path d="M1058.13 412.104H1033.52V426.817H1058.13V412.104Z" fill="#EBEBEF"/>
<path d="M983.954 75.4299C985.553 75.4299 986.85 74.1337 986.85 72.5348C986.85 70.9359 985.553 69.6396 983.954 69.6396C982.355 69.6396 981.059 70.9359 981.059 72.5348C981.059 74.1337 982.355 75.4299 983.954 75.4299Z" fill="#EBEBEF"/>
<path d="M567.614 245.891C569.214 245.891 570.51 244.595 570.51 242.996C570.51 241.397 569.214 240.101 567.614 240.101C566.015 240.101 564.719 241.397 564.719 242.996C564.719 244.595 566.015 245.891 567.614 245.891Z" fill="#EBEBEF"/>
<path d="M537.427 290.794C539.026 290.794 540.323 289.498 540.323 287.899C540.323 286.3 539.026 285.004 537.427 285.004C535.828 285.004 534.531 286.3 534.531 287.899C534.531 289.498 535.828 290.794 537.427 290.794Z" fill="#EBEBEF"/>
<path d="M561.818 303.753C563.417 303.753 564.713 302.457 564.713 300.858C564.713 299.259 563.417 297.962 561.818 297.962C560.218 297.962 558.922 299.259 558.922 300.858C558.922 302.457 560.218 303.753 561.818 303.753Z" fill="#EBEBEF"/>
<path d="M954.083 86.1653C955.682 86.1653 956.979 84.8691 956.979 83.2701C956.979 81.6712 955.682 80.375 954.083 80.375C952.484 80.375 951.188 81.6712 951.188 83.2701C951.188 84.8691 952.484 86.1653 954.083 86.1653Z" fill="#EBEBEF"/>
<path d="M976.798 126.993C978.397 126.993 979.694 125.697 979.694 124.098C979.694 122.499 978.397 121.203 976.798 121.203C975.199 121.203 973.902 122.499 973.902 124.098C973.902 125.697 975.199 126.993 976.798 126.993Z" fill="#EBEBEF"/>
<path d="M923.142 52.2029C924.741 52.2029 926.037 50.9067 926.037 49.3077C926.037 47.7088 924.741 46.4126 923.142 46.4126C921.543 46.4126 920.246 47.7088 920.246 49.3077C920.246 50.9067 921.543 52.2029 923.142 52.2029Z" fill="#EBEBEF"/>
<path d="M935.79 106.817C937.389 106.817 938.686 105.521 938.686 103.922C938.686 102.323 937.389 101.027 935.79 101.027C934.191 101.027 932.895 102.323 932.895 103.922C932.895 105.521 934.191 106.817 935.79 106.817Z" fill="#EBEBEF"/>
<path d="M597.9 322.428C599.499 322.428 600.795 321.131 600.795 319.532C600.795 317.933 599.499 316.637 597.9 316.637C596.3 316.637 595.004 317.933 595.004 319.532C595.004 321.131 596.3 322.428 597.9 322.428Z" fill="#EBEBEF"/>
<path d="M610.646 296.019C612.245 296.019 613.541 294.723 613.541 293.124C613.541 291.525 612.245 290.229 610.646 290.229C609.046 290.229 607.75 291.525 607.75 293.124C607.75 294.723 609.046 296.019 610.646 296.019Z" fill="#EBEBEF"/>
<path d="M998.181 121.194C999.78 121.194 1001.08 119.898 1001.08 118.299C1001.08 116.7 999.78 115.404 998.181 115.404C996.582 115.404 995.285 116.7 995.285 118.299C995.285 119.898 996.582 121.194 998.181 121.194Z" fill="#EBEBEF"/>
<path d="M1080.96 468.99H1027.09L1018.88 456.064H1072.76L1080.96 468.99Z" fill="#EBEBEF"/>
<path opacity="0.3" d="M1080.96 468.99H1027.09L1018.88 456.064H1072.76L1080.96 468.99Z" fill="#C4C6D1"/>
<path d="M1057.57 293.378L1040.24 353.791C1040.24 353.791 1070.02 350.338 1092.84 368.898L1110.19 308.485C1087.36 289.925 1057.57 293.378 1057.57 293.378Z" fill="#EBEBEF"/>
<path opacity="0.5" d="M1057.57 293.378L1040.24 353.791C1040.24 353.791 1070.02 350.338 1092.84 368.898L1110.19 308.485C1087.36 289.925 1057.57 293.378 1057.57 293.378Z" fill="#D9DAE1"/>
<path d="M1077.55 294.329C1079.26 294.501 1075.65 294.001 1077.55 294.329V294.329Z" fill="#D9DAE1"/>
<path opacity="0.3" d="M1089.82 364.6C1073.57 343.383 1047.66 337.986 1047.66 337.986L1077.55 294.329L1049.46 344.195C1055.43 346.032 1061.06 348.607 1071.68 357.538C1077.35 359.4 1087.2 365.035 1092.83 368.898L1089.82 364.6Z" fill="#C4C6D1"/>
<path d="M1072.76 397.374L1080.96 407.601V468.989L1072.76 456.064V397.374Z" fill="#EBEBEF"/>
<path d="M1072.76 397.374L1080.96 407.601V468.989L1072.76 456.064V397.374Z" fill="#D9DAE1"/>
<path d="M1083.17 286.119L1047.66 337.978C1047.66 337.978 1077.01 344.096 1092.83 368.897L1128.34 317.031C1112.53 292.229 1083.17 286.119 1083.17 286.119Z" fill="#EBEBEF"/>
<path opacity="0.3" d="M1105.94 335.279C1098.45 343.441 1088.98 349.525 1078.44 352.937L1078.32 352.995C1084.01 357.452 1088.91 362.827 1092.83 368.898L1128.34 317.031C1126.71 314.486 1124.89 312.065 1122.91 309.789C1119.39 319.533 1113.57 328.28 1105.94 335.279V335.279Z" fill="#C4C6D1"/>
<path d="M1128.34 317.031L1092.83 368.898C1092.83 368.898 1122.18 375.008 1137.99 399.81L1173.5 347.943C1157.69 323.141 1128.34 317.031 1128.34 317.031Z" fill="#EBEBEF"/>
<path opacity="0.3" d="M1163.03 335.493C1161.78 340.472 1159.94 345.283 1157.55 349.821C1154.13 360.343 1148.04 369.8 1139.88 377.271C1136.28 381.175 1132.21 384.629 1127.78 387.556C1131.68 391.185 1135.11 395.29 1137.98 399.776L1173.49 347.91C1170.55 343.338 1167.03 339.164 1163.03 335.493V335.493Z" fill="#C4C6D1"/>
<path d="M1142.45 490.986C1155.43 490.986 1165.95 480.466 1165.95 467.489C1165.95 454.511 1155.43 443.991 1142.45 443.991C1129.47 443.991 1118.95 454.511 1118.95 467.489C1118.95 480.466 1129.47 490.986 1142.45 490.986Z" fill="#EBEBEF"/>
<path opacity="0.3" d="M1144.04 453.816C1144.27 453.844 1144.51 453.786 1144.71 453.653C1144.91 453.52 1145.05 453.321 1145.12 453.092C1145.18 452.863 1145.16 452.619 1145.06 452.403C1144.96 452.187 1144.79 452.013 1144.57 451.914C1140.01 449.683 1134.73 449.896 1130.91 453.693C1129.25 455.333 1128.05 457.381 1127.43 459.631C1126.82 461.882 1126.8 464.255 1127.39 466.512C1127.46 466.753 1127.62 466.962 1127.83 467.1C1128.04 467.238 1128.29 467.296 1128.54 467.264C1128.78 467.233 1129.01 467.113 1129.18 466.927C1129.35 466.741 1129.45 466.501 1129.45 466.25C1129.6 462.909 1131.01 459.747 1133.39 457.4C1134.78 456.034 1136.46 455.001 1138.3 454.38C1140.15 453.759 1142.11 453.566 1144.04 453.816V453.816Z" fill="#C4C6D1"/>
<path opacity="0.3" d="M1158.96 484.212C1156.45 486.687 1153.42 488.566 1150.08 489.711C1146.75 490.856 1143.2 491.237 1139.7 490.826C1136.2 490.415 1132.84 489.222 1129.86 487.336C1126.89 485.45 1124.37 482.919 1122.5 479.931C1126.7 483.75 1132.14 485.923 1137.81 486.048C1143.48 486.173 1149.01 484.242 1153.37 480.612C1157.73 476.981 1160.64 471.895 1161.54 466.294C1162.44 460.692 1161.29 454.953 1158.29 450.134C1158.59 450.405 1158.88 450.684 1159.17 450.954C1161.34 453.151 1163.06 455.754 1164.23 458.615C1165.39 461.476 1165.98 464.538 1165.96 467.627C1165.94 470.716 1165.31 473.771 1164.11 476.617C1162.91 479.462 1161.16 482.043 1158.96 484.212V484.212Z" fill="#C4C6D1"/>
<path d="M1150.33 436.044C1150.2 436.043 1150.08 436.027 1149.95 435.995C1145.91 435.039 1141.71 434.875 1137.6 435.511C1137.39 435.543 1137.17 435.534 1136.96 435.482C1136.75 435.43 1136.55 435.338 1136.38 435.21C1136.21 435.082 1136.06 434.921 1135.95 434.736C1135.84 434.551 1135.76 434.346 1135.73 434.133C1135.7 433.92 1135.71 433.702 1135.76 433.492C1135.81 433.283 1135.9 433.086 1136.03 432.912C1136.16 432.738 1136.32 432.592 1136.5 432.48C1136.69 432.369 1136.89 432.295 1137.11 432.263C1141.63 431.568 1146.25 431.752 1150.71 432.804C1151.1 432.894 1151.45 433.126 1151.68 433.457C1151.92 433.787 1152.02 434.192 1151.97 434.593C1151.93 434.995 1151.73 435.365 1151.43 435.633C1151.13 435.901 1150.74 436.047 1150.33 436.044V436.044Z" fill="#D9DAE1"/>
<path d="M1133.55 429.433C1133.34 429.457 1133.12 429.437 1132.91 429.376C1132.7 429.315 1132.51 429.214 1132.34 429.078C1132.17 428.942 1132.03 428.774 1131.93 428.584C1131.82 428.394 1131.76 428.185 1131.74 427.969C1131.71 427.754 1131.73 427.536 1131.79 427.328C1131.85 427.12 1131.96 426.927 1132.09 426.758C1132.23 426.589 1132.4 426.449 1132.59 426.345C1132.78 426.241 1132.98 426.176 1133.2 426.153C1138.34 425.005 1143.65 424.824 1148.85 425.62C1149.07 425.653 1149.27 425.727 1149.46 425.84C1149.65 425.953 1149.81 426.101 1149.94 426.277C1150.07 426.453 1150.16 426.652 1150.21 426.863C1150.26 427.075 1150.27 427.295 1150.24 427.51C1150.21 427.726 1150.13 427.932 1150.02 428.119C1149.91 428.305 1149.76 428.468 1149.58 428.597C1149.41 428.726 1149.21 428.819 1149 428.871C1148.79 428.923 1148.57 428.933 1148.35 428.9C1143.55 428.169 1138.65 428.336 1133.91 429.392C1133.8 429.418 1133.67 429.432 1133.55 429.433V429.433Z" fill="#D9DAE1"/>
<path d="M1133.56 489.247L1125.64 497.072L1112.64 483.949L1120.57 476.125C1121.74 479.075 1123.49 481.758 1125.73 484.013C1127.96 486.268 1130.62 488.048 1133.56 489.247V489.247Z" fill="#D9DAE1"/>
<path opacity="0.5" d="M1120.37 491.732L1125.64 497.072L1133.56 489.247C1131.48 488.396 1129.53 487.246 1127.77 485.835C1125.48 488.007 1123 489.98 1120.37 491.732Z" fill="#C4C6D1"/>
<path d="M1126.49 497.913L1111.83 483.067C1110.49 481.714 1108.31 481.699 1106.96 483.034C1105.61 484.369 1105.6 486.549 1106.93 487.902L1121.6 502.748C1122.93 504.102 1125.11 504.117 1126.47 502.782C1127.82 501.447 1127.83 499.267 1126.49 497.913Z" fill="#EBEBEF"/>
<path opacity="0.3" d="M1123.91 495.275C1122.1 496.757 1120.21 498.126 1118.24 499.376L1121.62 502.796C1122.26 503.449 1123.13 503.82 1124.05 503.827C1124.97 503.835 1125.85 503.479 1126.5 502.837C1127.15 502.195 1127.52 501.321 1127.53 500.406C1127.54 499.491 1127.18 498.61 1126.54 497.957L1123.91 495.275Z" fill="#C4C6D1"/>
<path d="M1143.61 525.987L1096.58 511.698C1091.3 510.097 1085.73 513.07 1084.13 518.338C1082.53 523.606 1085.51 529.174 1090.78 530.775L1137.82 545.064C1143.09 546.665 1148.66 543.693 1150.26 538.425C1151.86 533.157 1148.88 527.588 1143.61 525.987Z" fill="#EBEBEF"/>
<path opacity="0.3" d="M1150.25 538.44C1149.62 540.485 1148.36 542.277 1146.64 543.551C1144.93 544.825 1142.85 545.514 1140.71 545.518C1139.73 545.518 1138.75 545.372 1137.81 545.083L1127.24 541.868C1129.77 542.636 1132.5 542.368 1134.83 541.122C1137.16 539.876 1138.91 537.755 1139.67 535.225C1140.44 532.695 1140.17 529.964 1138.93 527.632C1137.68 525.301 1135.56 523.559 1133.03 522.792L1143.6 525.998C1144.86 526.379 1146.02 527.003 1147.03 527.834C1148.05 528.665 1148.89 529.688 1149.5 530.843C1150.12 531.999 1150.5 533.264 1150.63 534.568C1150.76 535.871 1150.63 537.187 1150.25 538.44V538.44Z" fill="#C4C6D1"/>
<path d="M1055.84 645.77L1102.88 660.061C1105.41 660.83 1107.54 662.573 1108.78 664.906C1110.03 667.239 1110.3 669.972 1109.53 672.503L1107.62 678.781C1107.49 679.207 1107.28 679.604 1106.99 679.949C1106.71 680.293 1106.36 680.579 1105.97 680.789C1105.58 680.999 1105.14 681.129 1104.7 681.173C1104.26 681.216 1103.81 681.172 1103.38 681.042L1043.73 662.922C1042.87 662.661 1042.15 662.067 1041.72 661.273C1041.3 660.478 1041.21 659.548 1041.47 658.686L1043.38 652.409C1044.15 649.878 1045.89 647.756 1048.22 646.51C1050.56 645.264 1053.29 644.997 1055.82 645.765L1055.84 645.77Z" fill="#EBEBEF"/>
<path opacity="0.3" d="M1102.87 660.061L1100.99 659.495C1100.39 661.051 1099.69 662.571 1098.92 664.047C1097.34 668.927 1094.91 673.49 1091.74 677.522L1103.4 681.057C1104.26 681.318 1105.19 681.225 1105.99 680.801C1106.78 680.377 1107.37 679.655 1107.64 678.793L1109.56 672.503C1109.93 671.247 1110.06 669.929 1109.93 668.624C1109.8 667.319 1109.41 666.052 1108.79 664.896C1108.17 663.741 1107.33 662.719 1106.31 661.889C1105.3 661.06 1104.13 660.438 1102.87 660.061V660.061Z" fill="#C4C6D1"/>
<path d="M1090.38 656.272L1068.3 649.563C1068.27 649.554 1068.25 649.534 1068.24 649.508C1068.22 649.482 1068.22 649.452 1068.23 649.424C1076.29 631.07 1083.26 612.259 1089.11 593.087C1099.53 558.805 1103.11 534.659 1103.11 534.659C1103.11 534.63 1103.13 534.605 1103.16 534.59C1103.18 534.574 1103.22 534.57 1103.25 534.577L1125.33 541.286C1125.34 541.29 1125.36 541.296 1125.37 541.306C1125.38 541.316 1125.39 541.328 1125.4 541.342C1125.41 541.357 1125.41 541.372 1125.41 541.388C1125.41 541.404 1125.41 541.419 1125.4 541.434C1117.33 559.782 1110.36 578.594 1104.53 597.77C1096.02 625.746 1090.53 656.198 1090.53 656.198C1090.52 656.227 1090.5 656.25 1090.47 656.263C1090.44 656.277 1090.41 656.28 1090.38 656.272V656.272Z" fill="#D9DAE1"/>
<path opacity="0.5" d="M1106.13 548.159C1111.36 548.16 1116.55 548.894 1121.57 550.341C1123.92 544.698 1125.4 541.434 1125.4 541.434C1125.41 541.419 1125.41 541.404 1125.41 541.388C1125.41 541.372 1125.41 541.357 1125.4 541.342C1125.39 541.328 1125.38 541.316 1125.37 541.306C1125.36 541.296 1125.34 541.29 1125.33 541.286L1103.25 534.577C1103.22 534.57 1103.19 534.574 1103.16 534.59C1103.13 534.605 1103.11 534.63 1103.11 534.659C1103.11 534.659 1102.35 539.711 1100.55 548.454C1102.4 548.262 1104.27 548.164 1106.13 548.159Z" fill="#C4C6D1"/>
<path d="M1016.74 162.259C1008.43 161.853 1000.59 158.34 994.76 152.418L988.927 146.586L989.001 146.504C989.727 145.758 990.13 144.756 990.123 143.715C990.116 142.674 989.699 141.677 988.963 140.941C988.226 140.205 987.23 139.788 986.188 139.781C985.147 139.774 984.145 140.177 983.398 140.903L975.827 148.473C975.459 148.841 975.168 149.278 974.969 149.759C974.77 150.24 974.668 150.756 974.668 151.276C974.668 151.797 974.771 152.312 974.971 152.793C975.17 153.274 975.463 153.711 975.831 154.078C976.2 154.446 976.637 154.738 977.118 154.937C977.599 155.136 978.115 155.238 978.635 155.237C979.156 155.237 979.672 155.134 980.152 154.934C980.633 154.735 981.07 154.443 981.438 154.074L981.512 153.992L987.319 159.799C993.243 165.584 996.759 173.395 997.163 181.664C997.278 185.338 998.463 188.897 1000.57 191.906C1002.68 194.915 1005.63 197.243 1009.04 198.602C1012.46 199.961 1016.19 200.294 1019.8 199.558C1023.4 198.823 1026.71 197.052 1029.31 194.462C1031.92 191.873 1033.72 188.578 1034.48 184.983C1035.24 181.388 1034.93 177.648 1033.6 174.224C1032.26 170.8 1029.96 167.841 1026.96 165.709C1023.97 163.578 1020.42 162.367 1016.74 162.227L1016.74 162.259Z" fill="#EBEBEF"/>
<path opacity="0.3" d="M989.139 141.067L988.852 140.78C988.905 140.819 988.954 140.863 988.999 140.911C989.05 140.959 989.097 141.012 989.139 141.067V141.067Z" fill="#C4C6D1"/>
<path opacity="0.3" d="M1028.41 195.197C1024.88 198.27 1020.35 199.93 1015.67 199.855C1010.99 199.781 1006.51 197.979 1003.09 194.795C999.585 191.522 997.473 187.03 997.188 182.247C999.305 185.929 1002.61 188.787 1006.55 190.355C1010.5 191.924 1014.86 192.112 1018.93 190.888C1023 189.664 1026.53 187.1 1028.96 183.614C1031.39 180.127 1032.56 175.922 1032.3 171.683C1034.45 175.451 1035.25 179.848 1034.54 184.132C1033.83 188.415 1031.66 192.324 1028.41 195.197V195.197Z" fill="#C4C6D1"/>
<path d="M983.96 103.225C982.473 103.227 981.019 102.787 979.782 101.962C978.545 101.137 977.581 99.9642 977.011 98.5911C976.441 97.218 976.292 95.7068 976.581 94.2487C976.871 92.7906 977.587 91.4513 978.638 90.4001C979.69 89.349 981.029 88.6333 982.488 88.3437C983.946 88.054 985.457 88.2035 986.831 88.7731C988.204 89.3428 989.378 90.307 990.203 91.5437C991.028 92.7804 991.467 94.234 991.465 95.7205C991.461 97.7095 990.669 99.6158 989.262 101.022C987.856 102.429 985.949 103.221 983.96 103.225V103.225ZM983.96 91.4885C983.122 91.4869 982.303 91.7337 981.606 92.1978C980.909 92.6618 980.365 93.3222 980.043 94.0953C979.722 94.8685 979.637 95.7197 979.799 96.5411C979.961 97.3626 980.364 98.1174 980.956 98.7101C981.547 99.3028 982.301 99.7067 983.123 99.8706C983.944 100.035 984.796 99.9512 985.569 99.6312C986.343 99.3111 987.005 98.7687 987.47 98.0726C987.936 97.3764 988.184 96.5579 988.184 95.7205C988.184 94.5996 987.739 93.5244 986.947 92.7309C986.155 91.9375 985.081 91.4907 983.96 91.4885Z" fill="#EBEBEF"/>
<path d="M589.139 305.467C587.653 305.468 586.199 305.029 584.963 304.205C583.726 303.38 582.761 302.207 582.192 300.835C581.622 299.462 581.472 297.951 581.761 296.493C582.05 295.036 582.765 293.696 583.815 292.645C584.866 291.593 586.204 290.877 587.662 290.586C589.12 290.296 590.631 290.444 592.005 291.013C593.378 291.581 594.552 292.544 595.378 293.779C596.204 295.015 596.645 296.468 596.645 297.954C596.643 299.944 595.852 301.853 594.445 303.261C593.038 304.669 591.13 305.462 589.139 305.467V305.467ZM589.139 293.73C588.301 293.729 587.482 293.976 586.785 294.44C586.087 294.904 585.544 295.565 585.222 296.339C584.901 297.113 584.816 297.964 584.979 298.786C585.142 299.608 585.546 300.362 586.138 300.955C586.731 301.547 587.486 301.95 588.307 302.113C589.129 302.276 589.981 302.192 590.755 301.87C591.529 301.549 592.19 301.005 592.654 300.308C593.118 299.611 593.366 298.792 593.364 297.954C593.362 296.834 592.916 295.761 592.124 294.97C591.332 294.178 590.259 293.732 589.139 293.73V293.73Z" fill="#EBEBEF"/>
<path d="M948.216 74.175C946.006 74.1766 943.845 73.5229 942.007 72.2964C940.168 71.07 938.735 69.326 937.888 67.285C937.041 65.2439 936.819 62.9977 937.249 60.8303C937.679 58.6629 938.742 56.6717 940.305 55.1087C941.867 53.5456 943.857 52.4809 946.025 52.0492C948.192 51.6175 950.439 51.8383 952.481 52.6835C954.523 53.5287 956.269 54.9605 957.497 56.7976C958.725 58.6348 959.38 60.7948 959.38 63.0045C959.376 65.9644 958.198 68.8019 956.106 70.8956C954.013 72.9893 951.176 74.1685 948.216 74.175V74.175ZM948.216 55.1228C946.654 55.1212 945.128 55.5827 943.829 56.4491C942.53 57.3154 941.517 58.5476 940.919 59.9896C940.32 61.4316 940.163 63.0187 940.468 64.5499C940.772 66.0812 941.524 67.4878 942.628 68.5917C943.732 69.6956 945.139 70.4472 946.67 70.7514C948.202 71.0556 949.789 70.8986 951.231 70.3004C952.674 69.7023 953.906 68.6897 954.772 67.391C955.639 66.0922 956.1 64.5657 956.099 63.0045C956.097 60.9148 955.265 58.9113 953.788 57.4337C952.31 55.9561 950.306 55.125 948.216 55.1228V55.1228Z" fill="#EBEBEF"/>
<path d="M581.868 271.848C579.934 271.848 578.043 271.275 576.435 270.2C574.826 269.126 573.573 267.598 572.833 265.811C572.094 264.025 571.9 262.059 572.278 260.162C572.656 258.265 573.588 256.523 574.957 255.156C576.325 253.79 578.068 252.859 579.965 252.483C581.863 252.106 583.829 252.301 585.615 253.042C587.402 253.784 588.928 255.038 590.002 256.647C591.075 258.255 591.647 260.146 591.646 262.08C591.644 264.672 590.612 267.156 588.779 268.988C586.945 270.82 584.46 271.848 581.868 271.848ZM581.868 255.585C580.583 255.585 579.327 255.966 578.258 256.679C577.19 257.393 576.357 258.408 575.866 259.595C575.374 260.782 575.245 262.088 575.496 263.348C575.747 264.608 576.365 265.765 577.274 266.673C578.182 267.582 579.34 268.201 580.6 268.451C581.861 268.702 583.167 268.573 584.354 268.082C585.541 267.59 586.556 266.757 587.27 265.689C587.984 264.621 588.365 263.365 588.365 262.08C588.365 260.358 587.68 258.705 586.462 257.487C585.243 256.269 583.591 255.585 581.868 255.585Z" fill="#EBEBEF"/>
<path d="M963.613 32.4864C960.679 32.488 957.811 31.6197 955.371 29.9914C952.931 28.363 951.029 26.0477 949.905 23.3383C948.781 20.6289 948.486 17.6471 949.057 14.7702C949.629 11.8932 951.041 9.25025 953.114 7.17564C955.188 5.10103 957.831 3.68794 960.708 3.11512C963.585 2.5423 966.568 2.83547 969.278 3.95756C971.989 5.07964 974.305 6.98023 975.935 9.41893C977.565 11.8576 978.435 14.7249 978.435 17.658C978.431 21.588 976.868 25.3559 974.09 28.1356C971.311 30.9153 967.543 32.4799 963.613 32.4864V32.4864ZM963.613 6.11022C961.328 6.10859 959.094 6.78448 957.194 8.05238C955.293 9.32028 953.812 11.1232 952.936 13.2332C952.061 15.3431 951.831 17.6652 952.276 19.9058C952.72 22.1464 953.82 24.2048 955.435 25.8206C957.05 27.4364 959.108 28.5371 961.348 28.9833C963.589 29.4295 965.912 29.2013 968.022 28.3275C970.133 27.4538 971.938 25.9737 973.207 24.0745C974.477 22.1753 975.154 19.9423 975.154 17.658C975.15 14.5981 973.933 11.6646 971.77 9.50017C969.606 7.33571 966.673 6.11672 963.613 6.11022V6.11022Z" fill="#EBEBEF"/>
<path d="M544.594 269.011C542.278 269.019 540.012 268.34 538.082 267.06C536.153 265.78 534.646 263.957 533.753 261.82C532.86 259.684 532.621 257.331 533.066 255.059C533.511 252.786 534.62 250.697 536.253 249.055C537.886 247.413 539.969 246.293 542.239 245.835C544.51 245.377 546.865 245.603 549.006 246.484C551.148 247.365 552.98 248.861 554.271 250.783C555.562 252.706 556.254 254.968 556.259 257.283C556.263 260.383 555.038 263.359 552.851 265.558C550.665 267.756 547.695 268.998 544.594 269.011V269.011ZM544.594 248.885C542.925 248.876 541.292 249.364 539.9 250.286C538.509 251.207 537.423 252.522 536.78 254.061C536.136 255.601 535.965 257.297 536.288 258.935C536.61 260.572 537.412 262.076 538.591 263.258C539.77 264.439 541.273 265.243 542.91 265.569C544.547 265.894 546.243 265.726 547.785 265.086C549.326 264.446 550.643 263.363 551.567 261.973C552.492 260.584 552.983 258.952 552.978 257.283C552.976 255.057 552.093 252.922 550.522 251.344C548.952 249.766 546.821 248.873 544.594 248.86V248.885Z" fill="#EBEBEF"/>
<path d="M954.104 123.671C952.618 123.673 951.164 123.234 949.927 122.409C948.691 121.585 947.726 120.412 947.156 119.039C946.586 117.667 946.436 116.156 946.725 114.698C947.014 113.24 947.729 111.901 948.78 110.849C949.83 109.798 951.169 109.081 952.627 108.791C954.085 108.5 955.596 108.649 956.97 109.217C958.343 109.785 959.517 110.748 960.343 111.984C961.169 113.22 961.61 114.672 961.61 116.159C961.61 118.15 960.819 120.059 959.412 121.468C958.005 122.877 956.096 123.669 954.104 123.671V123.671ZM954.104 111.935C953.266 111.933 952.447 112.18 951.75 112.645C951.052 113.109 950.508 113.77 950.187 114.544C949.866 115.317 949.781 116.169 949.944 116.99C950.107 117.812 950.511 118.567 951.103 119.159C951.695 119.752 952.45 120.155 953.272 120.318C954.094 120.481 954.946 120.396 955.72 120.075C956.493 119.754 957.154 119.21 957.619 118.513C958.083 117.816 958.33 116.996 958.329 116.159C958.327 115.039 957.881 113.966 957.089 113.174C956.297 112.383 955.224 111.937 954.104 111.935V111.935Z" fill="#EBEBEF"/>
<path d="M885.257 25.6711C882.31 27.2432 879.898 29.6555 878.325 32.6014C878.138 32.9568 877.857 33.2544 877.513 33.462C877.169 33.6697 876.775 33.7794 876.373 33.7794C875.971 33.7794 875.577 33.6697 875.233 33.462C874.889 33.2544 874.608 32.9568 874.421 32.6014C872.848 29.6579 870.435 27.2485 867.489 25.6793C867.134 25.4908 866.837 25.2091 866.629 24.8645C866.422 24.5199 866.312 24.1253 866.312 23.7232C866.312 23.321 866.422 22.9265 866.629 22.5819C866.837 22.2373 867.134 21.9556 867.489 21.7671C870.435 20.1979 872.848 17.7885 874.421 14.845C874.608 14.4895 874.889 14.1919 875.233 13.9843C875.577 13.7767 875.971 13.667 876.373 13.667C876.775 13.667 877.169 13.7767 877.513 13.9843C877.857 14.1919 878.138 14.4895 878.325 14.845C879.903 17.7852 882.314 20.1935 885.257 21.7671C885.61 21.9563 885.905 22.2378 886.111 22.5815C886.317 22.9253 886.426 23.3184 886.426 23.7191C886.426 24.1197 886.317 24.5129 886.111 24.8566C885.905 25.2004 885.61 25.4819 885.257 25.6711V25.6711Z" fill="#EBEBEF"/>
<path d="M658.838 114.272C655.896 115.844 653.487 118.253 651.915 121.195C651.727 121.55 651.445 121.847 651.1 122.054C650.756 122.261 650.361 122.371 649.959 122.371C649.556 122.371 649.162 122.261 648.817 122.054C648.473 121.847 648.191 121.55 648.002 121.195C646.43 118.253 644.021 115.844 641.079 114.272C640.724 114.084 640.426 113.802 640.219 113.458C640.012 113.113 639.902 112.718 639.902 112.316C639.902 111.914 640.012 111.52 640.219 111.175C640.426 110.83 640.724 110.549 641.079 110.36C644.025 108.791 646.437 106.382 648.01 103.438C648.199 103.083 648.481 102.786 648.825 102.578C649.17 102.371 649.565 102.262 649.967 102.262C650.369 102.262 650.764 102.371 651.108 102.578C651.453 102.786 651.735 103.083 651.923 103.438C653.493 106.383 655.903 108.796 658.847 110.368C659.199 110.558 659.494 110.84 659.699 111.185C659.904 111.529 660.012 111.922 660.011 112.323C660.011 112.724 659.901 113.116 659.695 113.46C659.488 113.803 659.192 114.084 658.838 114.272V114.272Z" fill="#EBEBEF"/>
<path d="M684.171 299.915C681.225 301.484 678.812 303.893 677.239 306.837C677.052 307.192 676.771 307.49 676.427 307.697C676.083 307.905 675.689 308.015 675.287 308.015C674.885 308.015 674.491 307.905 674.147 307.697C673.803 307.49 673.522 307.192 673.335 306.837C671.762 303.893 669.349 301.484 666.403 299.915C666.048 299.726 665.751 299.444 665.543 299.1C665.336 298.755 665.227 298.361 665.227 297.959C665.227 297.556 665.336 297.162 665.543 296.817C665.751 296.473 666.048 296.191 666.403 296.002C669.349 294.433 671.762 292.024 673.335 289.08C673.522 288.725 673.803 288.427 674.147 288.22C674.491 288.012 674.885 287.902 675.287 287.902C675.689 287.902 676.083 288.012 676.427 288.22C676.771 288.427 677.052 288.725 677.239 289.08C678.809 292.028 681.223 294.441 684.171 296.011C684.524 296.2 684.819 296.481 685.025 296.825C685.231 297.169 685.34 297.562 685.34 297.963C685.34 298.363 685.231 298.756 685.025 299.1C684.819 299.444 684.524 299.725 684.171 299.915V299.915Z" fill="#EBEBEF"/>
<path d="M548.6 641.558C545.955 642.965 543.79 645.13 542.382 647.775C542.214 648.095 541.961 648.362 541.652 648.548C541.343 648.735 540.988 648.833 540.627 648.833C540.266 648.833 539.911 648.735 539.602 648.548C539.293 648.362 539.04 648.095 538.872 647.775C537.462 645.132 535.297 642.968 532.654 641.558C532.332 641.392 532.062 641.14 531.874 640.83C531.686 640.521 531.586 640.166 531.586 639.803C531.586 639.441 531.686 639.086 531.874 638.776C532.062 638.467 532.332 638.215 532.654 638.048C535.296 636.633 537.46 634.467 538.872 631.823C539.04 631.504 539.293 631.237 539.602 631.05C539.911 630.864 540.266 630.765 540.627 630.765C540.988 630.765 541.343 630.864 541.652 631.05C541.961 631.237 542.214 631.504 542.382 631.823C543.791 634.469 545.956 636.636 548.6 638.048C548.922 638.215 549.192 638.467 549.38 638.776C549.568 639.086 549.668 639.441 549.668 639.803C549.668 640.166 549.568 640.521 549.38 640.83C549.192 641.14 548.922 641.392 548.6 641.558V641.558Z" fill="#EBEBEF"/>
<path d="M568.351 611.475C566.565 612.422 565.102 613.881 564.152 615.666C564.038 615.88 563.868 616.06 563.66 616.185C563.451 616.31 563.213 616.376 562.97 616.376C562.727 616.376 562.489 616.31 562.281 616.185C562.073 616.06 561.903 615.88 561.789 615.666C560.839 613.884 559.38 612.425 557.597 611.475C557.383 611.361 557.203 611.191 557.078 610.983C556.953 610.775 556.887 610.537 556.887 610.294C556.887 610.051 556.953 609.813 557.078 609.605C557.203 609.397 557.383 609.227 557.597 609.113C559.379 608.158 560.837 606.696 561.789 604.914C561.903 604.699 562.073 604.52 562.281 604.394C562.489 604.269 562.727 604.203 562.97 604.203C563.213 604.203 563.451 604.269 563.66 604.394C563.868 604.52 564.038 604.699 564.152 604.914C565.104 606.699 566.566 608.16 568.351 609.113C568.566 609.227 568.746 609.397 568.871 609.605C568.996 609.813 569.062 610.051 569.062 610.294C569.062 610.537 568.996 610.775 568.871 610.983C568.746 611.191 568.566 611.361 568.351 611.475V611.475Z" fill="#EBEBEF"/>
<path d="M256.778 537.407C253.834 538.979 251.424 541.392 249.854 544.337C249.666 544.692 249.384 544.989 249.039 545.197C248.695 545.404 248.3 545.513 247.898 545.513C247.496 545.513 247.101 545.404 246.756 545.197C246.412 544.989 246.13 544.692 245.941 544.337C244.372 541.392 241.962 538.979 239.018 537.407C238.663 537.219 238.365 536.939 238.157 536.595C237.95 536.251 237.84 535.857 237.84 535.455C237.84 535.053 237.95 534.659 238.157 534.315C238.365 533.971 238.663 533.69 239.018 533.503C241.967 531.921 244.377 529.497 245.941 526.54C246.13 526.184 246.412 525.887 246.756 525.68C247.101 525.473 247.496 525.363 247.898 525.363C248.3 525.363 248.695 525.473 249.039 525.68C249.384 525.887 249.666 526.184 249.854 526.54C251.424 529.487 253.838 531.9 256.786 533.47C257.149 533.655 257.454 533.937 257.667 534.285C257.88 534.633 257.992 535.033 257.992 535.441C257.991 535.849 257.877 536.248 257.663 536.595C257.448 536.942 257.142 537.223 256.778 537.407V537.407Z" fill="#EBEBEF"/>
<path d="M226.706 564.135C224.244 565.449 222.228 567.464 220.915 569.926C220.759 570.227 220.524 570.48 220.235 570.656C219.945 570.832 219.613 570.926 219.274 570.926C218.935 570.926 218.603 570.832 218.313 570.656C218.024 570.48 217.789 570.227 217.633 569.926C216.313 567.482 214.298 565.484 211.842 564.185C211.543 564.027 211.293 563.791 211.118 563.502C210.944 563.213 210.852 562.882 210.852 562.544C210.852 562.207 210.944 561.875 211.118 561.586C211.293 561.297 211.543 561.061 211.842 560.904C214.306 559.593 216.322 557.577 217.633 555.114C217.789 554.813 218.024 554.56 218.313 554.383C218.603 554.207 218.935 554.114 219.274 554.114C219.613 554.114 219.945 554.207 220.235 554.383C220.524 554.56 220.759 554.813 220.915 555.114C222.228 557.575 224.244 559.591 226.706 560.904C226.995 561.063 227.236 561.297 227.404 561.582C227.571 561.866 227.66 562.19 227.66 562.52C227.66 562.85 227.571 563.174 227.404 563.458C227.236 563.742 226.995 563.976 226.706 564.135V564.135Z" fill="#EBEBEF"/>
<path d="M215.181 524.76C213.752 525.524 212.582 526.694 211.817 528.122C211.726 528.294 211.589 528.437 211.422 528.537C211.255 528.637 211.065 528.69 210.87 528.69C210.676 528.69 210.485 528.637 210.318 528.537C210.151 528.437 210.014 528.294 209.923 528.122C209.164 526.693 207.996 525.522 206.568 524.76C206.396 524.668 206.253 524.532 206.153 524.365C206.053 524.198 206 524.007 206 523.813C206 523.618 206.053 523.427 206.153 523.26C206.253 523.094 206.396 522.957 206.568 522.865C207.997 522.109 209.166 520.94 209.923 519.511C210.014 519.339 210.151 519.196 210.318 519.096C210.485 518.996 210.676 518.943 210.87 518.943C211.065 518.943 211.255 518.996 211.422 519.096C211.589 519.196 211.726 519.339 211.817 519.511C212.58 520.939 213.751 522.106 215.181 522.865C215.352 522.957 215.496 523.094 215.595 523.26C215.695 523.427 215.748 523.618 215.748 523.813C215.748 524.007 215.695 524.198 215.595 524.365C215.496 524.532 215.352 524.668 215.181 524.76V524.76Z" fill="#EBEBEF"/>
<path d="M509.89 224.362C506.94 225.93 504.522 228.34 502.942 231.284C502.755 231.639 502.474 231.937 502.13 232.145C501.786 232.352 501.392 232.462 500.99 232.462C500.588 232.462 500.194 232.352 499.85 232.145C499.506 231.937 499.225 231.639 499.038 231.284C497.467 228.339 495.054 225.929 492.106 224.362C491.751 224.173 491.454 223.892 491.246 223.547C491.039 223.202 490.93 222.808 490.93 222.406C490.93 222.004 491.039 221.609 491.246 221.264C491.454 220.92 491.751 220.638 492.106 220.45C495.055 218.88 497.468 216.467 499.038 213.519C499.225 213.164 499.506 212.866 499.85 212.659C500.194 212.451 500.588 212.341 500.99 212.341C501.392 212.341 501.786 212.451 502.13 212.659C502.474 212.866 502.755 213.164 502.942 213.519C504.517 216.463 506.929 218.875 509.874 220.45C510.23 220.637 510.529 220.917 510.737 221.261C510.946 221.605 511.057 221.999 511.059 222.401C511.061 222.803 510.953 223.198 510.747 223.543C510.541 223.889 510.245 224.172 509.89 224.362V224.362Z" fill="#EBEBEF"/>
<path d="M1042.41 259.243C1039.46 260.81 1037.04 263.22 1035.47 266.165C1035.29 266.521 1035.01 266.818 1034.66 267.026C1034.32 267.233 1033.92 267.343 1033.52 267.343C1033.12 267.343 1032.73 267.233 1032.38 267.026C1032.04 266.818 1031.76 266.521 1031.57 266.165C1030 263.22 1027.59 260.81 1024.64 259.243C1024.28 259.055 1023.99 258.773 1023.78 258.428C1023.57 258.084 1023.46 257.689 1023.46 257.287C1023.46 256.885 1023.57 256.49 1023.78 256.146C1023.99 255.801 1024.28 255.519 1024.64 255.331C1027.59 253.761 1030 251.348 1031.57 248.401C1031.76 248.045 1032.04 247.748 1032.38 247.54C1032.73 247.332 1033.12 247.223 1033.52 247.223C1033.92 247.223 1034.32 247.332 1034.66 247.54C1035.01 247.748 1035.29 248.045 1035.47 248.401C1037.04 251.348 1039.46 253.761 1042.41 255.331C1042.76 255.519 1043.06 255.801 1043.26 256.146C1043.47 256.49 1043.58 256.885 1043.58 257.287C1043.58 257.689 1043.47 258.084 1043.26 258.428C1043.06 258.773 1042.76 259.055 1042.41 259.243V259.243Z" fill="#EBEBEF"/>
<path d="M1036.68 516.05C1034.68 517.114 1033.04 518.75 1031.97 520.75C1031.84 520.992 1031.65 521.195 1031.42 521.336C1031.18 521.478 1030.91 521.552 1030.64 521.552C1030.37 521.552 1030.1 521.478 1029.86 521.336C1029.63 521.195 1029.44 520.992 1029.31 520.75C1028.25 518.748 1026.61 517.111 1024.6 516.05C1024.36 515.923 1024.16 515.732 1024.02 515.498C1023.88 515.263 1023.8 514.995 1023.8 514.721C1023.8 514.448 1023.88 514.179 1024.02 513.945C1024.16 513.711 1024.36 513.52 1024.6 513.393C1026.61 512.328 1028.25 510.689 1029.31 508.685C1029.44 508.443 1029.63 508.24 1029.86 508.099C1030.1 507.957 1030.37 507.882 1030.64 507.882C1030.91 507.882 1031.18 507.957 1031.42 508.099C1031.65 508.24 1031.84 508.443 1031.97 508.685C1033.04 510.685 1034.68 512.323 1036.68 513.393C1036.92 513.52 1037.12 513.711 1037.27 513.945C1037.41 514.179 1037.48 514.448 1037.48 514.721C1037.48 514.995 1037.41 515.263 1037.27 515.498C1037.12 515.732 1036.92 515.923 1036.68 516.05V516.05Z" fill="#EBEBEF"/>
<path d="M1016.35 495.374C1013.86 496.705 1011.81 498.745 1010.48 501.238C1010.32 501.534 1010.08 501.782 1009.79 501.955C1009.51 502.128 1009.18 502.219 1008.84 502.219C1008.5 502.219 1008.17 502.128 1007.88 501.955C1007.59 501.782 1007.36 501.534 1007.2 501.238C1005.87 498.746 1003.83 496.705 1001.33 495.374C1001.04 495.214 1000.79 494.978 1000.62 494.689C1000.44 494.4 1000.35 494.07 1000.35 493.733C1000.35 493.397 1000.44 493.066 1000.62 492.778C1000.79 492.489 1001.04 492.252 1001.33 492.093C1003.83 490.758 1005.87 488.715 1007.2 486.221C1007.36 485.926 1007.6 485.681 1007.89 485.51C1008.17 485.339 1008.5 485.249 1008.84 485.249C1009.17 485.249 1009.5 485.339 1009.79 485.51C1010.08 485.681 1010.32 485.926 1010.48 486.221C1011.81 488.717 1013.86 490.761 1016.35 492.093C1016.65 492.254 1016.89 492.491 1017.06 492.78C1017.23 493.069 1017.32 493.398 1017.32 493.733C1017.32 494.069 1017.23 494.398 1017.06 494.687C1016.89 494.975 1016.65 495.212 1016.35 495.374V495.374Z" fill="#EBEBEF"/>
<path d="M846.983 66.7195C844.951 67.8046 843.286 69.4688 842.201 71.501C842.072 71.7465 841.877 71.9521 841.64 72.0954C841.402 72.2388 841.129 72.3145 840.852 72.3145C840.574 72.3145 840.302 72.2388 840.064 72.0954C839.826 71.9521 839.632 71.7465 839.502 71.501C838.417 69.4688 836.753 67.8046 834.72 66.7195C834.474 66.5899 834.269 66.3958 834.125 66.1581C833.982 65.9203 833.906 65.648 833.906 65.3704C833.906 65.0927 833.982 64.8204 834.125 64.5826C834.269 64.3449 834.474 64.1508 834.72 64.0212C836.757 62.9356 838.425 61.2682 839.51 59.2315C839.64 58.986 839.834 58.7804 840.072 58.6371C840.31 58.4937 840.582 58.418 840.86 58.418C841.138 58.418 841.41 58.4937 841.648 58.6371C841.886 58.7804 842.08 58.986 842.209 59.2315C843.295 61.2682 844.963 62.9356 847 64.0212C847.245 64.1522 847.449 64.3476 847.591 64.5862C847.733 64.8249 847.807 65.0977 847.805 65.3753C847.804 65.6529 847.726 65.9248 847.581 66.1617C847.437 66.3986 847.23 66.5914 846.983 66.7195V66.7195Z" fill="#EBEBEF"/>
<path d="M686.015 134.218C683.978 135.304 682.31 136.971 681.224 139.008C681.095 139.253 680.901 139.459 680.663 139.602C680.425 139.746 680.153 139.821 679.875 139.821C679.597 139.821 679.325 139.746 679.087 139.602C678.849 139.459 678.655 139.253 678.526 139.008C677.441 136.973 675.777 135.306 673.743 134.218C673.498 134.089 673.292 133.894 673.149 133.657C673.005 133.419 672.93 133.147 672.93 132.869C672.93 132.591 673.005 132.319 673.149 132.081C673.292 131.844 673.498 131.649 673.743 131.52C675.776 130.435 677.44 128.771 678.526 126.738C678.655 126.493 678.849 126.287 679.087 126.144C679.325 126.001 679.597 125.925 679.875 125.925C680.153 125.925 680.425 126.001 680.663 126.144C680.901 126.287 681.095 126.493 681.224 126.738C682.31 128.773 683.978 130.438 686.015 131.52C686.261 131.649 686.466 131.844 686.609 132.081C686.753 132.319 686.829 132.591 686.829 132.869C686.829 133.147 686.753 133.419 686.609 133.657C686.466 133.894 686.261 134.089 686.015 134.218Z" fill="#EBEBEF"/>
<path d="M295.035 495.661L326.463 483.035L335.959 506.665C336.152 507.145 336.248 507.658 336.243 508.174C336.237 508.691 336.13 509.202 335.927 509.678C335.724 510.153 335.429 510.584 335.06 510.946C334.69 511.307 334.253 511.593 333.774 511.785L309.645 521.479C308.676 521.868 307.592 521.856 306.631 521.446C305.671 521.037 304.913 520.262 304.523 519.293L295.027 495.664L295.035 495.661Z" fill="#EBEBEF"/>
<path opacity="0.3" d="M298.687 503.14C306.922 495.118 317.903 490.532 329.399 490.313L326.446 483.071L295.004 495.693L298.195 503.641C298.351 503.46 298.49 503.296 298.687 503.14Z" fill="#C4C6D1"/>
<path d="M324.009 471.94L289.125 485.954C287.649 486.546 286.934 488.223 287.527 489.698L289.557 494.751C290.15 496.227 291.827 496.942 293.302 496.349L328.186 482.335C329.662 481.743 330.377 480.066 329.784 478.591L327.754 473.538C327.161 472.063 325.484 471.347 324.009 471.94Z" fill="#D9DAE1"/>
<path opacity="0.5" d="M329.761 478.61L327.734 473.557C327.448 472.849 326.893 472.283 326.19 471.984C325.488 471.684 324.695 471.675 323.986 471.958L321.041 473.147C318.796 478.959 315.404 484.259 311.066 488.73C310.754 489.042 310.418 489.345 310.09 489.657L328.136 482.399C328.495 482.261 328.822 482.052 329.099 481.785C329.376 481.519 329.596 481.2 329.748 480.846C329.899 480.493 329.978 480.114 329.98 479.729C329.983 479.345 329.908 478.964 329.761 478.61Z" fill="#C4C6D1"/>
<path d="M290.829 485.278C290.829 485.278 286.522 473.369 268.902 467.727C268.902 467.727 290.476 460.501 299.098 481.956L290.829 485.278Z" fill="#EBEBEF"/>
<path opacity="0.3" d="M293.913 484.039L290.829 485.278C290.829 485.278 286.522 473.369 268.902 467.726H269.017C271.688 466.893 274.577 467.116 277.089 468.35C288.22 473.828 292.945 482.104 293.913 484.039Z" fill="#C4C6D1"/>
<path d="M322.271 472.647C322.271 472.647 316.947 460.64 326.101 443.778C326.101 443.778 304.774 453.841 313.698 476.092L322.271 472.647Z" fill="#EBEBEF"/>
<path opacity="0.3" d="M322.27 472.655L318.882 474.05C318.218 472.311 315.043 462.568 321.04 449.06C322.023 446.832 323.744 445.01 325.912 443.901L326.093 443.819C316.946 460.64 322.27 472.655 322.27 472.655Z" fill="#C4C6D1"/>
<path d="M262.953 452.168C262.953 452.168 299.219 440.021 313.713 476.084L299.095 481.956C299.095 481.956 292.582 461.641 262.953 452.168" fill="#EBEBEF"/>
<path opacity="0.3" d="M313.713 476.092L299.095 481.964C299.095 481.964 292.582 461.649 262.953 452.168C265.613 451.366 268.343 450.816 271.107 450.528C287.652 456.392 296.487 465.652 300.908 472.123C302.248 474.115 304.23 475.588 306.524 476.298C308.817 477.009 311.285 476.913 313.516 476.026L313.656 475.969C313.678 476.009 313.697 476.05 313.713 476.092V476.092Z" fill="#C4C6D1"/>
<path d="M378.866 580.198L272.309 547.585L266.467 566.665L373.024 599.278L378.866 580.198Z" fill="#EBEBEF"/>
<path opacity="0.3" d="M375.045 592.579L372.986 599.288L266.438 566.67L268.488 559.953H268.496L375.045 592.579Z" fill="#C4C6D1"/>
<path d="M360.295 640.859L341.211 635.018L339.158 641.723L358.242 647.564L360.295 640.859Z" fill="#D9DAE1"/>
<path d="M373.025 599.293L353.941 593.452L341.213 635.024L360.297 640.865L373.025 599.293Z" fill="#EBEBEF"/>
<path d="M272.822 614.088L253.738 608.247L251.685 614.952L270.769 620.793L272.822 614.088Z" fill="#D9DAE1"/>
<path d="M285.553 572.514L266.469 566.673L253.741 608.246L272.824 614.086L285.553 572.514Z" fill="#EBEBEF"/>
<path opacity="0.3" d="M366.699 619.832L372.99 599.328L353.91 593.489L351.449 601.592C358.75 601.994 366.37 610.294 366.699 619.832Z" fill="#C4C6D1"/>
<path opacity="0.3" d="M279.114 593.448L285.561 572.509L266.473 566.67L264.168 574.215C271.444 574.781 276.956 580.604 279.114 593.448Z" fill="#C4C6D1"/>
<path d="M380.898 581.753L375.566 599.164L375.476 599.427C375.17 600.196 374.585 600.82 373.839 601.176C373.092 601.532 372.238 601.593 371.448 601.346L354.033 596.015C353.62 595.89 353.236 595.684 352.903 595.41C352.57 595.135 352.294 594.798 352.091 594.417C351.889 594.036 351.763 593.619 351.722 593.19C351.681 592.76 351.725 592.327 351.851 591.914L353.344 587.043L357.183 574.511C357.308 574.097 357.513 573.712 357.787 573.378C358.061 573.044 358.398 572.767 358.779 572.564C359.16 572.361 359.578 572.234 360.008 572.193C360.438 572.151 360.872 572.194 361.285 572.321L378.692 577.652C379.107 577.775 379.493 577.979 379.829 578.252C380.165 578.525 380.444 578.862 380.649 579.243C380.854 579.624 380.981 580.042 381.024 580.473C381.067 580.904 381.024 581.339 380.898 581.753Z" fill="#D9DAE1"/>
<path d="M293.427 554.974L290.482 564.521L288.021 572.493C287.745 573.307 287.161 573.98 286.394 574.368C285.627 574.756 284.739 574.828 283.919 574.568L266.463 569.188C265.648 568.914 264.972 568.33 264.582 567.563C264.193 566.796 264.12 565.907 264.38 565.087L265.381 561.806L269.712 547.667C269.837 547.254 270.043 546.87 270.317 546.537C270.592 546.204 270.929 545.928 271.31 545.725C271.691 545.523 272.108 545.397 272.538 545.356C272.967 545.315 273.401 545.359 273.813 545.485L291.22 550.808C291.642 550.93 292.036 551.136 292.377 551.414C292.718 551.692 293 552.035 293.206 552.424C293.412 552.812 293.538 553.238 293.576 553.677C293.613 554.115 293.563 554.556 293.427 554.974V554.974Z" fill="#D9DAE1"/>
<path opacity="0.5" d="M377.756 591.988L375.566 599.164L375.476 599.427C375.17 600.195 374.585 600.82 373.839 601.176C373.092 601.532 372.238 601.593 371.448 601.346L354.033 596.015C353.62 595.889 353.236 595.684 352.903 595.409C352.57 595.135 352.294 594.798 352.091 594.417C351.889 594.036 351.763 593.619 351.722 593.19C351.681 592.76 351.725 592.327 351.851 591.914L353.344 587.042C358.095 591.01 364.094 593.171 370.283 593.144C372.818 593.131 375.336 592.741 377.756 591.988V591.988Z" fill="#C4C6D1"/>
<path opacity="0.5" d="M290.482 564.521L288.021 572.493C287.745 573.307 287.161 573.98 286.394 574.368C285.627 574.756 284.739 574.828 283.919 574.568L266.463 569.188C265.648 568.914 264.972 568.33 264.582 567.563C264.193 566.796 264.12 565.907 264.38 565.087L265.381 561.806C268.996 564.338 273.193 565.915 277.582 566.389C281.971 566.864 286.408 566.221 290.482 564.521V564.521Z" fill="#C4C6D1"/>
<path d="M343.341 523.628C343.019 523.629 342.704 523.534 342.435 523.356C342.166 523.179 341.956 522.926 341.83 522.629C341.704 522.333 341.668 522.006 341.727 521.689C341.785 521.372 341.936 521.08 342.16 520.848C345.042 517.848 347.318 514.319 348.862 510.457C348.938 510.25 349.054 510.061 349.204 509.9C349.354 509.74 349.534 509.611 349.735 509.521C349.936 509.432 350.153 509.384 350.372 509.38C350.592 509.376 350.81 509.416 351.014 509.498C351.218 509.579 351.404 509.702 351.56 509.856C351.715 510.011 351.839 510.196 351.922 510.399C352.005 510.603 352.046 510.821 352.043 511.041C352.041 511.26 351.994 511.477 351.905 511.679C350.209 515.946 347.702 519.846 344.523 523.161C344.367 523.313 344.182 523.433 343.979 523.513C343.776 523.594 343.56 523.633 343.341 523.628Z" fill="#EBEBEF"/>
<path d="M350.368 525.72C349.991 525.724 349.624 525.593 349.335 525.351C348.998 525.076 348.784 524.68 348.739 524.247C348.695 523.815 348.823 523.383 349.097 523.046C352.17 519.283 354.515 514.98 356.012 510.358C356.072 510.146 356.175 509.948 356.314 509.777C356.453 509.605 356.624 509.464 356.819 509.36C357.014 509.256 357.228 509.193 357.448 509.174C357.667 509.155 357.889 509.18 358.098 509.249C358.308 509.317 358.502 509.427 358.668 509.572C358.834 509.717 358.97 509.894 359.066 510.093C359.162 510.291 359.217 510.507 359.228 510.728C359.239 510.948 359.205 511.168 359.129 511.375C357.508 516.382 354.968 521.044 351.64 525.121C351.485 525.309 351.291 525.46 351.071 525.563C350.851 525.667 350.611 525.72 350.368 525.72Z" fill="#EBEBEF"/>
<path d="M561.608 364.641C561.175 364.642 560.759 364.471 560.452 364.166C558.11 361.83 555.338 359.97 552.29 358.687C552.083 358.609 551.895 358.49 551.735 358.337C551.576 358.184 551.449 358.001 551.362 357.798C551.276 357.595 551.231 357.376 551.23 357.155C551.23 356.935 551.274 356.716 551.361 356.513C551.447 356.31 551.573 356.126 551.732 355.973C551.891 355.819 552.079 355.7 552.285 355.621C552.492 355.542 552.712 355.506 552.932 355.514C553.153 355.522 553.37 355.575 553.569 355.669C557.003 357.113 560.126 359.207 562.765 361.836C562.917 361.989 563.038 362.17 563.121 362.369C563.204 362.568 563.246 362.781 563.246 362.997C563.246 363.212 563.204 363.426 563.121 363.625C563.038 363.824 562.917 364.005 562.765 364.157C562.459 364.465 562.043 364.639 561.608 364.641Z" fill="#EBEBEF"/>
<path d="M563.157 357.063C562.77 357.063 562.395 356.927 562.099 356.677C559.147 354.187 555.756 352.271 552.1 351.027C551.896 350.956 551.708 350.846 551.547 350.703C551.386 350.56 551.255 350.387 551.161 350.193C551.067 349.999 551.012 349.788 550.999 349.573C550.986 349.358 551.016 349.143 551.087 348.939C551.157 348.736 551.267 348.548 551.41 348.387C551.553 348.226 551.727 348.095 551.921 348.001C552.114 347.906 552.325 347.852 552.54 347.839C552.755 347.826 552.971 347.856 553.174 347.926C557.216 349.316 560.963 351.447 564.224 354.209C564.482 354.426 564.667 354.717 564.753 355.043C564.839 355.369 564.823 355.714 564.707 356.03C564.59 356.347 564.379 356.62 564.102 356.812C563.824 357.004 563.495 357.106 563.157 357.104V357.063Z" fill="#EBEBEF"/>
<path d="M655.721 644.289C655.721 645.225 655.349 646.122 654.688 646.783C654.026 647.444 653.129 647.816 652.194 647.816C651.497 647.81 650.817 647.604 650.235 647.221C649.653 646.839 649.194 646.296 648.913 645.659C647.729 643.312 645.94 641.324 643.731 639.899C641.522 638.475 638.972 637.666 636.346 637.556C634.298 637.408 632.242 637.673 630.299 638.336C628.356 638.998 626.566 640.045 625.035 641.413C623.505 642.781 622.265 644.442 621.39 646.299C620.514 648.156 620.021 650.169 619.94 652.22C619.644 658.872 623.483 665.072 629.365 667.106C630.06 667.368 630.634 667.879 630.973 668.54C631.313 669.201 631.394 669.964 631.202 670.682C630.767 672.453 629.184 672.945 627.921 673.142C627.519 673.204 627.109 673.204 626.707 673.142L626.321 673.085L625.911 672.995L625.477 672.88C624.916 672.716 624.368 672.514 623.836 672.273L623.467 672.109L622.868 671.814C622.663 671.715 622.458 671.6 622.245 671.486C620.782 670.663 619.383 669.731 618.061 668.697C615.902 666.909 613.628 665.265 611.253 663.776C608.821 662.482 606.17 661.648 603.435 661.316C603.787 658.368 603.14 655.388 601.598 652.852C601.599 650.369 601.874 647.893 602.418 645.47C602.884 643.382 603.551 641.344 604.411 639.385C607.045 633.38 611.373 628.273 616.866 624.691C622.359 621.108 628.778 619.206 635.337 619.217C635.337 619.217 642.604 612.828 639.069 604.216C636.698 598.475 633.327 592.234 633.327 586.329C633.29 583.266 634.349 580.29 636.313 577.939C636.771 577.357 637.399 576.933 638.109 576.725C638.82 576.516 639.578 576.535 640.277 576.778C640.977 577.021 641.583 577.475 642.012 578.079C642.441 578.682 642.671 579.405 642.67 580.145C642.645 580.861 642.48 581.566 642.186 582.22C639.053 589.495 643.909 596.089 646.977 603.544C650.512 612.156 644.991 621.423 644.991 621.423C644.991 621.423 653.769 628.091 655.696 643.748C655.716 643.928 655.724 644.108 655.721 644.289V644.289Z" fill="#EBEBEF"/>
<path opacity="0.3" d="M655.721 644.29C655.721 645.225 655.349 646.122 654.687 646.783C654.026 647.445 653.129 647.816 652.193 647.816C651.497 647.811 650.816 647.604 650.234 647.222C649.652 646.839 649.193 646.296 648.912 645.659C647.728 643.312 645.94 641.324 643.73 639.899C641.521 638.475 638.972 637.666 636.345 637.556C633.013 637.313 629.692 638.164 626.887 639.98C624.083 641.797 621.949 644.479 620.809 647.619C621.719 637.622 631.259 629.502 641.193 629.502C645.466 629.482 649.629 630.852 653.055 633.406C654.352 636.721 655.217 640.188 655.63 643.724C655.673 643.91 655.703 644.099 655.721 644.29V644.29Z" fill="#C4C6D1"/>
<path opacity="0.3" d="M646.738 623.072C646.96 623.31 647.198 623.564 647.444 623.892C647.198 623.573 646.96 623.318 646.738 623.072Z" fill="#C4C6D1"/>
<path opacity="0.3" d="M626.727 673.151L626.341 673.093L625.931 673.003L625.496 672.888C624.936 672.725 624.387 672.522 623.855 672.281L623.486 672.117L622.887 671.822C622.682 671.724 622.477 671.609 622.264 671.494C620.801 670.671 619.403 669.739 618.081 668.705C615.922 666.918 613.647 665.274 611.272 663.785C608.84 662.49 606.19 661.656 603.455 661.324C603.807 658.377 603.16 655.396 601.617 652.86C601.617 652.688 602.036 649.038 602.437 645.479C602.903 643.39 603.571 641.352 604.431 639.393C609.984 643.797 613.946 659.077 618.794 663.538C621.856 666.374 624.524 669.607 626.727 673.151V673.151Z" fill="#C4C6D1"/>
<path d="M612.044 674.611C612.054 675.516 611.735 676.395 611.144 677.082C610.554 677.769 609.733 678.217 608.836 678.342C608.667 678.354 608.497 678.354 608.328 678.342C607.51 678.343 606.715 678.075 606.065 677.581C605.414 677.086 604.944 676.391 604.727 675.603L602.512 665.007C603.006 663.871 603.332 662.669 603.48 661.439H603.586C606.317 661.55 608.974 662.358 611.305 663.785L611.568 663.94L612.044 674.611Z" fill="#D9DAE1"/>
<path d="M640.406 638.327L638.503 648.259C638.305 649.143 637.79 649.925 637.056 650.457C636.322 650.989 635.418 651.234 634.516 651.146C634.348 651.128 634.181 651.1 634.016 651.064C633.219 650.875 632.507 650.431 631.988 649.798C631.469 649.165 631.173 648.379 631.145 647.562L631.407 638.031C633.03 637.606 634.712 637.445 636.386 637.556C637.753 637.643 639.104 637.902 640.406 638.327V638.327Z" fill="#D9DAE1"/>
<path d="M675.203 649.998C674.927 649.998 674.655 649.928 674.413 649.795C674.171 649.662 673.966 649.47 673.818 649.237C673.67 649.004 673.583 648.737 673.566 648.462C673.548 648.186 673.601 647.91 673.718 647.66C674.963 645.01 675.604 642.116 675.597 639.188C675.597 638.753 675.769 638.336 676.077 638.028C676.385 637.721 676.802 637.548 677.237 637.548C677.672 637.548 678.09 637.721 678.397 638.028C678.705 638.336 678.878 638.753 678.878 639.188C678.882 642.59 678.134 645.951 676.688 649.03C676.559 649.317 676.35 649.56 676.087 649.732C675.824 649.903 675.517 649.996 675.203 649.998Z" fill="#EBEBEF"/>
<path d="M666.043 653.409C665.685 653.409 665.336 653.291 665.051 653.073C664.706 652.808 664.481 652.418 664.424 651.988C664.367 651.557 664.484 651.122 664.747 650.777C666.533 648.455 667.78 645.766 668.398 642.903C668.49 642.478 668.748 642.107 669.114 641.871C669.48 641.636 669.925 641.556 670.35 641.648C670.775 641.741 671.146 641.998 671.382 642.364C671.617 642.73 671.697 643.175 671.605 643.6C670.882 646.934 669.428 650.066 667.348 652.77C667.194 652.969 666.996 653.131 666.77 653.242C666.544 653.353 666.295 653.41 666.043 653.409Z" fill="#EBEBEF"/>
<path d="M926.915 675.95L717.008 636.825L713.374 656.313L923.282 695.437L926.915 675.95Z" fill="#D9DAE1"/>
<path d="M1014.71 299.751L992.691 323.191L926.928 675.948L907.438 672.314L978.172 292.935L1014.71 299.751Z" fill="#EBEBEF"/>
<path d="M770.7 254.273L782.783 284.069L717.02 636.826L736.51 640.459L807.244 261.08L770.7 254.273Z" fill="#EBEBEF"/>
<g opacity="0.5">
<path opacity="0.5" d="M998.47 311.766L1001.34 313.988L1014.71 299.742L978.176 292.935L976.371 302.637C984.114 304.673 991.548 307.743 998.47 311.766V311.766Z" fill="#C4C6D1"/>
<path opacity="0.5" d="M804.86 273.874L807.247 261.08L770.703 254.248L776.724 269.085C786.3 269.152 795.802 270.77 804.86 273.874Z" fill="#C4C6D1"/>
</g>
<path d="M1000.41 255.995L799.807 218.604L770.703 254.273L1014.71 299.742L1000.41 255.995Z" fill="#EBEBEF"/>
<path opacity="0.3" d="M1014.71 299.75L770.703 254.273L780.104 242.75L1010.08 285.603L1014.71 299.75Z" fill="#C4C6D1"/>
<path d="M1002.36 245.551L801.75 208.159L799.8 218.616L1000.41 256.008L1002.36 245.551Z" fill="#D9DAE1"/>
<path d="M962.797 375.364L791.871 343.505L789.678 355.269L960.604 387.128L962.797 375.364Z" fill="#D9DAE1"/>
<path d="M943.836 477.075L772.91 445.216L770.717 456.98L941.643 488.839L943.836 477.075Z" fill="#D9DAE1"/>
<path d="M924.867 578.777L753.941 546.918L751.748 558.681L922.674 590.54L924.867 578.777Z" fill="#D9DAE1"/>
<path opacity="0.5" d="M808.682 346.631L791.874 343.498L789.684 355.267L807.377 358.547C807.458 354.544 807.894 350.556 808.682 346.631V346.631Z" fill="#C4C6D1"/>
<path opacity="0.5" d="M791.427 448.625L772.921 445.172L770.723 456.933L789.745 460.476C789.954 456.484 790.517 452.518 791.427 448.625V448.625Z" fill="#C4C6D1"/>
<path opacity="0.5" d="M773.495 550.546L753.956 546.904L751.766 558.673L772.47 562.528C772.465 558.512 772.809 554.503 773.495 550.546V550.546Z" fill="#C4C6D1"/>
<path d="M876.685 632.839L838.938 625.803L832.854 658.432L870.601 665.468L876.685 632.839Z" fill="#D9DAE1"/>
<path opacity="0.5" d="M841.183 631.864C852.815 631.864 863.151 636.727 871.534 644.445C872.401 645.26 873.223 646.123 873.995 647.029L876.645 632.824L838.911 625.787L837.746 632.028C838.919 631.93 840.084 631.864 841.183 631.864Z" fill="#C4C6D1"/>
<path d="M865.672 587.231C845.345 596.106 847.576 613.78 846.805 615.281L873.136 620.202C872.997 618.504 881.438 602.814 865.672 587.231Z" fill="#EBEBEF"/>
<path opacity="0.3" d="M873.353 598.451C873.451 607.185 865.298 614.542 856.783 614.542C853.345 614.556 849.995 613.457 847.235 611.409C847.177 612.704 847.037 613.994 846.816 615.272L873.156 620.193C873.025 618.914 877.815 609.638 873.353 598.451Z" fill="#C4C6D1"/>
<path d="M859.991 619.365C859.89 619.377 859.788 619.377 859.688 619.365C859.26 619.285 858.882 619.039 858.636 618.681C858.39 618.322 858.296 617.881 858.375 617.454L861.213 602.207C861.293 601.779 861.539 601.399 861.898 601.152C862.257 600.905 862.7 600.811 863.129 600.891C863.557 600.97 863.937 601.217 864.184 601.576C864.431 601.935 864.525 602.377 864.445 602.806L861.599 618.052C861.523 618.423 861.322 618.756 861.029 618.995C860.736 619.234 860.369 619.365 859.991 619.365Z" fill="#D9DAE1"/>
<path d="M751.927 581.512L763.402 583.65C764.54 583.862 765.547 584.518 766.201 585.472C766.856 586.426 767.104 587.602 766.892 588.739L756.549 644.21L736.494 640.472L746.838 584.993C747.052 583.857 747.708 582.853 748.662 582.2C749.616 581.547 750.79 581.3 751.927 581.512V581.512Z" fill="#EBEBEF"/>
<path d="M880.839 621.626L839.116 613.849C837.548 613.557 836.04 614.59 835.748 616.158L834.648 622.06C834.355 623.627 835.389 625.135 836.957 625.427L878.681 633.204C880.248 633.496 881.756 632.462 882.048 630.895L883.149 624.993C883.441 623.425 882.407 621.918 880.839 621.626Z" fill="#EBEBEF"/>
<path opacity="0.3" d="M880.851 621.612L878.981 621.259C876.719 625.376 873.508 628.893 869.613 631.519L878.694 633.16C879.446 633.299 880.222 633.134 880.852 632.702C881.482 632.27 881.916 631.606 882.057 630.855L883.156 624.942C883.288 624.195 883.12 623.427 882.689 622.803C882.257 622.18 881.597 621.752 880.851 621.612V621.612Z" fill="#C4C6D1"/>
<path opacity="0.3" d="M765.958 593.761L745.902 590.022L743.638 602.165L763.694 605.903L765.958 593.761Z" fill="#C4C6D1"/>
<path opacity="0.3" d="M760.555 622.741L740.5 619.003L738.236 631.145L758.291 634.883L760.555 622.741Z" fill="#C4C6D1"/>
<path opacity="0.3" d="M752.188 640.886C751.127 633.045 750.071 625.207 749.021 617.372C748.486 605.542 751.117 593.785 756.642 583.311C756.74 583.015 756.839 582.728 756.945 582.433L751.942 581.498C750.805 581.287 749.631 581.536 748.678 582.189C747.724 582.843 747.069 583.848 746.856 584.984L736.512 640.459L752.967 643.527C752.696 642.649 752.434 641.771 752.188 640.886Z" fill="#C4C6D1"/>
<path d="M764.576 618.035L778.559 620.641C779.363 620.791 780.074 621.254 780.537 621.929C781 622.603 781.175 623.434 781.025 624.238L776.609 647.926L756.545 644.186L760.962 620.498C761.037 620.099 761.189 619.718 761.411 619.378C761.634 619.038 761.921 618.745 762.257 618.516C762.592 618.287 762.97 618.126 763.368 618.044C763.766 617.961 764.176 617.958 764.576 618.035V618.035Z" fill="#EBEBEF"/>
<path opacity="0.3" d="M765.233 633.103C765.047 628.078 766.385 623.115 769.072 618.865L764.585 618.044C763.781 617.896 762.951 618.071 762.276 618.532C761.602 618.993 761.137 619.702 760.984 620.505L756.57 644.207L768.949 646.512C766.711 642.381 765.44 637.796 765.233 633.103Z" fill="#C4C6D1"/>
<path d="M966.537 355.325L926.031 347.775L922.292 367.827L962.798 375.377L966.537 355.325Z" fill="#EBEBEF"/>
<path opacity="0.3" d="M939.437 370.874C938.486 363.832 937.537 356.784 936.591 349.731L926.034 347.746L922.293 367.791L939.478 370.989C939.461 370.952 939.447 370.914 939.437 370.874V370.874Z" fill="#C4C6D1"/>
<path d="M929.631 328.445L911.285 325.025L903.943 364.403L922.289 367.823L929.631 328.445Z" fill="#EBEBEF"/>
<path opacity="0.3" d="M915.364 351.937C914.984 343.279 916.348 334.633 919.375 326.512L911.295 325.011L903.953 364.379L917.373 366.839C916.706 361.896 916.036 356.929 915.364 351.937Z" fill="#C4C6D1"/>
<path d="M914.787 306.198L896.441 302.779L885.589 360.983L903.935 364.402L914.787 306.198Z" fill="#EBEBEF"/>
<path opacity="0.3" d="M894.349 350.862C893.839 339.433 896.387 328.074 901.731 317.958C903.211 313.374 905.203 308.972 907.67 304.835L896.481 302.752L885.629 360.983L895.989 362.919C895.431 358.889 894.885 354.87 894.349 350.862Z" fill="#C4C6D1"/>
<path d="M954.627 419.668L936.422 410.461L908.98 464.707L927.185 473.913L954.627 419.668Z" fill="#EBEBEF"/>
<path opacity="0.3" d="M943.984 425.324C938.677 441.751 929.665 456.738 917.645 469.129L927.127 473.927L954.574 419.69L948.168 416.45C946.905 419.452 945.518 422.38 943.984 425.324Z" fill="#C4C6D1"/>
<path d="M1106.76 319.656C1106.49 319.656 1106.21 319.588 1105.97 319.456C1105.73 319.324 1105.52 319.133 1105.38 318.901C1099.63 309.879 1088.85 307.542 1088.74 307.517C1088.53 307.47 1088.33 307.382 1088.15 307.257C1087.97 307.133 1087.82 306.974 1087.7 306.791C1087.58 306.607 1087.5 306.402 1087.46 306.188C1087.42 305.973 1087.43 305.753 1087.48 305.541C1087.52 305.328 1087.61 305.127 1087.74 304.948C1087.86 304.769 1088.02 304.617 1088.2 304.5C1088.39 304.382 1088.59 304.302 1088.81 304.264C1089.02 304.226 1089.24 304.231 1089.45 304.278C1089.95 304.376 1101.7 306.927 1108.18 317.105C1108.34 317.352 1108.43 317.637 1108.43 317.93C1108.44 318.223 1108.37 318.513 1108.23 318.77C1108.09 319.027 1107.89 319.241 1107.63 319.391C1107.38 319.541 1107.1 319.621 1106.8 319.623L1106.76 319.656Z" fill="#D9DAE1"/>
<path d="M1150.85 352.831C1150.57 352.832 1150.3 352.763 1150.06 352.631C1149.82 352.499 1149.61 352.309 1149.46 352.076C1143.72 343.055 1132.93 340.717 1132.83 340.693C1132.61 340.658 1132.4 340.579 1132.21 340.46C1132.02 340.342 1131.86 340.186 1131.73 340.003C1131.61 339.82 1131.52 339.614 1131.47 339.396C1131.43 339.178 1131.43 338.953 1131.48 338.736C1131.52 338.518 1131.61 338.312 1131.74 338.13C1131.87 337.948 1132.03 337.794 1132.22 337.677C1132.41 337.56 1132.62 337.483 1132.84 337.45C1133.06 337.417 1133.28 337.429 1133.5 337.486C1133.99 337.584 1145.75 340.135 1152.23 350.313C1152.38 350.561 1152.47 350.845 1152.48 351.138C1152.49 351.431 1152.42 351.721 1152.28 351.978C1152.14 352.235 1151.93 352.45 1151.68 352.6C1151.43 352.75 1151.14 352.829 1150.85 352.831V352.831Z" fill="#D9DAE1"/>
<path d="M1142 364.969C1141.73 364.97 1141.46 364.901 1141.21 364.769C1140.97 364.637 1140.77 364.447 1140.62 364.214C1134.88 355.193 1124.1 352.855 1123.98 352.831C1123.76 352.796 1123.55 352.717 1123.36 352.599C1123.18 352.48 1123.01 352.325 1122.89 352.142C1122.76 351.959 1122.67 351.752 1122.63 351.534C1122.59 351.316 1122.59 351.091 1122.63 350.874C1122.68 350.656 1122.77 350.45 1122.9 350.268C1123.02 350.087 1123.19 349.932 1123.38 349.816C1123.56 349.699 1123.78 349.621 1124 349.588C1124.22 349.555 1124.44 349.568 1124.65 349.624C1125.15 349.722 1136.9 352.273 1143.38 362.451C1143.54 362.699 1143.63 362.984 1143.64 363.276C1143.64 363.569 1143.58 363.859 1143.43 364.116C1143.29 364.373 1143.09 364.588 1142.84 364.738C1142.58 364.888 1142.3 364.968 1142 364.969V364.969Z" fill="#D9DAE1"/>
<path d="M1097.92 331.761C1097.65 331.762 1097.37 331.693 1097.13 331.562C1096.89 331.43 1096.68 331.239 1096.54 331.007C1090.79 321.985 1080.01 319.647 1079.9 319.623C1079.69 319.579 1079.49 319.493 1079.31 319.372C1079.13 319.25 1078.98 319.095 1078.86 318.914C1078.74 318.734 1078.66 318.532 1078.62 318.32C1078.58 318.108 1078.58 317.89 1078.63 317.679C1078.67 317.468 1078.76 317.268 1078.88 317.09C1079 316.911 1079.16 316.759 1079.34 316.641C1079.52 316.523 1079.72 316.442 1079.93 316.402C1080.14 316.362 1080.36 316.364 1080.57 316.408C1081.07 316.514 1092.82 319.065 1099.31 329.243C1099.47 329.491 1099.55 329.777 1099.56 330.071C1099.57 330.364 1099.5 330.655 1099.36 330.912C1099.22 331.169 1099.01 331.384 1098.76 331.533C1098.5 331.682 1098.22 331.761 1097.92 331.761V331.761Z" fill="#D9DAE1"/>
<path d="M1089.81 343.867C1089.53 343.867 1089.26 343.797 1089.02 343.663C1088.78 343.53 1088.57 343.338 1088.42 343.104C1082.68 334.123 1071.9 331.753 1071.79 331.728C1071.36 331.639 1070.99 331.384 1070.75 331.02C1070.51 330.655 1070.43 330.211 1070.52 329.785C1070.6 329.358 1070.86 328.985 1071.22 328.746C1071.59 328.508 1072.03 328.424 1072.46 328.513C1072.96 328.62 1084.71 331.171 1091.2 341.341C1091.31 341.522 1091.39 341.726 1091.43 341.938C1091.47 342.151 1091.46 342.369 1091.42 342.581C1091.37 342.792 1091.28 342.991 1091.16 343.169C1091.03 343.346 1090.88 343.496 1090.69 343.612C1090.43 343.78 1090.12 343.868 1089.81 343.867Z" fill="#D9DAE1"/>
<path d="M1065.27 405.083C1066.75 405.083 1067.95 403.882 1067.95 402.401C1067.95 400.92 1066.75 399.719 1065.27 399.719C1063.79 399.719 1062.59 400.92 1062.59 402.401C1062.59 403.882 1063.79 405.083 1065.27 405.083Z" fill="#EBEBEF"/>
<path d="M1065.27 450.528C1066.75 450.528 1067.95 449.327 1067.95 447.846C1067.95 446.365 1066.75 445.164 1065.27 445.164C1063.79 445.164 1062.59 446.365 1062.59 447.846C1062.59 449.327 1063.79 450.528 1065.27 450.528Z" fill="#EBEBEF"/>
<path d="M1026.38 405.083C1027.86 405.083 1029.06 403.882 1029.06 402.401C1029.06 400.92 1027.86 399.719 1026.38 399.719C1024.9 399.719 1023.7 400.92 1023.7 402.401C1023.7 403.882 1024.9 405.083 1026.38 405.083Z" fill="#EBEBEF"/>
<path d="M1026.38 450.528C1027.86 450.528 1029.06 449.327 1029.06 447.846C1029.06 446.365 1027.86 445.164 1026.38 445.164C1024.9 445.164 1023.7 446.365 1023.7 447.846C1023.7 449.327 1024.9 450.528 1026.38 450.528Z" fill="#EBEBEF"/>
<path opacity="0.3" d="M1060.67 429.885C1049.56 440.711 1034.71 446.859 1019.2 447.059H1018.91V456.08H1072.79V411.103C1070.43 418.301 1066.26 424.77 1060.67 429.885V429.885Z" fill="#C4C6D1"/>
<path d="M594.061 644.06L592.847 635.407L605.611 647.472C606.952 648.653 608.042 650.092 608.815 651.703C609.589 653.314 610.029 655.065 610.111 656.85C610.192 658.635 609.913 660.419 609.29 662.094C608.667 663.769 607.713 665.301 606.484 666.599C605.256 667.897 603.779 668.935 602.14 669.65C600.502 670.364 598.737 670.742 596.949 670.759C595.162 670.777 593.389 670.434 591.737 669.751C590.086 669.069 588.588 668.06 587.335 666.786L574.562 654.722L583.282 655.452C583.898 654.763 585.587 648.144 594.061 644.06Z" fill="#EBEBEF"/>
<path d="M598.401 654.951C599.701 654.951 600.755 653.897 600.755 652.597C600.755 651.297 599.701 650.244 598.401 650.244C597.101 650.244 596.047 651.297 596.047 652.597C596.047 653.897 597.101 654.951 598.401 654.951Z" fill="#D9DAE1"/>
<path d="M591.339 662.284C592.639 662.284 593.693 661.23 593.693 659.93C593.693 658.63 592.639 657.576 591.339 657.576C590.038 657.576 588.984 658.63 588.984 659.93C588.984 661.23 590.038 662.284 591.339 662.284Z" fill="#D9DAE1"/>
</g>
</svg>